<mxfile host="Electron" modified="2024-02-20T15:38:56.274Z" agent="Mozilla/5.0 (Windows NT 10.0; Win64; x64) AppleWebKit/537.36 (KHTML, like Gecko) draw.io/23.0.2 Chrome/120.0.6099.109 Electron/28.1.0 Safari/537.36" etag="vT2gjuFsN9tHZFjmJ2fC" version="23.0.2" type="device">
  <diagram name="PÃ¡gina-1" id="yupDZG4mDSAVkjXTZul7">
    <mxGraphModel dx="1434" dy="836" grid="1" gridSize="10" guides="1" tooltips="1" connect="1" arrows="1" fold="1" page="1" pageScale="1" pageWidth="827" pageHeight="1169" background="none" math="0" shadow="0">
      <root>
        <mxCell id="0" />
        <mxCell id="1" parent="0" />
        <mxCell id="sv7X3Cb8aacC4gwvDDDy-44" value="&lt;font color=&quot;#3399ff&quot;&gt;&lt;b&gt;go-vertical-slice-architecture&lt;/b&gt;&lt;/font&gt;" style="sketch=0;aspect=fixed;pointerEvents=1;shadow=0;dashed=0;html=1;strokeColor=#6c8ebf;labelPosition=center;verticalLabelPosition=bottom;verticalAlign=top;align=center;fillColor=#dae8fc;shape=mxgraph.mscae.enterprise.folder;gradientColor=#7ea6e0;" parent="1" vertex="1">
          <mxGeometry x="110" y="360" width="58.14" height="50" as="geometry" />
        </mxCell>
        <mxCell id="sv7X3Cb8aacC4gwvDDDy-65" style="edgeStyle=orthogonalEdgeStyle;rounded=0;orthogonalLoop=1;jettySize=auto;html=1;fillColor=#1ba1e2;strokeColor=#006EAF;" parent="1" source="sv7X3Cb8aacC4gwvDDDy-49" target="sv7X3Cb8aacC4gwvDDDy-64" edge="1">
          <mxGeometry relative="1" as="geometry" />
        </mxCell>
        <mxCell id="sv7X3Cb8aacC4gwvDDDy-49" value="&lt;font color=&quot;#3399ff&quot;&gt;cmd&lt;/font&gt;" style="sketch=0;aspect=fixed;pointerEvents=1;shadow=0;dashed=0;html=1;strokeColor=#6c8ebf;labelPosition=center;verticalLabelPosition=bottom;verticalAlign=top;align=center;fillColor=#dae8fc;shape=mxgraph.mscae.enterprise.folder;gradientColor=#7ea6e0;" parent="1" vertex="1">
          <mxGeometry x="329" y="95" width="50" height="43" as="geometry" />
        </mxCell>
        <mxCell id="sv7X3Cb8aacC4gwvDDDy-51" style="edgeStyle=orthogonalEdgeStyle;rounded=0;orthogonalLoop=1;jettySize=auto;html=1;entryX=0;entryY=0.5;entryDx=0;entryDy=0;entryPerimeter=0;fillColor=#1ba1e2;strokeColor=#006EAF;" parent="1" source="sv7X3Cb8aacC4gwvDDDy-44" target="sv7X3Cb8aacC4gwvDDDy-49" edge="1">
          <mxGeometry relative="1" as="geometry" />
        </mxCell>
        <mxCell id="sv7X3Cb8aacC4gwvDDDy-52" value="&lt;font color=&quot;#3399ff&quot;&gt;pkg&lt;/font&gt;" style="sketch=0;aspect=fixed;pointerEvents=1;shadow=0;dashed=0;html=1;strokeColor=#6c8ebf;labelPosition=center;verticalLabelPosition=bottom;verticalAlign=top;align=center;fillColor=#dae8fc;shape=mxgraph.mscae.enterprise.folder;gradientColor=#7ea6e0;" parent="1" vertex="1">
          <mxGeometry x="329" y="969.5" width="50" height="43" as="geometry" />
        </mxCell>
        <mxCell id="sv7X3Cb8aacC4gwvDDDy-54" value="&lt;font color=&quot;#3399ff&quot;&gt;internal&lt;/font&gt;" style="sketch=0;aspect=fixed;pointerEvents=1;shadow=0;dashed=0;html=1;strokeColor=#6c8ebf;labelPosition=center;verticalLabelPosition=bottom;verticalAlign=top;align=center;fillColor=#dae8fc;shape=mxgraph.mscae.enterprise.folder;gradientColor=#7ea6e0;" parent="1" vertex="1">
          <mxGeometry x="329" y="206" width="50" height="43" as="geometry" />
        </mxCell>
        <mxCell id="sv7X3Cb8aacC4gwvDDDy-64" value="&lt;font color=&quot;#3399ff&quot;&gt;main.go&lt;/font&gt;" style="image;aspect=fixed;html=1;points=[];align=center;fontSize=12;image=img/lib/azure2/general/File.svg;labelBorderColor=none;fontColor=#9933FF;labelBackgroundColor=none;" parent="1" vertex="1">
          <mxGeometry x="457.22" y="98.5" width="29.22" height="36" as="geometry" />
        </mxCell>
        <mxCell id="sv7X3Cb8aacC4gwvDDDy-66" value="&lt;font color=&quot;#3399ff&quot;&gt;handler&lt;/font&gt;" style="sketch=0;aspect=fixed;pointerEvents=1;shadow=0;dashed=0;html=1;strokeColor=#6c8ebf;labelPosition=center;verticalLabelPosition=bottom;verticalAlign=top;align=center;fillColor=#dae8fc;shape=mxgraph.mscae.enterprise.folder;gradientColor=#7ea6e0;" parent="1" vertex="1">
          <mxGeometry x="550.0000000000001" y="206" width="50" height="43" as="geometry" />
        </mxCell>
        <mxCell id="sv7X3Cb8aacC4gwvDDDy-70" value="&lt;font color=&quot;#3399ff&quot;&gt;apperror&lt;/font&gt;" style="sketch=0;aspect=fixed;pointerEvents=1;shadow=0;dashed=0;html=1;strokeColor=#6c8ebf;labelPosition=center;verticalLabelPosition=bottom;verticalAlign=top;align=center;fillColor=#dae8fc;shape=mxgraph.mscae.enterprise.folder;gradientColor=#7ea6e0;" parent="1" vertex="1">
          <mxGeometry x="446.8300000000001" y="933.5" width="50" height="43" as="geometry" />
        </mxCell>
        <mxCell id="q_JF1KUuVdif3fgiq083-33" style="edgeStyle=orthogonalEdgeStyle;rounded=0;orthogonalLoop=1;jettySize=auto;html=1;fillColor=#1ba1e2;strokeColor=#006EAF;" edge="1" parent="1" source="sv7X3Cb8aacC4gwvDDDy-71" target="sv7X3Cb8aacC4gwvDDDy-108">
          <mxGeometry relative="1" as="geometry" />
        </mxCell>
        <mxCell id="sv7X3Cb8aacC4gwvDDDy-71" value="&lt;font color=&quot;#3399ff&quot;&gt;database&lt;/font&gt;" style="sketch=0;aspect=fixed;pointerEvents=1;shadow=0;dashed=0;html=1;strokeColor=#6c8ebf;labelPosition=center;verticalLabelPosition=bottom;verticalAlign=top;align=center;fillColor=#dae8fc;shape=mxgraph.mscae.enterprise.folder;gradientColor=#7ea6e0;" parent="1" vertex="1">
          <mxGeometry x="446.8300000000001" y="1030" width="50" height="43" as="geometry" />
        </mxCell>
        <mxCell id="sv7X3Cb8aacC4gwvDDDy-72" style="edgeStyle=orthogonalEdgeStyle;rounded=0;orthogonalLoop=1;jettySize=auto;html=1;entryX=0;entryY=0.5;entryDx=0;entryDy=0;entryPerimeter=0;fillColor=#1ba1e2;strokeColor=#006EAF;" parent="1" source="sv7X3Cb8aacC4gwvDDDy-52" target="sv7X3Cb8aacC4gwvDDDy-70" edge="1">
          <mxGeometry relative="1" as="geometry" />
        </mxCell>
        <mxCell id="sv7X3Cb8aacC4gwvDDDy-73" style="edgeStyle=orthogonalEdgeStyle;rounded=0;orthogonalLoop=1;jettySize=auto;html=1;entryX=0;entryY=0.5;entryDx=0;entryDy=0;entryPerimeter=0;fillColor=#1ba1e2;strokeColor=#006EAF;" parent="1" source="sv7X3Cb8aacC4gwvDDDy-52" target="sv7X3Cb8aacC4gwvDDDy-71" edge="1">
          <mxGeometry relative="1" as="geometry" />
        </mxCell>
        <mxCell id="sv7X3Cb8aacC4gwvDDDy-78" value="&lt;font color=&quot;#3399ff&quot;&gt;user&lt;/font&gt;" style="sketch=0;aspect=fixed;pointerEvents=1;shadow=0;dashed=0;html=1;strokeColor=#6c8ebf;labelPosition=center;verticalLabelPosition=bottom;verticalAlign=top;align=center;fillColor=#dae8fc;shape=mxgraph.mscae.enterprise.folder;gradientColor=#7ea6e0;" parent="1" vertex="1">
          <mxGeometry x="446.83000000000004" y="206" width="50" height="43" as="geometry" />
        </mxCell>
        <mxCell id="sv7X3Cb8aacC4gwvDDDy-84" value="&lt;font color=&quot;#3399ff&quot;&gt;infrastructure&lt;/font&gt;" style="sketch=0;aspect=fixed;pointerEvents=1;shadow=0;dashed=0;html=1;strokeColor=#6c8ebf;labelPosition=center;verticalLabelPosition=bottom;verticalAlign=top;align=center;fillColor=#dae8fc;shape=mxgraph.mscae.enterprise.folder;gradientColor=#7ea6e0;" parent="1" vertex="1">
          <mxGeometry x="550" y="379.9999999999999" width="48" height="41.28" as="geometry" />
        </mxCell>
        <mxCell id="sv7X3Cb8aacC4gwvDDDy-86" value="&lt;font style=&quot;&quot;&gt;userRepository.go&lt;/font&gt;" style="image;aspect=fixed;html=1;points=[];align=center;fontSize=12;image=img/lib/azure2/general/File.svg;labelBackgroundColor=none;fontColor=#3399FF;" parent="1" vertex="1">
          <mxGeometry x="664" y="382.27999999999975" width="29.22" height="36" as="geometry" />
        </mxCell>
        <mxCell id="sv7X3Cb8aacC4gwvDDDy-88" style="edgeStyle=orthogonalEdgeStyle;rounded=0;orthogonalLoop=1;jettySize=auto;html=1;entryX=-0.103;entryY=0.514;entryDx=0;entryDy=0;entryPerimeter=0;fillColor=#1ba1e2;strokeColor=#006EAF;" parent="1" source="sv7X3Cb8aacC4gwvDDDy-84" target="sv7X3Cb8aacC4gwvDDDy-86" edge="1">
          <mxGeometry relative="1" as="geometry" />
        </mxCell>
        <mxCell id="sv7X3Cb8aacC4gwvDDDy-89" value="&lt;font style=&quot;&quot;&gt;user.go&lt;/font&gt;" style="image;aspect=fixed;html=1;points=[];align=center;fontSize=12;image=img/lib/azure2/general/File.svg;labelBackgroundColor=none;fontColor=#3399FF;" parent="1" vertex="1">
          <mxGeometry x="550" y="759" width="29.22" height="36" as="geometry" />
        </mxCell>
        <mxCell id="sv7X3Cb8aacC4gwvDDDy-94" value="&lt;font style=&quot;&quot;&gt;port.go&lt;/font&gt;" style="image;aspect=fixed;html=1;points=[];align=center;fontSize=12;image=img/lib/azure2/general/File.svg;labelBackgroundColor=none;fontColor=#3399FF;" parent="1" vertex="1">
          <mxGeometry x="549.9999999999999" y="833.64" width="29.22" height="36" as="geometry" />
        </mxCell>
        <mxCell id="sv7X3Cb8aacC4gwvDDDy-106" value="&lt;font style=&quot;&quot;&gt;apperror.go&lt;/font&gt;" style="image;aspect=fixed;html=1;points=[];align=center;fontSize=12;image=img/lib/azure2/general/File.svg;fontColor=#3399FF;labelBorderColor=none;labelBackgroundColor=none;" parent="1" vertex="1">
          <mxGeometry x="540.78" y="937" width="29.22" height="36" as="geometry" />
        </mxCell>
        <mxCell id="sv7X3Cb8aacC4gwvDDDy-107" style="edgeStyle=orthogonalEdgeStyle;rounded=0;orthogonalLoop=1;jettySize=auto;html=1;entryX=0.068;entryY=0.486;entryDx=0;entryDy=0;entryPerimeter=0;fillColor=#1ba1e2;strokeColor=#006EAF;" parent="1" source="sv7X3Cb8aacC4gwvDDDy-70" target="sv7X3Cb8aacC4gwvDDDy-106" edge="1">
          <mxGeometry relative="1" as="geometry" />
        </mxCell>
        <mxCell id="sv7X3Cb8aacC4gwvDDDy-108" value="&lt;font style=&quot;&quot;&gt;config.go&lt;/font&gt;" style="image;aspect=fixed;html=1;points=[];align=center;fontSize=12;image=img/lib/azure2/general/File.svg;fontColor=#3399FF;labelBorderColor=none;labelBackgroundColor=none;" parent="1" vertex="1">
          <mxGeometry x="540.78" y="1033.5" width="29.22" height="36" as="geometry" />
        </mxCell>
        <mxCell id="sv7X3Cb8aacC4gwvDDDy-110" value="&lt;font style=&quot;&quot;&gt;database.go&lt;/font&gt;" style="image;aspect=fixed;html=1;points=[];align=center;fontSize=12;image=img/lib/azure2/general/File.svg;fontColor=#3399FF;labelBorderColor=none;labelBackgroundColor=none;" parent="1" vertex="1">
          <mxGeometry x="540.78" y="1110" width="29.22" height="36" as="geometry" />
        </mxCell>
        <mxCell id="sv7X3Cb8aacC4gwvDDDy-113" value="&lt;font style=&quot;&quot;&gt;handler.go&lt;/font&gt;" style="image;aspect=fixed;html=1;points=[];align=center;fontSize=12;image=img/lib/azure2/general/File.svg;labelBackgroundColor=none;fontColor=#3399FF;" parent="1" vertex="1">
          <mxGeometry x="665.7799999999999" y="293" width="29.22" height="36" as="geometry" />
        </mxCell>
        <mxCell id="sv7X3Cb8aacC4gwvDDDy-117" value="" style="shape=image;verticalLabelPosition=bottom;labelBackgroundColor=default;verticalAlign=top;aspect=fixed;imageAspect=0;image=data:image/png,iVBORw0KGgoAAAANSUhEUgAABigAAAN6CAIAAACbh1YYAAAAA3NCSVQICAjb4U/gAAAABmJLR0QA/wD/AP+gvaeTAAAAX3pUWHRSYXcgcHJvZmlsZSB0eXBlIEFQUDEAAAiZ40pPzUstykxWKCjKT8vMSeVSAANjEy4TSxNLo0QDAwMLAwgwNDAwNgSSRkC2OVQo0QAFmJibpQGhuVmymSmIzwUAT7oVaBst2IwAACAASURBVHic7N1nfBTl2sfx3Wx6LxAgQEgIBAKh995RQYo0QaQjTY4i9nZQFAV8rEgvIiAISFdEpEgvAQIJEHqogfSQvkl293mxONmThGSTzOzsbn7fz3lxzezMfV/U4/655x6lTqdTAAAAAAAAAGKzkbsBAAAAAAAAWCeCJwAAAAAAAEiC4AkAAAAAAACSIHgCAAAAAACAJAieAAAAAAAAIAmCJwAAAAAAAEiC4AkAAAAAAACSIHgCAAAAAACAJAieAAAAAAAAIAmCJwAAAAAAAEiC4AkAAAAAAACSIHgCAAAAAACAJAieAAAAAAAAIAmCJwAAAAAAAEiC4AkAAAAAAACSIHgCAAAAAACAJAieAAAAAAAAIAmCJwAAAAAAAEiC4AkAAAAAAACSIHgCAAAAAACAJAieAAAAAAAAIAmCJwAAAAAAAEiC4AkAAAAAAACSIHgCAAAAAACAJAieAAAAAAAAIAmCJwAAAAAAAEiC4AkAAAAAAACSIHgCAAAAAACAJAieAAAAAAAAIAmCJwAAAAAAAEiC4AkAAAAAAACSIHgCAAAAAACAJAieAAAAAAAAIAmCJwAAAAAAAEiC4AkAAAAAAACSIHgCAAAAAACAJAieAAAAAAAAIAmCJwAAAAAAAEiC4AkAAAAAAACSIHgCAAAAAACAJAieAAAAAAAAIAmCJwAAAAAAAEiC4AkAAAAAAACSIHgCAAAAAACAJAieAAAAAAAAIAmCJwAAAAAAAEiC4AkAAAAAAACSIHgCAAAAAACAJAieAAAAAAAAIAmCJwAAAAAAAEiC4AkAAAAAAACSIHgCAAAAAACAJAieAAAAAAAAIAmCJwAAAAAAAEiC4AkAAAAAAACSIHgCAAAAAACAJAieAAAAAAAAIAmCJwAAAAAAAEiC4AkAAAAAAACSIHgCAAAAAACAJAieAAAAAAAAIAmCJwAAAAAAAEiC4AkAAAAAAACSIHgCAAAAAACAJAieAAAAAAAAIAmCJwAAAAAAAEiC4AkAAAAAAACSIHgCAAAAAACAJAieAAAAAAAAIAmCJwAAAAAAAEiC4AkAAAAAAACSIHgCAAAAAACAJAieAAAAAAAAIAmCJwAAAAAAAEiC4AkAAAAAAACSIHgCAAAAAACAJAieAAAAAAAAIAmCJwAAAAAAAEiC4AkAAAAAAACSIHgCAAAAAACAJAieAAAAAAAAIAmCJwAAAAAAAEiC4AkAAAAAAACSIHgCAAAAAACAJAieAAAAAAAAIAmCJwAAAAAAAEiC4AkAAAAAAACSIHgCAAAAAACAJAieAAAAAAAAIAmCJwAAAAAAAEiC4AkAAAAAAACSIHgCAAAAAACAJAieAAAAAAAAIAmCJwAAAAAAAEiC4AkAAAAAAACSIHgCAAAAAACAJAieAAAAAAAAIAmCJwAAAAAAAEiC4AkAAAAAAACSIHgCAAAAAACAJAieAAAAAAAAIAmCJwAAAAAAAEiC4AkAAAAAAACSIHgCAAAAAACAJAieAAAAAAAAIAmCJwAAAAAAAEiC4AkAAAAAAACSIHgCAAAAAACAJAieAAAAAAAAIAmCJwAAAAAAAEiC4AkAAAAAAACSIHgCAAAAAACAJAieAAAAAAAAIAmCJwAAAAAAAEiC4AkAAAAAAACSIHgCAAAAAACAJAieAAAAAAAAIAmCJwAAAAAAAEiC4AkAAAAAAACSIHgCAAAAAACAJAieAAAAAAAAIAmCJwAAAAAAAEiC4AkAAAAAAACSIHgCAAAAAACAJAieAAAAAAAAIAmCJwAAAAAAAEiC4AkAAAAAAACSsJW7AQAAAAAAxJSampqYmJiQkBAeHn78+PHw8PCIiAhRRg4NDbW1tQ0NDVWpVE2bNnVycqpXr56np6etra2rq6unp6enp6coEwFWQ6nT6eTuAQAAAACA0tHpdNu2bTtw4MCJEycSEhLi4+OzsrLkbqoIPj4+Li4uvr6+oaGhbdu2bdOmTdOmTeVuCjAdgicAAAAAgJmKj4+/e/duWFjYtm3b9u7dK3c7UqlTp06HDh1efPHFWrVq+fv7u7q6yt0RIBqCJwAAAACAWVi8ePHatWsfPHhw9+5dKcZXOThUa9HGza964Y8SLkcaHsZfvihFA6Xi4uLi5+fXpEmTV155pXfv3nK3A5QRwRMAAAAAwKQSEhKuXbu2ffv2JUuWpKWliTKmg4ena5VqLr5VKjdsVLNDV79WbUUZtlQSr0YlXotKun7l8b27GXGPcjPSs1OS1Y9T8rKzRZylc+fO06dPb9GiRe3atUUcFpAIwRMAAAAAQFpHjx6dO3fu+fPnHzx4UM6hKjdoVPf5gdVbt3eu7Ovg7mHr6CRKhyaTk56elZyoTkl5dP7Mrb//jAk7Uc4BfX19mzVrNmfOnBYtWojSISAugicAAAAAgJju3Llz4sSJ+fPnh4eHl20ER08vz9p1/Fq2Cez+TJUmzcVtz5zpdLrbB/ZGH/grIepSWsw99ePHpR1BpVK99tpr48ePDw0NlaJDoLQIngAAAAAA5TV37tzly5ffvn1bq9WW9t7KDRu1mPxapZBQ58pVbB0cpGjPoqlTU7OSEm7u2RWx7qesxHjjb7Sxsalbt+68efMGDBggXXtA8QieAAAAAAClduTIke+//37Lli2lusvNr4ZP/YYNX3y5VufuEjVWQSREXYpYu+Jh+JnHt28ZeUtoaOjXX3/ds2dPGxsbSXsDDBE8AQAAAACMsmbNmo8//rhUr5yr1qJN2zfe9axd18nLW7rGkBEfe3v/3uNffZabmVHixSqVqlmzZnv27PHx8TFBb6jgCJ4AAAAAAEVTq9W7d++ePHlyfLxRT3g5eHhWadK8yZhXarbvLHVvKEbyreunvp9/7+ihEnMoZ2fntWvXDho0yDSNoQIieAIAAAAA/I/Lly8PHDjw+vXrxlzsUy+kx9zvPfwD7ZydpW4MZZCZmHBl668nv/my+MtcXFzGjBmzcOFC03SFioPgCQAAAACgSElJ+e677z799NMSr3TyqRTY49nWr73t7FPJBI1BRFlJiYdnf3Br3586jaaYy+bNm/fmm2+qVCqTNQYrRvAEAAAAABVXUlJSixYt7ty5U+J3wy6z5tbpM8DB3d00jUFSOq024cqlrS8N1Kizn3aNm5vbjz/+OHr0aFM2ButD8AQAAAAAFc7hw4fHjRt361ZxL0SzdXKuN2BIh/c+sXVwMFljML3U+/cOfDgz5vTxp11Qs2bN3bt3h4aGmrIrWA2CJwAAAACoKCIjI3v06FH8TuFetev0X7XR2beKUqk0WWMwB9kpKX9MGR174WyRn9rY2EydOvXHH380cVewdARPAAAAAGDlIiIiRowYcfny5addoHJwCB0xpt1bH9mwrQ8Uioz42D3/mRh74VyRn9apU2fv3r2BgYEm7goWiuAJAAAAAKxW69atz5w5U8z3vv6rN/u1bEPehCIl37y+oV83RVG/fxwcHPbs2dO1a1eTNwULQ/AEAAAAANZm/fr1I0eOfNqnLr5V27/zcd2+A03ZEiza/vdnXN2+uciP5s+f//bbb5u4H1gQgicAAAAAsBI6nS4oKCg6OvppF/RfvblGm/ambAnWJDMxYXXHJkV+NGjQoC1btpi4H1gEgicAAAAAsHi7d+8eOHBgbm5ukZ82m/hquzc/MHFLsGLbRw2OOXOy8Pnp06cvWLDA9P3AnBE8AQAAAIAFe/nll9evX1/kNzvvuvUHb9xl5+Rs+q5g9XQ67cGP3r6y9dfCH7H6CYYIngAAAADA8qjV6meeeebQoUOFP1LaqHrM+z74+RdM3xUqoLPLFpz6dm7h819//fXMmTNN3w/MDcETAAAAAFgYNze39PT0wuedvLxHHQyzdXA0fUuo4KIP/v3ntLEFTtrY2Jw/f75Ro0ZydARzQfAEAAAAAJbhzp07ISEhWVlZhT9qOmFq+7c+Mn1LgKFzy388+c2Xhc/HxcVVrlzZ9P3AHBA8AQAAAIC5U6vV7u7uOTk5hT8a8ftBr6Bg07cEPM3RL2dFrFlR4GSNGjXu3bsnSz+QF8ETAAAAAJiv+Pj4kJCQxMTEAuft3dyGbfnLvWYtWboCSrRj3LAHJ48VPLljR//+/WXpB3IheAIAAAAAM+Xs7Fzkg3WTI26r7OxM3w9QKlpN3pLQgtmonZ1dkWv3YK1s5G4AAAAAAFDQ8OHDlUplgdTJyafShJOXpkU9IHWCRbBR2U6LetB/1a+GJ3Nzc5VK5cKFC6WbV61Wr1u37oUXXnB0dFQaoUmTJp9//vnFixela6kiY8UTAAAAAJiRDRs2jBw5svA3tSkX79qoVLK0BJSTTqfbMXpwzJlThidtbW1zc3NFnGXOnDmzZs3SaDTlGcTGxqZ9+/ZHjhwRqysQPAEAAACAWbh3715QUFCBr+JKlWrIxj8qN+SF9LB4WUmJP3VoXODkhg0bhg8fXuYxc3NzZ8yYsWjRovK1VrQXXnhh7dq1Li4uUgxecRA8AQAAAID8goODr1+/XuDkkN92+zZsIks/gEQOz/7g4oafDc+U7YV3Bw8e7N69uzFX+oY2qdW1Z/VW7fxat9OfiYu8kJWUcHXHlht/7jBmhIcPH1atWrW0HUKP4AkAAAAA5LRhw4aXXnqpwMkGQ0d2nT1fln4AqeVmZa1s20BrsMW4Uqm8f/++n5+fMbe/+eab33zzzdM+9anfoMnoV+o+P1BlZ1+qrh6eC7u0ce21nVuedsHy5csnTpxYqjGhIHgCAAAAABnZ29sX3OZGqZx2+b5M7cAi5X+vL/wFX6lUKBRKpdK0HRll+6hBBXZ9WrJkyeTJk4u55fnnn//jjz+K/KjegKE95n4nVm8R61YenfPfIj/KyspydHQUa6KKgOAJAAAAAGSwatWqCRMmFDg5aP32qs1aydIPLII6LfX2gb33Txx9cPpY+sOY0t6usrev3qZD9dbtA3s+6xlQW4oOSyXpxrVf+3UzPNOsWbNz584VvvLzzz//+OOPC5+v3rr9M98vc/T0kqI9dVrqn6+Oiwk7WeB8jRo17t69a55xnhkieAIAAABQEel0Oq1Wqy/0XyBtbGxM9k2y8EQ12nbs/9NG08wOC6LTamLCTu4YO0yi8ZUqVb+VG6q3aqe0sZFoihIta1YnLzvL8IxWqxX+jDx69KhatWqF72r56szW0980RX8KxcaBvRKvXi5wctGiRVOnTjVNAxaN4AkAAACA9QsLC1u9evXevXtv3LhhzPXe3t49evQYNGjQsGHDbET9Qr5nz57nnnvO8IzSRjXh9GV7F1cRZ4Glu3v0n7CF38SeP2vKSQO69e7yyVwX3yqmnFTvxNdzwlf8z5vprl69GhwcHBIScuXKlQIXd//yu/oDh5qwO4VCodBqNNtefqHAr4ivr29sbKyJO7E4BE8AAAAArFNmZma9evXu3xdnv6RNmzYNHjy4nCFU7dq1o6OjDc8EdH+mz8JV5WsNVkKn0yXfuPpr/x7GXGxnZ+fu7j5z5szevXu3bNmy+ItjY2NXrly5evXqu3fv5uTklJgDVG7YaNCGXSo7O2NbF0N67MM1XUv4gTSf9J+2b7xnmn6KpMnJWdq0doG9tNRqtb196TYyr1AIngAAAABYlcjIyDFjxoSHh0sxuI2NzbvvvvvFF1+U9ka1Wl14Q+Jxxy44eVcSqTVYsJQ70X++Oi755vVirunatevEiRMHDBjg6irC4rj09PTt27evXr16//79xVzW6+tFdfsMKP90RtLm5S1rUdfwbXeCqs1bDfplu8k6Kd7Jb748t/xHwzObN28eMmSIXP2YOYInAAAAAFZi1qxZs2fPLv4alb2DrZNT6IjR/h26VWvZ2vCjh2dOx5w7fWvvH0k3rmlychQ6bfFD3bhxIygoyJjGdu/e3bdvX8MzVZu1HLR+hzH3wrpFbdlw8KO3nvapv79/ZGSku7u71G2EhYV17do1MzOzyE/bvPFe81emm2wHtGXNgvKysw3PTIt6YJqpS2VRgxqGS5+mTZu2cOFCGfsxWwRPAAAAACze0KFDf/vtt6d8qGw8anzD4aO9atcp7bDZj5Nv7N51btkP6Y8ePu2aWbNmffLJJ8UM0q1bt3/++cfwzKD1O6o2K+GRIqmlP4qJCTv56MK5pOtXHt+JzoiLVTz9u6G9m7trNT8P/0CvwKBqrdrW6tTtaVfCeAc+evPKll+L/Oi111779NNPPT09TdySQqE4dOjQxIkTi9wKzZSPuR34cOaVrfl77Tt4eE44eck0U5fK8uZ1c7Py07qBAwdu27ZNxn7ME8ETAAAAAAs2cuTI9evXFz5v6+j47IKV/h27ijWRVqPZOrxf3MULRX764Ycffv7554XPF1gkYmNnPyUiuvBlUstTZ8dFXtg7c2pmvMgbIYe+NLbtjPfsXF15tbzxdo4ffv/EkcLn69evHxUVZfp+ivT5559//PHHhc8P2bTbt1ETEzRw+8De3a+OMzxjnuuetr086OHZU8Jh48aNL1wo+m+JCovgCQAAAIBF2rp165AhQwp/o2k+aXrbN96Xbt6U6Jt//mdCkdvxfPHFF++//2TqR48eVa9eXavNf14vuP/gnvN+kK6xArQaTdjCby5v+iUrMd40MwY907fjB7NdfKuaZjpLdGzupxd+Xlb4/C+//PLSSy+Zvp8SHTt2rHPnzoa/jRUKha2z84STl02w9XhM2MntowcLhzZ2dpPCb9qoVFLPW1phC78J+/Fr4XDy5MlLliyRsR9zQ/AEAAAAwMLk5eU5ODgU+DKsUCqfX7ZOxCVOJdo7c8qNP3cVPv/gwYP79++3adPG8ORLfx7xDKhtgq7UqY+3DO+XEn3TmIttbW0dHBwcHR2bNm1at27doKCgdu3aCZ+mpqZeunTp2LFjZ8+eTUtLy8nJedoeQIWN/ueMa5VqZfkBWKnEa1c2Dij4ujonJ6eHDx96eHjI0pLxbt++HRQUVOBPXKePPms0crzUU+dmZi5vUdfwzNTL95TKcr1cUgqnvp9/dsn3wuGCBQumT58uYz9mheAJAAAAgCVZt27dqFGjCpzsMe+Hev0HF3m91CLWrTo6p4gnkgxNPHPV3kWEN5EVQ6vR7J429u7hA8VfNnTo0OHDh7du3bpGjRrlmS48PPzAgQOLFi26detWMZfVbN+5z5I1JlgaY860eXnrerUtvE3Y3bt3a9asKUtLZbN27drRo0cbnnHw8Bx/PFJpI20MlJORvqJlPeFQaWMzOeK2Ga57OrP4u9M/fCUcHj58uFOnTjL2Yz4IngAAAABYjJCQkCtXrhie8e/U7fll6+TqR3D4sw8vrl9d+Ly9q9vEsCuFz4vo4dnT215+4Wmfenh4vPPOOx988IGkPVy9erVHjx4xMTFP+4L58r6T7tUtKWQRS/S+PX/+Z4LhGZVKdevWLX9/f7laKqemTZsW2MNo+K6D3nWCJZ1Uk5OztGltw/3vp166J3XgVQb73n3t2s4twqFWq2XvMwXBEwAAAACLkJeX5+joqNFohDM2Ktvxpy5JvZKoVBaFVDc89O/U/flla6Wb7q8Zk2/+9XuRH7344otz5swJCgqSbvYipaSkzJ07d968eUV+2uWTuQ1fLLhazYr93LVlRuz/LHRatGjR1KlT5epHLFevXq1fv77hmabjprR/p4R1f+Wkzctb0qiWcKi0sZl66Z6kM5bNmm6t0h/F6GsbGxvDv7IqLIInAAAAAOYuMzPTxcXF8EyN9p37r9wgVz+F6XS6Zc2CNGq1cEa6r+LavLxtIwfGRoQX/igwMLD4Z99MqV69eteuXSt8fujWvyqHhJq+H1NKfxizpnsrwzPVqlWLiYmRqx8pVKtW7dGjR8JhlSbNB/9axJZnItJptYtD/Q3XPZnne+6WNA7Q5ubq606dOh0+fFjefmRndivTAAAAAMDQ+fPnC6ROgzf+blapk0KhWNGynmHq9NzCVRKlTntem7ikUa0CqZOdnd3evXt1Op35pE4KheLq1as6nW7Tpk0Fzm8e9MyyZnXUaWmydGUCx/9vToHU6dixY1aWOikUiocPH379df6r3GIvnFvZpoGkMyptbKZE3DY8s6x53adcK6dJ4flb+x85cqTI+LVCYcUTAAAAAPNV4KEepcp2SuRts9o2RafVLmlUS2fwwq/RB8Ncq/qJPtHtf/btnjqmwElfX9/Y2FjR5xJdTExM7dq11QbZnEKhqNQgdOhve8zqV7P8NvTtmnzrunDo7u7++PFjGfuRWlpamru7u3BoY2c3+UK0pL+mmhz10ib5L4h08PSacOKidNOVTfbjlFVtGwqHFTx4YcUTAAAAADN16NChAlvJTL14x9xyiiWNAwxTp3HHIqRInZY1r1sgdWratKlarbaI1EmhUPj5+WVnZx88eNDwZMLli4sb1Ei8Ju3m66a0rHldw9Tp3Xffte7USaFQuLm5paSkCIfa3NyljQMknVFl7zD2yHnhUJ2SvHXkQElnLANHD0+/Vu2Ew549e8rYjOxY8QQAAADAHMXHx/v6+gqHTt6Vxh27UMz1pld4rZMUO84c+HDmla0bDc/4+PgkJCSIPpHJvPnmm998843hmeptOgxYXfCJPMui02oXN/yf1/bFxMRUq1ZNrn5Mz8bGRogXHDw8J5y8JOl0mfFxqzs3Ew7bzHi3xeTXJJ2xDAzfNpCbm2traytjMzIieAIAAABgdtLT093c3IRD16p+ow+GydhPkRaH+usMXln1ytlrds4uxVxfWnlZWcua1ylw8uLFiw0bNizyeguSm5tbuXJlw9VAds4uE89cNbflbEbS5uUtaRxguOl1RkaGs7OzjC2ZXnZ2tpOTk3DoU7/Bi9v+lnTG6P1//Tl9vHDYZ8nPAV3Ma2FRyu1b65/rpK8dHByys7Pl7UcuPGoHAAAAwOwYpk5O3j7mljrp32FnmDpNi3ogbur04OTRAqnT2LFjdTqdFaROCoXCzs4uJSVl+/btwpnczIzFDWqkxz6Usauy0Wo1SxrVElInR0dHnU5X0VInxb8/cOEw8crlk9/Nk3TGwB7PtH3jfeFw95Qx2clJks5YWp4Bte3dnmyApVarz549K28/cmHFEwAAAADz4uHhkZqaKhya4RvTf+rYJCsx/2E30dc6bRneL/bCOcMzqamphmGc1cjNzXVxccn9993zCoWi/08ba7TtKGNLpbWoQQ3DtU4V/Ct2cnKyt7e3cDj2cLhzZd9iri+/rSP6PzqfH+iY218X6sePV7Z98rI/e3v7AvvrVxCseAIAAABgRl599dX81EmpnHr5vqztFGFtz7b/kzqF3xAxddJptYsb+humTiNHjtTpdFaZOikUCjs7u5ycnODgYOHMznEvRv7yk4wtlcqikOpC6lS5cuUKnjopFAovL68HD/Kjn9Wdm2kNFgZKYdCGnbYG68tWtHryOoL02Idnl/6wpHHAopDqhv/b997raQ9M97eKg4eHrdOT9nJycjIyMkw2tflgxRMAAAAAc5GYmFipUiXhcPzJS44enjL2U9ie1ybe+vtP4XD0P2dcq4i5gfTihjUNdyu/du1a3bp1RRzfbH311VfvvPOOcBg6Ykzn/34hYz/GWNGqfk56mnDIl2vBrFmzZs+era/t3d0nnoqSdDqtRrMk1F84dPKpZBgNP02r6W+2enWmlH09oc3LW9Kolr52dnaugNkTwRMAAAAAc2G4t/RzC1cFdn9GxmYKi/zlpyOffyQcDtqws2rTFmINnpOeJizWUCgUKpUqLy9PrMEtwrVr1+rVqycctpg6o81rb8vYT/F+nzzq7uED+roi7xv9NF5eXikpKfq6w3ufNBnziqTT5WVnL2sWVIYbJ5yOcvh3GybprO7ULDMhTl/n5eWpVCqpZzQrPGoHAAAAwCz06tVLqL3rBJtb6pR4/aph6vTM98tETJ0UBo8IKRQKf39/w22PKojg4OCoqPylMWcXf3ftj+3FXC+jy5t/EVInhUJRAdewlCg5OVmoj839RCPx72dbR8d+K38tw40rW4c8vndH9H4KeOGXbUI9Y8YMqaczN6x4AgAAACC/9PR0w22MzG2H4Dy1elnT2sJhvQFDesz9XqzBc9LSVrTOT53q1at35coVsQa3OGlpae7u+StQhu866F0nuJjrTU+d+nhlmwbCobXu+15+J0+ebNeunb528PCccPKS1DNuHzM05vTxMtw49uh5Z5/KovdjaFFIdaGuaDkMK54AAAAAyM9wa6cXd+yXsZMiLW+ev9FS5dDGIqZOCoXCMHXq27dvRU6dFAqFm5vb8eP52cGv/brJ2EyRVrULFerff/+d1Olp2rZtW63akx3Q1I9TEq9elnrGgT9vLtuNqzs2NdxbTQqNR02QdHxzRvAEAAAAQGZ//fWX8JZxF9+qPsH1i7/exJY1DdJpn7yZy9bJeejmP4u/3ng6rdZwHUS7du1+//13sQa3XO3atVuxYoVwuCikhozNFPDbi88LCUXTpk379u0rbz9mLiYmRqg3DuxVzJVimRR+s2w3Lm8h7cK69u/8V6jbtGkj6VzmhuAJAAAAgMyeffZZoR6176SMnRS2793X89T5+0ZPOnddxMENn9hq27at4UqfCm7ChAlDhw7990i3echzcnbzr9T79+IiwvW1ra1teHi4vP1YhG+++Uaozy37UerpbB0d+61YX4Yb87KzEq5K+PY9G1tboT5z5ox0E5khgicAAAAActq5c6dQV2nS3MbOTsZmCki+ef3azt+Ew7FHzos4+G9D++Skp+lrX1/fEydOiDi4Fdi0aZPw8q/4SxGxkWL+5JfNul5thTotLU3GTizIG2+8IdQnv/3SBDPW7NDFK6huydcVsuVFadev1X/hRX2h1Wor1DZPBE8AAAAA5DR48GChfuEXCd9ilnT9atTWjTf37k68ZuwmShue7yrU3b/81rmSaNsPRx/YG3fxgr62s7N79OiRWCNbsT0PgQAAIABJREFUE8NX+20ZJvNDbce+/ESo33rrLUdHR/l6sTAXL14U6rCF3xRzpViG7zpYhrs0anVmYoLozQhav/62UO/atUu6icwNb7UDAAAAIJuIiIgmTZro61pdevRdskbc8ROiLm0a1LuYC+r0GdD2jffca/gX/mhl24bqxyn62rtuveE7D4jYWEV+xVWpHD9+vEOHDvraO7j+cJk2ntdqNEtCn/wmsbW1NUzEYAyVSqX9d28s07yzMj320ZquLUp7l6OX9/jjkVL0oyf8we/Zs+fff/8t3URmhRVPAAAAAGTTqVMnoe6zaLWII2clJS5uWLP41EmhUNzYvWNdr3aLQqrvHD/c8PyJr78QUieljY24qdPSpkFCff26mJtGWZ/27dtXrVpVXyddu5KTmSFLGzvHDRPq8+flf+jP4mzdulWoow/sNcGMrlWq+nfuXtq7spOTpGimsH379plmInNA8AQAAABANqmpqfpCZe+gtBHt60nk+tU/dWhcqvej3z9xZFFI9RWt6mcmJmSnJIevWCh8NPXSPbEaUygUFzf8rPl3t/KBAwfWqVNHxMGtkuGb0Va2kueNhzFhT/a8d3FxadiwoSw9WLQBAwYI9V+vTzLNpM8vXVuGv1VypQw3XXyrSje42SJ4AgAAACCPL7/M32n4pT1HxBr24MdvH/nsw7Ldm5Oetrpjk1XtQoUzXT/7SqS+njg8+wOh3rZtm7iDWyWlUrl69Wp9rdNqL/+2wcQN/No/f+HMgwemeEzMKr3zzjv6QptnugcVX/671G/JvPiryA/8Gurw3ifSDW62CJ4AAAAAyGPOnDlC7VatejFXGu/2wb+jfivLy9SL5FzJt8GQl8QaTaFQ/NShiVCnpKSIOLJ1GzNmjFD/8/Fbppxaq9EkXb+qrxs2bOjh4WHK2a3J3LlzhXrzkGdNM6mbX3Wf4JBS3RJ/MUKiZhQKhX+nrtINbrYIngAAAADIIyPjySMtNdp3FmVATU7O7mljRRlKb+yRcBFHS38Uk5X05J1ZnTt3JsIolbi4OKG+vMV0i56OfJ6/ei4sLMxk81ofpVJZq1YtfR1/ScINvAsYtq10W0qpUx9L1IlCoVDZ2wt1eLiYf72YM4InAAAAADL466+/hLrLrC+LudJ4K9s0EGUcvf6rNoo4mkKh+KV3B6E+dOiQuINbvcqVK7u4uOjrfz5+u/iLRXTp17X6wtHR0cnJyWTzWqVly5YJ9eO7t00zqdLGpuf/LSz5un85V6osXTM2dvnB04EDYr6ywJwRPAEAAACQwYwZM4Tawz+g/AOmP3yQl51V/nH0XHyr1GjXUazRFApFbmamJjdHXy9cWIqvwRAcPXr0SaXT3T95zAQzGs5y6dIlE8xo3Xr3zn/L5MlvxYmbjRHcd6DxF5fhXXjGUyqVQn3u3DnpJjIrBE8AAAAAZHDlyhVxB1zTvbWIo405JPJ3wtWdmgr1tGnTxB28gmjaNP/n8PdJI00w41+vv6IvlEpl7dq1TTCj1bOzs9MXN/f8bsp5xx0zduemun0GlHyRGNRqtWkmkh3BEwAAAAA5NRk7ufyDpMc+LP8ggmd/WC7iaAqFIjslWXhH+8cffyzu4BXKzp079YU21xRvRhO2+xk9erQJpqsIRE+cjeTk7eMb2liWqUHwBAAAAEBOTcdOKv8g+955rfyD6Nm5uNTu1Ues0fS2jx4s1LNnzxZ38Arl+eefF2pxN5Iv7Nrv24R69erV5R8wIyPj4sWLBw8evHjxYmxsbPkHtESBgYFCHbX1V1NOPWTznyVe03+lSVuqIAieAAAAAJja0qVLhdrR26f8A8acPl7+QfQmnLws1lCCpOtX9cXQoUNFH7xCUSqVrVs/eaby9sG/JZ1r/7uvizLORx995OrqqlQqXV1dGzVq1L1790aNGlWtWlWpVCqVyvr164syi6Uw3OTo8OwPTDx7h/c+Kf6CGu07maQRhUKhqFq1qsnmkhfBEwAAAABT++GHH4Ra9e+eL+agbt+BNra24o55ccPPQr127VpxB6+A1qxZI9TZKcnSTaTTavTFF198UbYRevbsqVQq58yZk5GR8bRrrl69qk+gTp48WbZZLI4Qv2pMvslRkzGvKJRPjUHGHY+UugFtXp5QG+5ZZt0IngAAAACYWnKyhHlBefQqzWvXjXRs3pNn6zw8PBwcHEQfv6KpV6+eUIct/EaiWVLv3xXqKVOmlPb25cuXK5XK/fv3G39Lu3btvL29SzuRJXr11VdlnL3/yg1Fnu8x9zsnL8l//rV5+XuTjRo1SurpzATBEwAAAABTS0tL0xd2zs7ydmLo2QUrRB9Tp9Vq1Nn6esGCBaKPXzF5enrqi8h1qySaYs9rrwi1l5dXqe719/efNKksO5clJycrlco7d+6U4V4L0qVLF6G+f+KIiWev0a5j4ZOhI8bUG2CKx2AN1+hVnBia4AkAAACAqWVmZuoL58pV5O3EUO2ez4k+5q19e4RalAUOx48fHzZsmL+/v7+//7Bhw7Zs2VL+MS2OCd6MlnT9yRSl3YPJxcXl3r175Zk6ICAgNTW1PCNYkOj9f5l+0sG/7jI87Pj+p53/W8anKUvr5LdzTTORWSF4AgAAAGBqWq1WX6jM5t/8X9p9WIphD7w/o/yDPHz4sGvXrvqdgDp06LB58+Z79+7du3dv8+bNQ4YM0Z8PDAyMiooq/1wWoXLlykKdmRAvxRTCXjzjx483/i5nZ2chVC0PDw+P27dvl38c83d1pwzJaZUmzW2dnITDRqMmmGzqa3L8eGVH8AQAAACgorN39/AMDJJi5NzMJ7tKr1y5smwjuLq6+vn5HTp0qPjLbt++3aBBA1tb24cPH5ZtIgtiY5P/Tfa3YX1EHz8jLlaoZ86caeRdvXr1ysrKEquHwMBAsYYyQ+3bt9cXOWnyrO165rtlQn1j907TN1BB9vPSI3gCAAAAYPFsyvdqvImnLovVydMIb/Iy3qRJk5RKZTEvRCtMo9H4+fk1adKktHNZnK5du+qLzMQE0QdPuJr/+0GlUhlzS1RU1L59+8Rtw8lgVY6V+f777+VtoFbn7kL991vTTDOpVpP/Srt3333XNJOaA4InAAAAAKbm6OioL7JESg26zv6/Mt/rUUuqpSWnF+R35ebmVqp7nZycli9fXrZ5IyIijIxLLNfYsWP1hTYnR/TBozavL+0tDRo0EL2N7Ozs33//XfRhzUGjRo3kbkER2Ev8Pd2KF7bga6EeN26ciWeXEcETAAAAAFMTXueUnZwkyoD1Bw4p871Df9tT8kVlErXlV31RpUrp9lC3t7fPzs4uz9RarVapVKakpJRnEHM2ZswYodbk5hZzZRnc+nt3qa7/+uuvS76oTPr16yfRyPKytbWVuwVFt8/yc+HtowabYMbzPy0VasN9yqwewRMAAAAAU/P09NQXun93GS+/0YfOleEup0qV7V1dxeqhgIzYJ9stCc+FGcPW1jZXpCTFy8tLlHHMXOz5MxKNPGzYMGMue+uttyRqQKFQnDx5UrrB5WK4Iu9R+FlZenD08FTZ2+vrmDOS/yRr8/I0OWp97ePjI/V0ZoXgCQAAAICp1a5dW/QxXX2r1OzQpbR3jTtyXvROCps8ebKRV7Zu3Vqj0Yg4tbOzs4ijmaeYM6clGtmYBUfXr1+XaHa9UqWWlsgEoc/TdHz/U6FOvH5F0rn2v/e6UN+/f1/SucwNwRMAAAAAU3v//feFOic9Xaxh+60o3dY8Dp4SLgjS5OWvWurWrZsxt1y6dCksLEzcNrKysj766CNxxzQ3d48ckGjkVq1alXhNu3btJJpdT61WSzq+7B6ePSXX1A2HjxbqjQN6SjrX9T+2C7WwyV0FQfAEAAAAwNR69eol1Mm3xFwwMi3qgZNPJSMvHr5jv4hTF5B8s9Q/rtDQUCk6mTNnjhTDyk7Yz/tRuFSP2hmzJXxiYqJEsws2b94s9RQyenz3toyzu1b1e1LpdNLNcmnTL0L9xRdfSDeReSJ4AgAAACCnXRNGiDvguKMX7F1LzgtsHZ1cfEu353eppJby6/Rnn30mTSMKhULh5+dX8kWWpm/fvlJP4VrS/l9JSeLsjl+8b7/91gSzyCUzPk7G2Z9b9JNQn/r+K4lmOTTrHaE2XO9ZQRA8AQAAAJBTTnqa6GNODLvS/t1ZxV8z4o9Dos9rKOn61VJd/9///leiThQKxcOHD8XdOsocjB49uuSLysfOzq74C44fPy51DwqF4sSJEyaYpWKqHJK/zDB85UIppji7bIFQDxw4UIopzBzBEwAAAAAZzJ07V9Lxm46dNOXinWIucPOrLmkDiTdKETzdu3dPuk70pP4JN70aNWpIPYWTk1PxF5gmeIKkPGoF6gttbm5edrbo45/6Nv+P3rZt20Qf3/wRPAEAAACQwbRp04T677delWIKG5XttKgHLV99s/BHPb78TooZDSWXZsVTw4YNpetEz/q2GC9xOZIJXLki7avQYAIj9xwV6rAfvxZ38DXdWwu1dT8yWQyCJwAAAAAycHNzU6lU+trwfU+iaz195tTL9+1d/meznnoDh0o3o17SjWv6wpg3o6Wlif+8odVTKpVyt6CIiooSZZykpCStVqvVakUZzbK4VpN27WGphK9cJOJo944dTn/4QF+rVKoZM2aIOLgFIXgCAAAAII/JkycLdfKtG9JNpFQqR/9zVjj0DW0i3VxFzl78BWq12jSd3L9/3zQTmYatra3cLSj8/f3LOUJAQIBOp/Py8lIqlUqlUqfTjRs3TpTeLIVbdfmDp4bDRwm1JjdXlDHVj1N2Tcx/c0JGRoYow1oigicAAAAA8li4MH8r3w19u0g614pW9YR6yObdks5VWseOHTPNRO+++65pJrIamZmZxV/g4uJSzimio6MLnFm1alU5x7Qs1Zq3LvkiibV9I/9Nc/vfe12UMVe2zX9+9s0333RwcBBlWEtE8AQAAABANoZ7GyVcFeeppeKpHB1NMEupmGyfoKNHj5Z8EQyU+CrAvn37SjHvvHnzpBjWPAU//4LcLSgc3D0UNk/ikZt7dpV/wEUh+cu47O3t/+///q/8Y1ougicAAAAAsjl16pRQbxrYU6JZItasEOpnvlki0Sxldv36ddNMlJWVZZqJrEZMTEzxF7Rs2bI843/yySdFnp8+fXp5hjV/eXl5Qm0mezxVb9VOX+i02rzscv1J+alj/sO8SqXSZM/Smi2CJwAAAACycXFxCQgIEA6v/7lTilmO/9/nQh3QrZcUUxTm5FNJX1y+fNkE0ymVysuXL+t0Op1Ol56e7uXlVfgaw2/7VsAEP5wFCxYUf0GTJqbYL+yNN94wwSymZIa/FQes3iTU539aWuZxfurQJCsxQThMTEwsV1tWgeAJAAAAgJwM97j5e+ZUnU4n7vianBztv7sFO1fyFXfwYjh5eeuL9PR0E0yn1WpDQkL0tYuLS1JSUuFNze3s7EzQicnk5ORIPYXhNmRPU549zp+24mn//v2Gh4bb8FuHH374Qe4WinP6h6/KduPSJoFZSfmpk37beJGasmAETwAAAABkZrjp9epOTcUdfN87/xHqsUfCxR28GF5165V8kUKhUCgCAwPLOde2bdsKnywceFnZ9sa5Ir19rLBmE6Yaf/GAAQNEb6B///6Gh/XqGft7yVKY5z73Ad2fKfO9ednZi0KqawzC0LCwMDGasgYETwAAAABkNnfuXJVKpa+zEhOOzPlYxMFv/vW7iKMZz6dufSOvDA4OLudcAwcOLHzS2dm5wJkuXaR9daCJHTlyRKKR6w8eLtQlLsH77bffyjNXr14Fn/38/vvvDQ/r1KlTnvHNXM1OXeVuIV/7tz4U6og1K42/MT3u0bJmQYZndDpdOff/siYETwAAAADkZ/je+sh1qx6EnRBlWHVaqlA3e+VVUcY0km8jY5duSZcHVa1a1fBw/vz5Ek0ki2XLlkk0sldgftbz3nvvlXi9r2/ZH+Hct29fnTp1hH3fhw8fPmPGDMMLTLb3vCzq9Rssdwv5PAPzw6Ozy4x9GPD3SS+v6dJCOFQqlfHx8SJ3ZuEIngAAAADIz97efvHixcLhjtFDctLTyj/svrfz3w7Wevpb5R/QeG5Gv6vLyclJoh4KrNapVq2aRBPJ4q+//tIXXrXFXxNk++8vyurVq0u8OCIiojxz3bx509nZWalUKpXKjRs3Gn7UoEGD8oxsng4fPizUwf0GydhJYc6VKuuLrMSEEhe7ZT9OWRRS/e6Rg8IZOzs7rVZbqVIlCVu0QARPAAAAAMzClClTGjVqJByuaFVfnfq4nGPeOfRkk2alylZlb1/O0UrFo1Ypdm5yc3OToofY2FgphjU3gT2elW7MuLi4Ei+uUqWKRA/ElTPSMk/mvPKuz+I1Qm34crrCtozov6ptQ8Mz3bp1M8GG95aI4AkAAACAuYiIiDBc/rOyTYNcg0fwSitPrRbqxqPGl6uz0rMxeNnZqVOnir+4xAuKN3HixMInw8P/Zyf1jz8Wc+css1K9bUfRx+z11Y9CHRkZWeL1UjwQ99NPPwl7n1mTP/74Q1/YObvI20lhvqGNhXr7qKIfAzz53bxFIdVjz581PHn06NEDBw5I25zFIngCAAAAYEYyMzPtDZYmLW9RNzaijK+i2zkhf4voDu/OKm9n5bByZQkbFYeEhJRz/ALRVVJSUvPmzQ3PWFnwZPjOPr9WbSWdq21bo8aPjo4WcdJWrVqNHTtWxAHNhEajEerhu8w6qUm5fbPAmdML/m9RSPVzS/9n+6eAgACdTtehQwcTtmZhCJ4AAAAAmBe1Wu3g4CAcbnnx+Vv795RhnEdnT4vXVFk4efvoi+PHj5d48VtvlWsLqrZt2wYGBsbFxSUkJAwcONDHx8fw05o1a9rZ2ZVnfHOzdOlSoVZJ80MLeq6fvsg0btldQECAWGtenJycTp+W+XevRPr06SPUbn41ZOzkadq88b5Q67RahUKh1WgOf/7hopDqZxZ9a3iljY1NdHS0uIGjVVKWuF0WAAAAAJieo6Oj2uBZOd/QJkM27zb+dk1u7tLGAfq68agJHT+YLW57xvhz+vjo/U82wDbmm5dSqZSoE+v73hccHKx/us3O2eWVs9ekmCIrMeGnjk309cKFC6dNm2bMXbt37+7bt2955g0ICLDiLEP4Te5es9bLe0sOZE1PnZa6svWTFYgNho2MvRCeePVy4cu++OKL999/v/B5FMaKJwAAAADmKDs7u3r1/BfDxV28sCikuvGvujv9w1dC3fLVN0Ruzjjt3/mvUGu12hKvl2iRyzvvvCPFsPIS9lQK7l/0Rjzl5+RTSaF88pX59ddfN/KuPn366HS6MmeInTt3tuLU6eDB/BfA9fjyOxk7KYaDm7tQX970S+HUqV27djqdjtTJeARPAAAAAMzU/fv3p0+fbnhmRav6f06fYMy9F1bnP4rl6OElcmfG8fAPEOpz586VeH2rVq1CQ0PF7cHBwWHevHnijik7w2ffusz6UrqJ2rz+tr7Iy8uLj483/katVtujR4/STnfz5s1Dhw6V9i4LMnDgQKGu1qK1jJ0Uz8mncpHnv/zyS51OZ8yTszBE8AQAAADAfC1YsODy5cuG60ei9+9ZFFI99f7dYu7S6XTavDx97eRTSdoWjdOqVStjLouMjBT3gbvs7GwRRzMTL730kmkmajH5NaEODAws1b379u3T6XS1a9cu8UpnZ+dTp04ZebHlysvLS01N1dchg0fI20zxen+72PDQ1dX13LlzOp3uvffek6sli8YeTwBgwe5kpiflqJNzc5Jy1Ik56vic7ByNJlOjydTk5Wg18TnqHK0mLTf3abc7qWwdVCpXla23vYOzytbV1tbBRuWkUgW4uHnb2VdycKxk7+htb2+r5F8pAADy8/f3v3fvnuEZe3f3kX8ecfIuIldKjr65oU9nfT3h1GUHdw9TtFiUs0t/OPXdkwVHxn/5Eit7evz4sbu7e8nXWRrh56d66/YDft4s6Vw7xg57cOqYvi7z1+fIyMhFixYtXbrUcIROnTrNnDmzX79+KpVKhEbNnr29fe6//106LeqBvM2UaFHIk+d8R40atWbNGnmbsXQETwBgdiIeJ93KTI/JynyQlXEmJSFWnd3Bz6h/IzWZsEdn/Z1c/J1d/Z1cOvpUqePq7mlnX/JtAACUzz///NOtW7cCJ23s7EbvP+1c2dfwpPClUSH3V9y87Kxlzero6yNHjnTs2NHIG52cnMqzWMnGxsbwvfXWJCkpSXhn34jf//EKqivpdHnq7GVNg/R1o0aNIiIiJJ3OWiUnJ3t7e+vrgG69+ixaLWs7JTP8O4TYpJwIngBAfpfTUm6mp93MSL2ZkXYzIy3Qu6HcHZXalYSIBm6eDdw8+1WrWcPJRe52AADWrGfPnvv37y9wUmXv0HP+gqBnnrxNTPjSaOvkPOncdZP2V8iSRrX0z/3Vrl375s2bxt84YsSIX3/9tQwz+vv737lzpww3WoT27dufOHFCX5smVVzXq53waGd6erqLC/+pU2peXl4pKSn6esrFuzZmv8jrjymj7xx68vcMsUk5ETwBgAzuZKZfSk25lJZ8Je3x9fTURr5N5e5ITFHxESFuHvXdPEf5B7ESCgAgkSpVqsTFxRU+X7vnc11mz/+pfSP9Ybu3P242foppWyvo8GcfXFz/s77WaDQ2NqV7ht3NzS09Pd3Ii1Uq1cWLF+vXr1+6Fi2HTqcTfgL9Wrcb+PNvpplXiDJdXFyM/+WA3vXr14ODg/V1lSYtBv+6U95+jPHo/JmtIwbo68jISNF3/a9QCJ4AwETi1dmX01Iup6ZcTkvROvjL3Y6JRCddautdua135dZelQmhAKlpdLpYdVa2RpOt1aTm5mZp8hJz1OmavGxNXvb/PnGj1mrV2idn7G1sHG1UzipbL3sHW6XSxdbWwUblZWfvqLL1srP3YqM3mLG4uLigoKDiU4BJ4TdsHZ1M1tLTCLHF/Pnz33777dLefufOnd69e1+7dq2Ya9zc3A4dOtSsWbMytmghZs+ePWvWLH1tyocot48eHBN2Ul8TQ5SW4Z5l5r+7k0D4Y/viiy+Wbe0h9AieAEBCyTnqiNTki6nJmx7cDq3cRO525HT0wekRNWu39KzU0qsSCRRQHhmavGtpjxNz1Ik56qQc9fWM1MQcdXKOOiFH3ayKJF84I+PO13Zx87Z38LF38LZz8LK3b+DmWcPJxdveQYrpgDKoV6/e00IZM/mWu6x53bysTH1dzq9gixcv3rFjR0xMjEajsbOzGz9+/GuvvVbybdZCiDAcPb3Gn7hoyqnZ9KdsOnfufOTIEX3d5ZN5DV98Wd5+jLc41F/37z/b8CteHgRPACCOTE1exOPkk0lxJ5Pir6Q/NrftwM3QzcSL7X18u1Sq2t7b166UDx0AVik9L+92ZtqtjLRbGWlHE2NjsrMkCpKkcywmzM/RuX+1mvVcPeq5efg5OsvdESqW5cuXT5o0yfCMraPTpPAbcvVjKOHKpU0v9NbXe/fu7dWrl7z9WKj58+e/++67+nrU/lNufjVMOfvxrz47v2qJvh45cuS6detMObuFio6Orl279r9HymlR9+XsppTW9W6feu/JXmkkJ+VB8AQA5ZKpyTuTnHAmOWHNvZuETWVzITa8Y6UqH9Vr6mprK3cvgEml5uXez8rQv1tgb1zMg6yMjtVby92UmMJjz9V18ehdxa+Bm2cDd08HG3PfShbWIS8vz87OTl8P+Hlz9dbt5e1HsLhhTZ1Wq1AobG1thZfKw3iGuzvZ2NpNibxt+h4WNaih+PcbdHJysqenp+l7sCCGfxgVZrP80HiP7935pfeTv0AeP37s7u4ubz+Wi+AJAMpo18N7e+MenEiKa1Otpdy9WINTD8+08/btV61m98rV2FAG1kqr093NyohKS4lKe7wt5k5j63qxQPFOxJxp6O7ZwtNnYkCwq61dyTcAZfXGG2989913+tqsvuje2L1z75tT9fXNmzcNloHAKMOGDdu8ebO+Hn/ykqOHDKFPRlzsz12a62uVSpWXl2f6HiyIh4dHamqqvm77xnvNJ/1H3n7KQHi+8q233vrqq6/kbcZyETwBQOnczEg7lPDoUPwjV9cguXuxThFx53v5+v23fgX6Qg7rptHpbmemX05N2fXoblTa4woVNhXpWExYoLNrM0+fZh4+/arVlLsdWCFz3saYTYLKLCcnx8Hhyb5yTt6Vxh27IFcnf746LvrAXn0dEBAQHR0tVydmrkGDBlFRUfrafB56LS3+zIqC4AkAjKLWasJTkj6+fC64UiO5e6kQYlKievtWH+Dnzx4xsEQ6hSI6I23dvZtX0h5fT09tXa2F3B2ZqfspUS08fdp7+7bz8XVR8bAtxCEET151gkfsOihvMwXc2L1j75vT9PXPP/88evRoefuxIFWrVo2NjdXXr5y9ZufsImMzhmHE+++//8UXX8jYjHmaNWvW7NmzhUNzi4CNt3Fgr8Srl/U14UmZETwBQNG0Ot3p5IQZEadaVG0udy9QtHDKGOxXy4PX4cH86F8sEJ6SGP44MTwliYypnKKTLnWpVLVLpaotvXx46hZlkJuba2//5P8sunw6r+Ews3t/lrDTk0Kh0Gq1huuz8DS7d+/u27evvq7arNWg9dvl7Uebl7ekUS3h8NKlSw0aNJCxH3Nz/PjxDh06CIfjT1x09PSSsZ/yuLJt04EP3tDXGo3GhvfhlAnBEwAUdDktZdfDe3/G3m9YuYncvSDf2Ufn+lStMbJmUJCLm9y9AIpMTd7p5IQTiXEbH0TzYgEpRMad/6xB8w4+vsRPKJWFCxdOnz5dX086f8v234ezzEfawwdruz95jUCnTp0OHz4sbz8WwQwfn0y8FrVxQE/h8NGjR1WqVJGxH/Oxc+fOAQMGCIfDdx7wrltPxn7KKScjfUXLJ/0vW7bslVdekbcfC0U0/hTOAAAgAElEQVTwBAD5bmakvXbhZIB3Q7kbQXHS02/+1KKjDf9EDJmsunP9ZFLcuZREXixgAhdiw7tUqtqvmn8b78r8mYcxmjVrdv78eX1tJglFYavahWanJOvru3fv1qzJZmfFsbe3F14CaFYpRtjCb8J+/Fo4TE9Pd3GR8wFAc3D06NFOnToJh+3e/LDZxGky9iMK4clKkuIyI3gCAEVKbs72h3d/f3i3ikd9uXuBUe4mXx5Xq27/ajVZCgHTSM5Rh6UknEyKP5zwqF6lxnK3UxHdSIxc3qyDv7Or3I3A3AlLY5Qq26kX78jbzNNocnOWNg7U17wZrXitW7cOCwvT11WaNB/86y55+ylg64gBj86fEQ6zsrIcHR1l7EdeixYtevXVV4XDpuOntn/7Ixn7EcvSpkEadba+Jj8pG/57HUBFN/vK+d7H/grLdCZ1siD+Xg32p9r1Pf73L/duyt0LrJlWpzuTnDDs9MGuR/7ckaSMVfiSOsmljk+jeXdTR505vPF+dEpujtztwAIEdu8ldwtPpbKzb/vmh/pao9GEhobK24/ZWr58uZA62djZm1vqpFAoBm3Y4RVUVzh0cnJKTU2VsR8ZTZ482TB1Cn1prHWkTgqFwrt2HblbsHiseAJQQaXn5e2Jvb/xfrSvh7ks2EbZtHfJGlI9wMFGJXcjsB55Ou3p5IR9cTEH4h+y15sZOvnwTI/K1eaHsrUWCtJqtSrVk/87mHzhlsre7DZ4MrS0SaAm50mKun79+hEjRsjbj7lJTU318PAQDkX8BU17+ODqts13jx7MSUvLSU9TKBR56mxbB0eFQmHv6uZStWrtXn0bDhtp/IArWtXXj6MXGRlZ0cLE4ODg69evC4fd5nwdMmi4jP2IKyM+7ufOzZ7UGRnOzrxwudQIngBUINkazZ64B38/5o3d1ulGYuSEgOBh1QPlbgSWR63VnEyK3xv74GDCo2ZVmsndDkohPDZ8QDX/l2sGVXfimwAUM2fO/Pbbb/W12W7wZEjYO0ahUKSlpbm68jDpE3FxcYZ7dY89ct65UuUyj5b+6GHkL6vCVywqw70uVar2nL/Ar2VbZbGvM1vTrVX6oxjhcNOmTUOHDi3DdBYnLS3Nw8PDMFXo+dWPwc+/IGNLUhD+qC5evHjKlCnyNmOJCJ4AVAhJOer1929tvB/d2Lep3L1AWoN8lD0qV5O7C1iMXK32UMKjDy6fbVW1hdy9oOyOxYQtbdq+NRuQV3hm+O6z4qU/erimW/5rCvhqJjD8pez66fwGpVl/JNDm5W0Z3i/+UoQoLTm4ezy7YEX11u2fdsH6vl1Sbt0QDjt06HD06FFRpjZbv/zyy8svv2x4ZtSB027Vqj/tesslBE+2trbCVvcwHsETAOs371rklpjbfKusOLIzb71dt1F9N4+SL0UFFpWWsuPh3d2P7jcij7YWMSlRY2rVfb5qDV47UGEJaYW9m/vE01HyNmOkU9/NO7v0B31ta2ubk5OjrNivbY2Nja1atapwWKtz975L15Z2kAenju8YK9WCo+5ffld/YNGDH/zv21Gb1xueseJX3QUFBd26dUs4VKpUUy/elbEfSS1pFKDNe5I3EaGUAcETAGt2LT315zvXU1Ssf6lwjsWE9a1SY0adhpUdKu7LZfA0j3NzJoUfr+QeLHcjkERUfMTu9r0cVez7VhEJkU2TsZM6vDtL3maM93PXFhmxj/S1o6NjVlaWvP3IKC0tzd3dXTgM7PHMcz+uKtUIKbdvbni+u04j8YsClcqX/z7hXr1m4U8eRZzb+mI/wzM//PDDf/7zH2n7Ma3ffvutwIOElUJCh27ZY8WZ6eFP37/46xp9TYRSBgRPAKxTeEriqjvXDyc86li9tdy9QDZnHp093LkP+45DL1erPZwYuyPmztHEuHZ+LUu+ARbrUvyFl2sGjahZ20XFpn4VyJ07dwICAvT1wHXb/FpY0n8ArGzTQJ36WF+7u7unpKRY8Xf4p/nnn3+6desmHFYKCR229S/jb9dptWt7tDHcaElqvo2aDtn0R+HzOelpK1qHKAy+aLu7u8fFxTk4mPVu98ZISEjw8/Mr8KxZnyVrArr0kKsl07h79J/fX3nyvKcVr2KTDsETAOuhUyj2xj5YFH2lhmeI3L3AvGRn3ppVv6m/M5u2Vjhane50csIv924SQ1dYkXHn/+74DAF0RfDVV1+98847+toiNngqYHHDmjqtVl9XwHVPkydPXrZsmXAY3H9wz3k/GH97cvSNDX26SNBXCVT29pMvRBf50cYBPRKvXTE8069fv507d5qkL0kUeHWd3uSI2yo7O1n6MSWdRrM41F9fL126dNKkSfL2Y3F4AB6AlTiZFD/i9D87k5WkTijM0bn24FMHF9+6UvKlsCI/373R98Tfa+NytQ7+pE4VViPfpn2O/7015o6Wf221dn/8UcTaEwsy9dI91b8rYrKzs5VKpfbfHMrqNWjQwDB1avTy+FKlTld3bZUldVIoFJqcnMWh/rqifqVe3LG/3/L/2e9p165dSqVy9erVJmpOJNnZ2f3791cqlQVSp97fLJ4W9aAipE4KhUJp8Pj2li1bZOzEQrHiCYA1uPA4adnDbLm7gAWY6ucU6u4ldxeQ3N3M9A33o+9qfeRuBGbkfkrUq7Xr9/a1wtctQU94Nk1pYzP10j15mykbnU63tHGANi9/f6K7d+/WrFnERkJWIz093d3d3fA7ad+la2t17m78CKd//PrMwm8kaK0UbOzsp0QUve5Jp9P98kyH1Ht3CpxfsGDB9OnTpW+tXHJzc4ODg2/fvl3gvH+nbn2Xrq1oT4MK+4urVKq8PIk3EbM6rHgCYNlupKe+FRlG6gQjvXzm8Owr5zOl3nMUMtHqdP/P3n0HRlWlbQC/U9J7r6SQkAIhhRRSQFBEQEXRFRVdPhsWWAv2ht21911lXayoYEFdRRSVLgRIJ733Mult0iZTvj+iQwghmZnM3Pfeuc/vnz0zuTn3WYFk5p1z3nOkQ3ZHbvrq4/tQdYIJ/J0jf+gS3ZT9B3UQMDkJbzvpiESiOwrq7MedRh8QEPDaa68RRjKp5557zsHBYXzVaUNWuV5Vp+ask+RVJ4Zh1KOKPRtvmPRLIpHo77+l33y8UGJhOf75u+66SyQS3XPPPawE1Nu+ffukUqmlpeWEqpNTYPDGwvpL//u50KpODMNY/NXXSaVS0SbhI6x4AgC+qh2Ub6sp29PamOabSJ0FeKa6q/CJiNhUV0/qIGBMo2r1FScPBLrMpQ4CXOeilt0TMhdHXpof7TvhtIefirmR3x1Yvr5yRUdJofahq6trZ2cnYR5TsLW1ndDHamNRg0is38KI9yI5tIZxQ1a55ZQ9p1tP5Xx77eqzn3dzc/vjjz8iIznRLGLu3LklJSVnPy+xtr7hULa1kzP7kTii4IuP/3h+y9hYqVRKcHaqPlB4AgCeUWrUXzXW/LuqZIH3AuoswHtXu4uXuHtTpwDDDatUu5prP66riHCPps4C/FPXXfxI2PxFbl7UQcA4tIUnPnYWP1vRV58dfvqR8c/s2bPn4osvpspjRGvXrt21a9f4Z+I2/CPl/sf0nWdbfNjo4IDxchmBLn/3avbt/eWuWyb9UlBQ0Oeff56WlmbsXNPIy8u75557jhw5MulX3SOj/vbV7gkrtoRJW+jEwXb6wlY7AOCTE13tV508mD5gg6oTGMXdp05g5x1/DalUlxz//fiADapOYJhAl7k721WyYWGdHWauvvjiC+oIRjbvmvUbssrGP3PJJZe4urpS5TGKbdu2iUSiCVWnW7PKDag6dVWWca3qpKPgC1duKmn6+74TZ3+ptrZ20aJFIpHIwcFh/fr1Jo2hVCrXrVvn4OAgEoni4uImrTol3nn/xqKGq7/7FVWnCV5//XXqCDyDFU8AwBt3njqhsQqgTgFmqLqr8Pm58fHOaAnEG4Mq5ffNdR/WVkR6oOQEM5Uly749OOLGgFCx8FqWmJPx+4PMY8WT1q5rLm3Lzx3/zIYNG7Zt20aVxzB79+5dtWrVhCfnXft/S5560bAJObXJTivq+pvO2/K8Xt+y9+5bq3//eeprEhISNmzYkJKSEh1t4G89pVKZlZV14sSJjz76qKCgYOqLPaJiLnpjq9OsQMPuZcbG/61DIUUvKDwBAA8MqJT/rSmrVOIwMjCVY82ZtwSG3RXCifYKMIUhlWp7feVn9ZUxXnHUWcCsdPdXPBUZG27vRB0EDDS+1bGZFZ4YhumqLPty9cSW2w8++OArr7xCkkcvO3fuvP76689+13n7qRqJpYHraAY72j5ZzMXfAhIr69vzqgz4xuGe7h9vurqjtFjH662srGxsbKysrKysrJKTk8d/qby8vKura3h4eGRkZGhoSKFQ6DintYvr2m9+cfDz1y+6kKDwZDAUngCA0zQM83tb0+sVhaFu86mzgPl7LNDZz8aWOgWck1qjuTj99xC3KOogYJ7SmzNvCAjdHDqPOggYQlt4svPyueFQFm0YE9m7+bbqX/dMePKuu+568803udnnePPmzW+//faEJ8VS6TU/7HeZHTqTmfdsvKHu0L6ZzGA6M6x7qkZHT771UsmunSN9vcaKNAUrZ5fw1VcmP/C41JKvZ0Gyafet1zccPTQ2RiFFLyg8AQB3lfb3vliWb28fQh0EhKKgLe+5uQvQbpybTna1v15Z6OEYTh0EzNxGX5soRyyw5R9t4Sniymsu+OcbtGFMR6VQfJQ2f1Qun/C8m5tbTU2Ng4MDSaoJKioq4uPj+/v7z/7Sup8PuwTPqOQ0hpv77MYYccGdQt5f/8fBw888OtLbY6w5GYZxDAg6/5lXPKNjLWzRHls/+Z9/dPSfT4yNUUjRCwpPAMBFeb1dT5Xk+jtj3xPQ6Omv+CJxCXUKYBiGebm84MvG6lTfROogICwtvaUvz0uYY+9IHQR0pS08LX321blrr6MNY2qjQ0M7Vi0eaG05+0u33HLLK6+8QtKD/MCBA3fccUdFRcXZXxJLLVZ/8IXfQuMc1qYaVbwfHWyUqUzBpDs9+5sbG08cbT2VI5e19DXUjfT2DHV1TnqlrYennae3nYeXg/8s/+RFvkkpVg74gTZTnWUlX625cGxcVlYWFhZGm4dHUHgCAG4ZUau2Vpd+Ul+ZhveZQOoGL4skFw/qFII2rFLtaKzOHsLnsUAjoyV7c+jc62dh1S0P1NXVBQUFjY3X7Tk8w21cfDE6OPjJeXGjAxNXP43x9vbOzc319jb5Gt5HH330nXfeGRwcnPSrFrZ2NxzJsbSzN+IdG48f/fHma4w4oXGZX4sxGE+72m7r1q133HEHbRgeEVMHAAA4Lbun828nD1YoXVB1AnK356Z/VDfJx7bAjt/amlYf34eqExBK8olPH7DpGdW1Ly8QOnbsmHYskKoTwzAWtra3ZpVtLG6MvGqSFV4ymczHx0ckEolEokWLFu3YsaOlZZIVUvpSKBS//PLLddddJ/rLSy+9dHbVSSSVJt55/6aSpluzy41bdWIYZnRowLgTGpGDty91BGDJzz9PcxYhjIcVTwDAFXLlaNrhPYv8kqiDAJzmqGp5OjLWSszFpq1mbGPecbE1TnEGTihuP/X83AVpbl7UQWAqd95557vvvjs2Fux6E4Vcvn1pvOIcC6DGGzsKLTU19fzzz09NTV20aNGklx09ejQ7O3v//v1//PHH8PDw8PCwLjFibrwt+d5HDT6ublpdBbnZTz1cUVJkovlnyNfL28baet49D/uvuow6C5jE1qgAjUrFMIyXl5dMJqOOwxsoPAEAJxzqkD1XmhfhHk0dBGCiXnnlm/OTPKysqYMIwoha9VFtRaECfSiAQ442ZVw3K+S+0HkWYuwV4Ki0tLT09PSxsWALT1r9zY1HX3iqZv9e1u7oFBAUc8NtUdfdYLpbVGzfVr3jk7GxRqOprq8z3b1mIiQwSDuOfuRpn6XL6bKASfx3wRzl0J9L/FBL0R0KTwBAqbCv+5HCrEBXnF0NXLfOQ7IISx5Mpl85+mZl0bdNtVjzCFyW25qTvuRS6hQwCYlEolarx8YoPGlp1OqRvt4fbrqms9T464Ms7OxWvvOBb0Ky6RY3jdm35kLV8NCEJ6vqak16U8ME+s+SSs5cIi0SXfD1zxbo6m1Gfrr97/VHDo6NUUvRHQpPAEBGwzAJB39M9kmgDgIwvfTmzMfCY9b6BVEHMU/Lju7FgkfghTnS7rtD5or/OkANOEJ7pB0jEm8qbiDNwmmy3KyG43+0FeR1lhbJZbq2fLL39nELn+sZFeOXvMg3YaFJE4536sUnZYf3T/qlxpaWEcUIa0l0sf7yxe8/d+uz7/74zd6sCV+ydHVb+tn3Igm27ZuDqr0//Xrv7WNjpVIpwR+rblB4AgAanYqRLcU5aOMC/BIg7nwobD7ecRpR+8jws6V5aqsA6iAAutIM170UleAotaAOAqdpC08O/gHrfz9OGwaM4teVaWc/eUFy5GsPrbWwkKrVGvtYE+7s01dYkE/ejy+PjTUazT3/3HnwZOmEa0Kuvzl0/S2sRwPj0x5sNzQ0ZG2NVgw6wU51ACBwuEN2xYn9qDoB79Sr3Z4qzlHjMxsj+a2t6W8nD6DqBPwisg5ce/JAYV83dRCYRMQVV1NHgJmq/nL7hKqTpYVk+ysbCnY/+/bj6ywspAzDiMWiu9evJAo40cZ1y7VVJ4ZhRCLRO1uuK9j9bMRsn/GXVX3x0b41F2r+2hMKZuDQoUPUEXgDK54AgG0vlxfsaKhCJxfgL8lI/TsxydQp+K1fOfpiWX6vxGf6SwE4KaMlO/P81dQp4E/aFU9Xf/+bewQaR/LYwXWrFd1d45/Z8/49Ab5uk16cdNXjheXEOyvrD7/r7uJwrq8qVaq4Nc9MeHLevY/6r0C3OB7TrnhasmQJak86QuEJANjzY0v982WnEr3jqYMAzJR8oOrdmGR77LXR34ha9VZlcb168ncRAPwyMljzZnSSA34UUNMWntBZnNcyHr6r+1SO9qGbs92hzx6e+ltufvQ/X+5JN3Guya25MGHHG3frcuV7Ow5u3Xlw/DN2swIXbdthmlxgctrCE4P+4jpD4QkA2KDUqF8tL2zUuFMHATCajr7y/8SmuFhaUQfhk6qB/kcKszydwqmDABhNc0/Ju7Epvta21EEEDYUnM3Bw3aWK7tM7WK9fnfzIbRfr8o0d3f0BS/5hslyT8PFwrtz3tkifQwY0Gk30ZU9NePKiX47qNQlwBApPBkCPJwAwuZ5RxR25x1F1AjPj7hh2a+6xnlEFdRDe2N3SsC7zEKpOYGZ8nSOvzTiU29NJHUS4tm/fTh0BZqr6y+3jq05vPXatjlUnhmHcXRwG87c/t5mN9l5P33XVYP72qv3v6FswEolEBbufvfaSMxpN/LZq0VCrrmcLAnd4x+FIbr1hxRMAmNzKY7+FuEVRpwAwibbesm0L0pwtLKmDcN0DBZlDFn7TXwfAT2j5RGjZsmUHDhwYG2PFEx9pNJrfVi3SPnz5gasuXhJt2FQdPf0B5xl/9dOGqy94Z8uNxppt/uonxz+8YNdeC/tzdokCDvrjuS0FOz4eG6OcoiMUngDAtH6SNfzSI6FOAWBC7X1lXyedT52C00r6e/7dNEidAsC0oiz7Ns6OoE4hRFKpVKVSjY1ReOKj8WfYrb8s5aFbV818ztzimv9+tf/T748Y9u3eHs5rVyavv3xxVNismYeZQKVSx655evwzSa+95xIVY/QbgYlU/frTr5tvHxujnKIjFJ4AwFRUGs2/qoorlC7UQQBM7oUQdycsejqH3S0Nz5bmJfngVAEwf55M25bwGAmatrBLIpGo/zqiHoUn3il47fnmfb+Mjd1d7A9uf8hEN2rt6P1yz7HfjhUwDPNHVunYk8F+Hv4+boviw5cunJcSO8dEt55U4lXPDY+Mah9etOeISIJPavmht772ixV/Vkurqqpmz55Nm4cXUHgCAOPL7+26ryAj3N3AZdIAfDQ6VPNuTIqFGM0T/9QwNLA5/6S3ExaAgOAMDVb/KybZTiKlDiIUYrFY+44GhSfeGb/cqWD3s4RJ2Lfshlfbuvq1D8//ao+lkzNhHtCdtr/4F198cd1119GG4QW8PgYA47sl5xiqTiA0FjbBDxZmqvFxzl/WZRxC1QmEycZ29q05x6hTCJGDnz91BNDPvjUXasc737idMAmJ/Z8+6OXmqH148JpLCMOAYfLy8qgj8AMKTwBgZF80VGFPDQjTqOWsF8ryqVPQ0zDMR3UVMV5x1EEAyLg4zOlWjFCnEArtcid7b1/aJKAXjUqlGh4aG1taSKPmCPEAin2fPDD+4e+XL6NKAobJzs6mjsAPKDwBgNFoGOatyqL0ARvqIABkWhiPrTWl1CkoKdTqR4uysofsqIMAELs552j7yDB1CmFB4Ylfyj58Vzv+/NUNhElojd9gqB4Z1na8Ai4Tif9syFVRUUGbhC9QeAIA4xhRq+4vyEArcYDCEcfpLzJTvaOKO/LS+yV47wfA+DpHrs860jA0QB1EQGxc3agjgB7qvvtKO44MEfQvjt8/vl87LnjtecIkoCOx9M8ufg0NDbRJ+AKFJwAwgsuO77uvvHXEAr0VABiGYVIP/1Qh76NOwbbzjvz8WFWHjS3OdgH4U4hb1Et1vcuO7q0flFNnEQRrZ3z6xUvrL0+hjkDM291pcXyY9mHmw3cRhgFdiC0sqCPwDApPADBThX3ds1zmUqcA4JA4rwV3nTrRJaQOL/vamud7xlKnAOCiCPfoW9BrnBUOvvgAjDeqdnyiHd9340V0Qbjivaf/rh13ncohTAK68I1Poo7AMyg8AcCMHO6Q3ZxzlDoFAOeEuEXdm58xolZRB2HDFw1VDxRmUqcA4K4w9/no98QCe5xqxx8133yuHUulEsIk3PH85iu04/rd3xEmgWmFXXaVdqzBicY6QOEJAAz3s6xxc/7JRG+cYQcwCXv7kGdKzPyQXbVG88+yU+kDNmm+idRZADjtjrz0nlEFdQoz1NXVpR1LrXC8CW+ohv8sxXq6OtAm4Y7Ll50+DbZk65uESWBasy9apR2r1WrCJHyBwhMAGOgnWcPjxdmpeLcJcG69Ep8vGqqoU5jKgEq56dTxZo0HdRAAHvB2itiUd1yuVFIHMTdy+en+WbZuaC7OH38tElkwL5A2CKe4Of91JixqGdwmsbDUjlUqQSxvnyEUngDAEDH7//dLjwRVJ4BppQ/YtJnjFptOxchDFW0S6yDqIAC84eIw5+HKtttz0xV4S2k8dXV12rGdt6BPRuOp0ABP6ggc8vO2e6kjgN6OHz9OHYEHUHgCAL19VFexyA8d9QB0dX9Bxqh5vc+UDQ/dmP0HdQoAXpLaBG0pzqZOYZ7EErQK4h8nR1vqCBxibXn6rLTO3CzCJKC7ffv2UUfgARSeAEA/b1cVZw/ZTX8dAPzF0T70jcoi6hRG0zw8eHPO0QCcZQlgqAGpH3UE8zF+xRPwkVKJbUqnicUi7bgj6wRhEtDdr7/+Sh2BB1B4AgBdaRjmlfKC8lFn6iAA/FOvdjvQ3kKdwghqBvr/L+tIsOs86iAA/LarqZY6AgAn1DR2UEfgqIHGeuoIoJPMTBzsOz0UngBAJxqGeaksv06Ntp0ABnqyOKd5eJA6xUzdmHM03D2aOgUA771Qln+yq506hTlobGykjgAzklOENWunaf7quc4wjFtcAmESAONC4QkAdPJUcU6jxp06BQCPxXjFPV6UrR73mpJ3Cvu6ozxiqFMAmIMU34QHCjNrB+XTXwpTwnlSPCW2/PNQsMr6NtoknKJSne4IGbjmasIkMC0LW/Qe0QMKTwAwvberijvF3tQpAHjP1i5kwcEfqVMY4nhXW+LB3Vubh6iDAJiPaM/YV+v7bsj+A4fcgQB5Ji/SjsdXWwRu49OfUUcAXbmFR1JH4BMUngBgGh/UlqOvE4CxpPkmDqiU1Cn0k9vTuTn/ZJJPPHUQADNkbxfyTEkudQoeq6mpoY4Ahoh57Dnt+OPvjhIm4ZQTp6qpI4CunINDqCPwCQpPADCVnY3VucP21CkAzMrrFYXUEfRQ2t9716kTCd6oOgGYSo/EhzoCAKW3t+M0eoZhmIMnSrXj4GvXEyYBXTgHBlNH4BMpdQAA4K4fW+pfLi9I802kDgJgVr5tqr3Aw2eRmxd1EJ1szEuP8YqjTgFg5vJ6u2KdXKlTALDKb+Xqpr27x8b70osvTJ3Lzn375EMlVS2vfvhLWU3rpBdYSCXXXJx07cWJfl4uUqmEnVQMw9z9zx3acdiNd7B2XzCM46xA6gh8gsITAExuX1vzUyW5qDoBGN0iv6SnSnK/T17mKLWgzjKN+qGBuegmDmB6DxVmfp10vrOFJXUQAPbMu/shbeHp3he/LNj9rElv9/2+nG1fH2lo6Zr2ylGl6vMfj3/+4/Gxh3GRAc/evSbI37Rn7Fx3//vasWNouEnvBUZh54UGuHpA4QkAJpHR3f59F5OKqhOAaUS4Rz9a2X6Nu/g8d46+aulSjNyUc9TfGY0zAdgwx23+41UdcdbyDUFh1FkAWCISix1C5vRXVYw9vPT2t356f7Nxb6FWq7/Zm/X81p9mMkluSf3qje8wDOPn5fzRCzf7ehq/8+nx3MqC8ibtw5R/f2T0W4DROfj4a8c1NTXBwdh5NxX0eAKAiYr7e+4+dZI6BYD5e6EsnzrC5PqVo3fkpaPqBMCyf1eXHO/C0fIgIKnvfqId1zV37dqbZayZP/jmj4VXPx9z+dNTV51GR0flA/LO7m6JhTQsPNzKymqKi5tae1bc8kb0ZU8+8+8fjJWTYZjBYcVtT27XPox/4U0jTg6mY+vhqR1XV6Mr/DSw4gkAztA6MnTPqZPx3guogwCYvxC3KOoIk5Arlbfnpns4Yp0/ANvSfBMfLcr+Oul8Tytr6iy8gVPt+C7xlX9nPnTn2BI34zAAACAASURBVPiZd38MDfSMjQwwbCqNRpNZUHPL459McY2np+dNt9xy6+23MQwjEom0z0dFz//5173jr1SMjDz84EP79+0bHBw88y7Mrl+zd/2a7eJou+udTZ5ujoalHdPS3nvRza9rHzqEhrkvSJrJhMAasfR0LQU/iKaFwhMAnCZXKjflHQ9zn08dBEAoSvt7IxycqFOc4e78Ey4Oc6hTAAjUPI+Yx4qyP1iQRh0EgCWu0XEeSantGeljD9c/9MHy1LlvPHqtXpN8sfvEf7481NM3eK4LomNiXnn9tdDQ0HNdEBc38RgNSyurN995e2x8cP+B2zZs0Gg04y/o7htcduNrErHooVtXXXdpsl6Bx+SV1q9/8APtQ6mDQ+q/PzZgHiCHFU/TQuEJAE67r+Ckt1MEdQoAAXm2NO/zhPPE4z50paVhGBvb2dQpAATNyhaNQkBYFjz76pEbrxqStYw9/D29eP7qJ1+498rVF8Se61vUanVVQ/t7Ow7uSy+eYuY5YWG7vvvWzt5+2gxnF57GO3/ZBRU11QzD/OOOjb/uPWNhlEqtefH9n198/+fwYO//PLPe3cVh2nuNufPZzw9nlp9+LBYv+2bvuS8HTquvr6eOwHWiCYVbABCs96pLixQzWi0MAAbIa83dnXKhq+VUfSXY8X1z3b4+rh+0ByAEnX3lnyeeJxWhGev0rr/++h07/jyEflNJ09QXA5dlPPiP7oK8CU+KRCI/T2dfT2eRWMQwTF//UHN7T2//0NRTBQUFvff++2Hh07TqH7/VLicnZ+ra03iFhYVrLl19jjmZuLmB7z75d3vbc/5af+vT3z/c9cf4Z6QODqg68dF7kX5jg4svvnjPnj20YTgOhScAYBiG+V9L/e+9WAIJQMOLaXsy4pyf67Ijo7tjY156sk8CbQwAGIMT7nS0YcOGDz/8cGyMwhPftWek5zz5oMHfPjsk5O1/vRM5d64uF+fn58fExGgfGvam+Nq1V2dlZk5xQXiw9yVLoy2lUoZhfk8vzi6qPfsa++CQtK3bz34euE9beFq4cOGJEydow3Ac3mcCAJPZ3fFcaR7ecAJQ+a657iq/oLkOxj+hWUdVA/335p/EDwEA7nivujTVzZPwxwIA+zySUlfsPVby3pv1P+7S/bsuXb36vgcfCAjQryV5YWGhnukm8eU3XzMMs/W99157+RXRZLvmy2pkZTWyKWZY+Ob7zpFcPGkEdCESizVqNcMwMtlUf8rAMAxW8AIIXdVA/2a84QQgleab+HJZAdUK5PaR4U156bFeum4xAAAWpPgmPF6UPaJWUQcBYFvkpntX7D22+KOvnCKjJNY2E76q0WiCgoL+tnbtyazMytqaytqat/71jr5VJ4Zh8vPzjZSXCQkNra6vq6qrlQ8MMDo3bfRdvmrF3mOoOvGaSPxnOaWuro42CfdhxROAoLWPDG/EG04ADrC3D9nX1rzc05f9W//j1PFQN5xlCcA5vs6R79eU3R2i074hADNj6+uf/Ob72oe/3b+p8ucfxsZVdbUzn7+goGDmk4zx8vIaG7R2tP/tjzz1qKK7uKDk368PNExSjHCeFz3vrgftg3COhznQFp5gWig8AQjag4WZc/CGE4AbXq0oYL/wpNJoPBzDWb4pAOjo47oKFJ4AGIbRVp2MpbOz01hTubm5acc9NVXOwSFuMfGLtu0w1vzAYVw5lZj7UKIDEK7dLQ12diHUKQDgT3Pc5veOKti849dNNXeXtbB5RwDQS6pv4v9acEo3wGmWlpZGmaerq8so8zAM4+rqqh33TrbKCcyVSIJyiq7wXwpAoAr6up8pzaVOAQBn+LS+krV75fd2vVJutI0GAGAib1QU9rBbkuaX4OBg6gjAqqVLlxplno6ODqPMwzCMra2tdtxbX2usaYH7fOMXUkfgDRSeAISoUzFyX37GQjQUB+CYz+qrWkeGWLhRp2LkvgL8EADggfmese9Wl1CnAOCKuXONs/m0u7vbKPNMnLay3BTTAvAdCk8AgqPUqB8szAxzR2snAM5J8onfVmvy16xKjfqBgoxw92hT3wgAjOKbptrCPpO8SQbgnZAQ47eJ8PT0NNZUclmzsaYC7vNJwIonXaHwBCA4r5YX2tjiKA0Ajvq2qbZmoN+kt3ilvNAW/d0A+CPNN/GfZafUGg11EC4KDAykjgCsMmKRSGvevHnGmmqwo91YUwH3ecedXjmuwY/oKaHwBCAsSYd2N2rcqVMAwDml+iZecfJA/aDcRPOX9Pc04YcAAN+4OoQt/eMXuXKUOgiAGZr5Kipty/OBNtmM4wBviMUS6gi8gcITgID0jCoSveOpUwDANNJ8Ez+sqzDFzL2jivsKMkwxMwCY2nzP2E9YPH+ALxwcHKgjAO+Fh4fPcAZra+uxwWB724zjAG+M32qHFU9TQ+EJQCg0DPNUCY6xA+CH3S0NTUODxp1TrdE8XJQ12zXKuNMCAGs+Q+HpLONPsgcwTExMzAxnsLKyMkoS4C8UnqaGwhOAUHxeX6W0nEWdAgB0kuKb8LGxFz29VVUssQ4y7pwAwKYELFuekkqhoI4AJqcwxp+yXG7k/ew2NjbGnRDAzKDwBCAIxf09b1UVUacAAD1831JnxNmOdrZ+aprtewDApsahAeoI3DK+ufhgeythEmBHbW3tzCeZsDjFxcVlhhO6u6N5otBhxdPUUHgCMH+PFmW/2zSY7JMw/aUAwBnJPgn9RmokvCHn2M521SK/JKPMBgCELj2+r0zeS52CoxTGXsYCHHT8+HHqCJOYM2cOdQQATkPhCcDMfdtU2yfxoU4BAIb4tqnWKPNY2QYbZR4AIJfmm/hedSl1Cg4JCAjQjof7egiTADtyc43fsVQqlc5whuTkZKMkAf46fPgwdQROm+m/MQDguJcrCnCSnRnIaMn2t7H1t7GLd3ZztLB0kFo4Si0cLCz8bezGX6ZSqwdUSrlS2TU60qNQ1Az294wqZMNDNYPypqGBVN9EqvxgmC8aqv8eECIVzehTouyeTmPlAW4qac+3k0rtpVIHqYW91ELMiBiGkYhEtlJp/+hon1IhVypH1equ0ZEuxQh+DpgBpeWs/N6uaCc01Z5oQNZMHQFMrqWlxehzOjo6znAGb29v7VitVIpnXMkCMDP4JwFgzoZVKlSdeOpkS1aYvVOUo8sqLz9/GzuPiNU6fqMLM/m5KqNq9ZHO1rpBec1Af1F/j49ThPHCgqmEuc/f29p0qbfhxwL0jCoeKcwKc59vxFRA6GRLVqCtfbCtQ7Krh6eVtbe1raeVtXPESh2/XcMwVfK+dsVw09Bg/dBAw6D8aGdbkg9+TfDPttryf8VghcVEGpWaOgKYindsgiwvy0STDw7O9BjZ8b3GNGr8PRSiw4cPL1u2jDoFd6HwZHLNw4P/qippGR4cVqmoswAlsUi0JSJmroMzmzd9uaKAYTzZvCPMUF13cYKz2zX+wW+HXzrDdS4TWIjFyzxOb7o81tl6qrc7r7ezoLd7gfcCI94IjGt7faXBhScNwzxZnIOqE98Vt5+a5+iy1i9otp2DX/hqsUhk8FQihgm1dwxlTn+2r9ZoagflZfLekv7e0v4eCxvsyuSHIx2yqoH+EDsH6iDc0tfcSB0BTCX14Se+W3e5iSYfHh420cwAMAaFJxNqHRl6s7LoF1njIr8kOzvGbvrvADN3X37G3rSLWLvdwfaWNlSdeMJqtDHF1TPV1dMv4kJ27pjm5pXm5sUwjFqjKZP3Pld6qri/Jw17cLjHwzH8WGfr2B+WvnY0VKmsAqa/DrgnvTlznf/sBc5u8xxdfCJWme5GYpFotp3DbDuHVV7+DMOUy/syu9uzezqzezqjPGJMd1+YoUV+SZ/WVTw7Fx8bnGF0AM3FzZbn/Fjt+Jtvvlm7du1MZrOwsJhxIoAzHDlyhDoCp6HwZBI9o4prMw6FuEUxEt9Ffr7UcYArrvANnP4iI3moMHNA6sfa7UBfIdLuVV5+kadXwJH9oBCLRJEOzjsSl2ifGVGrHi7MOtLRmuKLkxA5YUe7akTdcoGHHqcEDKlUV2ccDHCZa7pUYETVXYUprp6bQ+c5Sv96LxRhqg/2pxZm7xhm73j9rBDtMx2K4SMdrT/LGtGinms6xd5vVhbdGzqPOgiHDHd3U0cAUxFLTr9vvfHGG2dYeLK2th7/sKdnpm3pRTNYiwogBDjVziQeKcoKcYuiTgGcc2NgKDs3+q2tCVUnbjrVmjtL3LHB2+q+0HmR7O671J2VWPJW9ML9i1ak2A219ZZRxwGGYZiD7fr1Un2rsghVJ+5r7imJsuz7h5/tz6kXPRkRe7rqxCXultZX+gZ+sCAt1W5ILq+ijgNn+KaphjoCt/Q1NVBHABOydnYZG8y8JdMETU1NM5xBo9EYJQnwV2FhIXUETkPhySQk1kHUEYBzjjVnWoklLNyoSzHyz7J8Fm4Eeunur7jISbl/8cpHwqLjnN2o40zPxdLq77NCvll4/l1+dvltedRxhK51ZEiv67/C21EOO9acOTJYc76D4vvkZRtnR8x1cObFB+XXzwr5NGHx3f523kxbtiyHOg4wDMPEeWGrHcOMW2wib5lp+QC4LPqG27Tjmhpj/porLi6e4QwZGRnasRj7+ASpsxOHCE8FhSfjO9Iho44AXLTWL4idGz1XmofGHJySKcv20LTuSFxyuU8AO8VH44pwcPotbUWa3XB1Fz7JIeNhaT39RX8ZVCnRroub5PKqNLvhfYtWfLAg7Sq2fikYV7i90xMRsfsWrWzqKaHOAgzDMKM4P2sc9aiCOgKYUMIdd2vHd9xxhxFnTk9Pn+EMLS2nFyZj2x3A2VB4MrLGoYHHirKpUwDnVHUWbmarC4PC0vCT18G4StrzE20G9i9a+XRkHHWWGbGRSK6bNXtPyvLLXDTd/RXUcQTnWHPmWn892uu8WVlkujBgmKrOwijLvk8TFl83a7a7PmVEbrKXSr9PXrbWXdwrr6TOInR7W7HG5zS5TL9dycBfv/322wxncHFx0Y6PHj06w9n27t07wxkAzJsI+1GN6MninE6xN3UK4BxXtew5ts6dufPUCQ0OsaJW3118S1DYGh9z/oMo7e99t7pEjb9sJtYvr3w0PFr3dmBDKtVVJw8EuaLZMCeUdeR/k3S+i6UVdRA23JT9h61dyPTXgQncN8shxM6BOgUliUSi/mvl16YSVOLMWdmP3+5/+M91Tz/++OPq1asNm2fbtm233Xbb+Gdm+KbY29u7tbV1bIy/hILyXuTpvroorUwBK56MZldTLapOcLbSjvwHw+azc68fWupRdaJV21V0qYv6h+Rl5l11YhgmwsHpXzHJG31t1MN11FnMU1lHvjfTtj3hPL2a0L9eUYiqExeMDtVc7S7+LW2FQKpODMN8HL/4b24i7L8j8V1zLXUEAJaEX/Y37fjyyw08/bO2tnZC1YlhmO3btxsei2HkcvlMvh3A7KHwZByFfd0vlaOdM0zi8fAYdg4q6hlVvF6BFjyUUu2G/pe8bJWXv1gwe/ujHF22xqa09JZSBzEf6uG6RJuBO/1sf1+08omIWL2+90RXO464IpfenHmXn91/49KWuHsL50fBmAs8fL5beMFi++G81lzqLMKyu6VBIexOT05OTtQRgD3BF64cG2g0mg8//FDfb+/s7AwOnmT3+g033KCewb+jgYGBsYFraLjBkwCYMRSejOPBwsyFPgnUKYBz7JTNF3j4sHOvNyuL5nvq9zYVjOVES1aAuPP6WSEWYiH+UP0m6fxUu6FcvNU0VHpzZmdf+Rxp93pPi62xKTcGzok06Jizp0tyF/klGT8f6CajJXuWuGNP6vIIB+G+BxaLRNf6z/4x5cKjTRnTXw1GMt8z9kC7oHsbxcXxu5Ei6GXlOx9oxxs2bND3293d3bVje2/foPOXax9aGHoaXVdXl3bsFYuzJgEmIcT3SEan1mhmu0ZRpwAueoStTXa5PZ3/a8aOJwJHmzJc1LI9KcsfZuvPmoMkItH1s0J+TFlmM4qmBnpIb87sk1f+n6fFiaWXfpm0dHPovGRXj5lMGOKG30Q0xkpOP6cufyQs2tfaljoOPTdLq4/jFzdj2x2LBL7bbsmSJdQRgD0ikSh8zVrtQ1dXVx2/saysbPx5c5YOjv93MPPi9z7RPqNWqy+99FIDIrm5uWnHUetuMGAGALOHwpMRvFeDbSYwOVdWunuoNJoXyvKx0oF9st7ST+IXPz93gbe1DXUWeu6W1q/NT7zcFV0Vp+fFtF3uqjly3sWfJZy30NXDSiyZ+ZyFfd0znwQMcKIla0/q8kfCoj2seH9WnREtcHb7MmlpiKTrWHMmdRZByOjuaBwaoE5BBoUnoVn24lvacXd3ty4txt9+++2IiAjtQ5FYvCHjz+L4zcdPt6rYs2ePvn+dRGfuqvaYK9xPIoXJ0d/M+7oaC061m5Hm4cFrMw5hfxOcLbc19/vkC7ys2KhHJB/6Kd4by3pZJR6pfzQcSxsmp2GYj+sq3qkqTvNNpM5Cr7QjP87J7YE5USatTn7ZWP2HHFUPVg0PVt8bOi/K0WX6SwVvWKW6v6KVOoX5K+3I/z1thdA6i2lp3/zjQDGBGOxo/2Tx6bdgKSkp6enpk16pUChmz57d1HT6L4ZYKr2j4IyNAuW7v9v30F3ah25ubjKZTCqVTp1h06ZNW7duHf/MHYV1Ysk03wVm5vOLUvoa6sfGKK1MASueDDeiVm3OP4mqE0zqgTlR7FSdGIZB1YlNZR35V7mJ/hWTjKrTuYgY5ubAOW9FLxRy1ycnVctyJ+XjQc77F618bX6iSatOnYqRf1VhTxOrVjqpPlywCFUnHVlLJKucVdmyHOogZi7CPTqnp5M6BQBLbN091nz+nfbh8ePHRSJRQ0PDhMv8/f2trKzGV52sHJ0mVJ0YhglbfeWyl97WPuzs7LSwsHj++efPdXcHBweRSDSh6rSppAlVJ4BzQeHJcC+U5Xs44tgCmIRqqPYK30B27nW4Q8bOjWDMd8nLzmerYTyvLXX33pkorL0Pua25UkVDmt3wfbMcXpgXv8YngJ3q5BsVhbFeaKzLkuPNWQHiztU+s6iD8Myl3rO+TFoqwwmYJvZ7WzN1BAD2+MYvTH3wifHPBAQEiM40vuTEMEzMTbffcrJ40tnCL7/qojf+M/6ZJ554QiQSrVu3rrv7z83sN91009i0crl8/JUWtrZnF7MAYDxstTNQhbzvqpMH0FUHztbSW/pJ/GJHqYHnYuhlWKVac2I/Ogqzo6Atb0tEzEWeftRB+OS6zMMuDnOoU5jWyZasWCfXu0PmRjm6sL/JJau745aco/hlxI7hweqnImIDbO2pg/DVkEr1eHH2iIU/dRCzVdqRv3/RSuoUNLRb7dZ8uss3KYU2DLBJ3irbvjR++utEok3FjdNepVYq/zNfvw+PV/3rw+ALBfrvDhiG+fGWdY3pR8bGKK1MASueDFQ90I8X+jCpjxYsYqfqxDDMttpyVJ3YIR6p/y75AlSd9PXBgjTNsHl+BtjZVx4q7b7eU3r0vEs+WLAo2smV/aqTSqN5qRwHC7AhtzU31W5oW1waqk4zYSORvD4/KcqyjzqI2Ypwj6aOQE+Wj02dwmLv5b2ppCno/OVTXLPynQ90qToxDCOWSjeVNCXeef+0V0qsrFa8vW1TSROqTgC6wIon4ByVRjOgUhr2vX2jCoPvK1cq1YyB/xwUanWAjR07Z9hpbSnO6RZ7s3lHYXo8yBntnGZIpdE8WpQ1IOVx2a64/dTdIXOTXT19uHSCIQ4WYEG2LOehsPlXsrV7WiByejrvOnUCW0RN4V/hPsLsL65d8eS3MO3yT76mDQNUemqrdt9y3UB7K8MwEguL8558IfzytQbPlvPBuyfeeJGZ8GZZJJr/95sXP/bsDKOC2cCKJx2h8ATAS2Xy3msyDuHUMFPzYtqejMABAkag1mieKM7pkfCpPVaWLDvGyTXZ1TPZ1SPSwZmD7+T+UYp+LqbVJ698YV78LBs76iBmqLS/d2Ne+lyPGOog5maDt1Wcsxt1CgLawpOVo9O5mvgAGECtVJbt/rb0u6/6Guqv+Px7R3/0+IMzoPCkIxSeAHjp1txjljbB1CnMWbYs5+nIuJVePF6kwzVqjeaushbqFNM70ZIV7eiy0NXj1qBwCYcXDuT3dr3fMkydwmwda868LSj8juBwYS4eYUfdoPz23HRsGDeuQHHnQ2HzqVMQ0BaeGJF4U/HEo80AAEzk53/cVHvgt7ExSitTQI8nAF5C1cmk6ruLP084D1Un4xKLRKqhWuoUU6npKrrcVXN48cUfxy++IziCy1UnhmHeqCyijmDO/hObuml2BKpOJhVoa/9pwmLqFOZmX3uz4N/3CP4/AACwyM7dkzoCP6DwBMA/alTTTUmqaNiZuCTU3pE6iBl6PTqps6+cOsUZarqKvJi2lU6qp4Ndf05dfpGnn71USh1qegfaW+zsQqhTmK3BgapkVw/qFILgZWVT04USqjHNcZtfLu+lTkHA1dX1zxFeIwEAcA8PXl4DwHiDKuXq4/twco0pZMmyX4lKXOK+kDqI2bKTSL9MWiobHvq/7CNz3Ag2g2TJsm8PjjizZ5Mv+zFmaFdT7cF+S+oUZuhkS9Zj4TFX+gby8W8Ff/2curx+UH5TzlH8XjOWNyqK3o9LpU7Btjlz5pw8eZI6BQAATA4rngB45uO6Crw6N4WS9vyP4xcvccdBgSbnbW2zNTY1vy2PndulN2d29pXPkXav97Q4et4lNwfOmcvJTuE6GlKpttaUUqcwQ8Xtp7bFpeH0OhIBtvbvxabktuZQBzETOT2dI2oVdQq2zZ49mzoCAACcEwpPAHzSpRjZXl9JncIMNfeUfJ543lwHZ+ogQhFi5/BOtGlXlh1rzmzvKwuRdKUvufTLpKWbQ+clu3pYiHn/W+/TepSeTeLT+MXCPAuMI8Ltnd6KTj7RkkUdxBwk+cRn93RSp2BbcDB6XwIAcBfvX4IDCMon9ZUJ3vHUKcxNv7zy4/jFvta21EGEJc7ZLb050xQzj/Vs+j1txddJ5983J8pGIjHFXUh0o/RsGr3yygBbe+oUQpfk4r4lPIY6hZk40dlGHYFt4eHh1BEAQIgcZ2GttE5QeALgjZ5RxdeNNdQpzNC2BWnOFuiYQ+CJiFhjTVXYfspmtOl8B8Vjgc5PRsSu9pnlYWVtrMm5Y2tNWZzXAuoU5sZqtPHDBWnUKYBhGOYKbHU0kvQuwRWeAgPxlwcAgLvQXByANz6uq4j3xntOIwsQd1qJ0UiYxpW+ga3DpYUKww8QzJHlJLi43xMyNyRiFX/bNuluV1Ntiq87dQqz4qaWPR2VKBYJ4a8PTwzXMdaoIMxUhbyvQzHsbmmG9fdzCQoK0o77mxod/PzpsgAAwEQiDc4cBeCDt6uKy0fRgciYgiVdD8yJok4BDMMwb1UWVShdpr7mWHNmuL3TQlePZBePOGc3c9pAp6OmocEX6nqoU5iPUGn3vaHzqFPAJMrkveuzjiRiX/nMuKhlz88V1odVor8qyJd9/LV/MpYxAgAbcj947/jr/xwbo7QyBax4AuCHLxuqF2C5k/GESLruQ9WJMzaHzvtfS/3vvZP/SmroLk50cT+0eJXAd0R+VFfOMJ7UKcwHqk6cFW7vtCU85tde6hw8d6q3izoCGbmsiToCAACcAT2eAPgBVScjCpV2o+rENWt8ApxULdozrY42ZfiI2le7aJ4Odv0x5cInImIFXnVqHRn6oaWeOoX5CBAL7swvfrnMJ8BO2Uydgt/qB+U9owrqFDQ6SoqoIwAAwBmw4gmABwT72tFEsNKBm16YF//c3AVNw4MSRuQettpKLLjNdFP4pK5yoU8CdQoz4aFpfSgsjjoFTOOJiJirTh4IdZtPHYSvFvklFfV1p7l5UQch0FNbTR0BAADOgBVPADzwWX0VdQTz4cUI7qwfHpGIRAE2dn42tqg6jdepGNnVVEudwkw4qVqeioxDL3Huc5BaPBuJpb4zkt/XTR2BRi8KTwDAFqmNDXUEfkDhCYDrPquvKh11ok5hDrr7K16b4/VkRCx1EAA99IwqLk3/PckHjZaN4NU5ni/Mi0fViS8WunpUdxVSp+CxHQ0Crb/01tdSRwAAobB2nuZ4HBiDwhMAp6k1mp2NAn3haFx1XUX/jkkW4FFowHefN1ShxZtR1HQV2UrQYYBnHgmLpo7AY9Ge+KAFAAA4AYUnAE470N4S7IqGRDNV2H7qvbhUV0sr6iAA+pErlTuFumbBuHJkOW9HL6ROAXpb4u5tNdpInQIAAABmBIUnAE77vAHdnYzg/djUABs76hQAetvVVBPrhTbYM3WsOfOV+Ylz7B2pg4AhHg2LzpHlUKcAHli6dCl1BAAAmBwKTwDcVdLfY2cXQp2C9442ZUQ4oEkW8NKXjTXUEczBfaHzFgvybC/z4GFlfUtQGHUK4IFVq1ZRRwAAgMmh8ATAUe0jw3/POkKdgvdGBqtzLricOgWAgULcoqgj8FtDd/Erczz/LyCUOgjMyIagsFXOKuoUvNQ6MkQdgT3XXnstdQQAAJgcCk8AHPVVU02yTwJ1Cn4r7ch/cV6CRIQzrICXqgf6qSPw3tvRC+3QUNwsXOI9q7u/gjoF/1QJ6cdIQEAAdQQAAJgcCk8AHPVtUy11BH473pz1WlSih5U1dRAAA2Gf3cwF2zlQRwDjEDHMnbMjqVPwD+rXAADABSg8AXDUXI8Y6gj89mBYVJyzG3UKAAMNqJQ/yeqpU/Cbq1pGHQGMKdXNkzoC/9QItfDUcAzNCgAAOASFJwAwQ1ajjev8Z1OnADDc/5rr4rwWUKfgsZquoofDoqlTABAT1Fa78WoO/kYdAQAATkPhCYCL6gbl1BH4bUs41osBj2kY5ivss5uB9ObMF+fF20vR3cncoM2TvgS71a5i93fUEQBAEKydXagjl5gYNgAAIABJREFU8AMnXpO1jgy9W1XSKfamDgIwuX+GuDtbWLJ2O5VGc3PO0Qh3fFZvIEdVi6ulL3UKAMPdferELJe51Cn4qrW3NGPpagsxPlozQ58nnLf6+L4g13nUQXhjvmdsVndHgos7dRC2KQYGqCMAgCBIbWypI/AD/cuyg+0tq4/vQ9UJuIzlPt9HO1tRdTJYaUf+o+H4rwc81qEYPtrZSp2Cr9KbM5+JXICqk7kSi0TrZmEbtX6qBwW56Emjpk4AAACnEb8yy+jueLAwM9E7njYGwNQGVEo2b/d9cx2btzMzT0fGOUotqFMAGO5nWWOqbyJ1Cr66KXDOPEdn6hRgQlf4Bua25lCn4JOmoUHqCOwJCgoaG2g0GtIgAABwBsrCU+vI0EOFmQt9EggzAOgiycWDtXt1KUaOdGCxg4HcNa2L3byoUwDMyE+yBuoIPHZ7cDh1BDAtO4n0Mp8A6hR8Ihseoo7AnsDAwD9HKDwBAHAJZeHpoYKseTgwHvggkcXmCD/KGlJ8UY01xKnW3HtD0fgD+K1C3ufhiNKJ4azEEuoIYHJr/YKpI/CJbESQhScAAOASssLTHlmDvX0I1d0B9CIRidi5UUFfd+YgGtQZ6PB5F7PZAx7AFDblHaeOwFcZLdmPBWKTnSCE2Dkssh+mTsEbBb3dasEs/4mMjKSOAAAAk6ApPFXI+54tzSO5NYC+CtrY+7v6s6yRtXuZH9bqgwCmE+Y+nzoCX90cNMcPJ8sIxiov/xMtWdQp+CHFN6FTMUKdgiVxcXHUEQAAYBIEhacBlfKBwswENBQHnlju6cvOjTQMc6C9mZ17mR+rUdTsAISrtCP/xoA51CmAPc4Wlueho5/OWgWz2y48/PRW5f7mJsIkAAAwHtuFJw3DPFGc4++MdbDAGxd5+rFzo4LerlA3LHYwxMmWrM0hc6lTAMwUywdompN/zI60kaC7k7Cs9PKnjsAbrSNC2ZmoPdWOYRi5DB/mAQBwBduFp49qy0cs8EIBeKOgLS+Brc7i+9rwCslA6wNCA2ztqVMAzBR+CBimtbd0DY45E57F7ljxpKtOhVAKT+P11FRSRwAAgD+xWnha8scvOcN4cwh88mpUImudg6pUruzcyMyEW/Tcg+VOwH89o4qnS3KpU/BPd3/FNwsvEKPFm/DYSqTUEXijQt5HHYFAR0kRdQQAAPgTe4UnpUYd5RHD2u0AZo7N5U5gmCxZ9vpZOB8TzMGhDlmqbyJ1Cv65J2Quak6Cdaw5kzoCPwinufh43dVY8QQAwBXsFZ5eKi9g7V4ARrHc0xcHpXHcdbNCXCytqFMAGMF+7LMzyEJXD+oIQGaugzN1BH7oEmThqa+hjjoCAJg/B5/T51D19/cTJuE4llYp75Y1tGjw0hB4ZjlbbcUZoS6Dn6EsWfbzqRdRp2CVXDm6taa0Y2SkUzEiV45SxwGjUWk0FQN9ab5oVASgh4WuHuX4QagDYa546musp44AAMLS2dnp4OBAnYKj2Cg8lcv7nivNS/SOZ+FeAMZS2H4qMXwla7fb19bMMI6s3c48XOM/WzjLnTK7Oz6pqzjW1Zbmm8hIGSspI5T/54Lh6USdgId65ZUM4zv9dWCmklzcy9twFuT0ugVZeAIAAO4w+Va7fuXoffknUXUC3rnYy5/NfXb727HLRm83BoRSR2BD09DgLTlHP2lVMNaBaegBBDDOLYFzqCMApQXObhkt2dQpeECuUqo1GuoUAAAgXCYvPK05sT/QdZ6p7wJgRMebs54Kdn04bD5rd9zd0uDlFMHa7cyGqwCWO33VWPNCXY+17WzqIACcs9xJeb6HD3UKoGQlltyE4qMO0nwTZSND1ClYsnTpUuoIAAAwkcm32t0SGPZ1U0nD0IBUJLIQGa3O5WhhaaypGIaxFIutxRIjTuhoYWGsqcQikb3EaLMxDGMlEVsZ7/+sg9TCiIuCpGKxcU9HdpTq959OIhJ5W9s8O3uFG7sVjeNdbYwEb5/0091fYfZbbPbIGl4oO7XIL4k6CADnFLafeiNMWC3eYFLzHJ2LOtTUKXigb3TU15o6BCvWrFlz6NAh6hQAAHAGkxeerps1+7pZ+Kwe4Jw0DHO8q20uPrfX09X+wdQRTKu0v/fpkjxUnQAmtdYvyIgfogB/zXd0+bqjkzoFD/QL5jyKVatWbd68mToFAACcweRb7QBgamX9vXM9YqhT8Myp1tyVLJ45yL5Rtfrx4uwkH3THA5jE8easq/3MvPQMOnK1tKrsLKBOwQPCOQg1NFQQ/R8BAPgFhScAYie62qgj8M8a30BriTkvdviiocobbb8AzmGZp4+nlTB2DYEO5jm6UEfgAblSKMf/iVg8GQYAAHSEwhMApRG16t3qUuoUPDMwUPXAnCjqFKaVOWRHHQGAo2q6il6JwvGOcNol3rOoI/BA9+gIdQSWjC88NWeeJEwCAEJg72POmzCMCIUnAErZPZ3YTqWvi8x6kx3DMD2jCuoIANx1pW8g1jPAeMG29tQReGBYpaKOQKA5G4UnAGBPTU0NdQTuQuEJgNLxTuyz08+x5szlnmZ+mN0ndRXUEQC46zKfAOoIwC0BtnbpzZnUKbhuWC3EwlNL1gnqCAAAwDAoPAHQyuzuoI7AMwuc3TzMurdLl2JkZ2M1dQoA7kJ3J5hAKhL722B78jQEuuIpCyueAAA4AYUnADIjalW5vI86Bc+sMPd9dh/VVSR4Y/clAIAevKxsqCNw3YggVzxpBPn/GgCAg1B4AiCzs6E6xTeBOgWfKIZqrvE35zPUXyrPr1G5UqcA4C4nVQt1BOCiMHtH6ghcNyjIFU8atYY6AgAAMAwKTwCECvq6qSPwzIUe5tzdqXVkaFdTLXUKAE5b5e1PHQG4yM3SijoC16k1AirBBAYGjg2w4gkAgCNQeAIgk9+LwpN+Utw8qSOY0H9ryhb6YAUcwDnlt+WluHpQpwAuckHhaTpqRkCFp4CAv44gEFK5DQDI1dbWUkfgLhSeAMiEuc+njsAzAebbPrZ5ePB/LfXUKQA4bYm7t1SE1y0wCUepBXUErhPUiqfThScAAOAGvIADAKD3fk1ZMpY7AUzpAg8f6gjAUY4WltQRuE5AZadxW+0AAIAjUHgCAKD3I5Y7AUwpU5ad4mrOm21hJrDiaVqCWvEUHGzO55AAAPARCk8ANFRCegloFG29ZdQRTKV+UJ7qm0idAoDTHguPsZFIqFMAR/nZ2FJH4DoRdQA2ofAEAMA1KDwB0KgdlFNH4Jlk820q/FFdBXUEAE472pSRhuVOcG52Eumx5kzqFJwmFQvoNf/s2bO1Y3lLM2ESABCUmpoa6gjcJaBfQgCcUj3QTx2BZxJc3KkjmETryNBuWQN1CgBOC7N38rCypk4B3CUWiewkUuoUnCaoxvzjVzzJZSg8AQDQE9AvIQBOqRzoo47AM3MdnKkjmMQndZVoKw4wtTQ3LHeCaThaoM3TVCQiQW22Ow2FJwAALkDhCYBGDVY86aOkPd8s1zv0jCq+b66jTgHAdaluXtQRgOsc0F98SlLBFp6w1Q4AgANQeAIgoNJoDrS3UKfgk7V+QdQRjE+uVF6S/nu89wLqIACcphiqSTLTnbZgRII6tc0A1kLtzd/bgE93AIAljY2N1BG4C4UnAAINQwMLsbtKH3MdzXCf3ZeN1bFecdQpALgu0RlVJ5heh2KEOgKn2Qq1B9ZAq4w6AgAIhUqloo7AXSg8ARCowj47PUWaXYOnEbVqZ2M1dQoAHkjEcieYjlqj6RlVUKfgNBuhrnga7GynjgAAACg8AVCoRmdxfRS3n/I0uwZP3zbVRbhHU6cA4IF5ji7UEYDrekYVab6J1Ck4zUaoK56GuzupIwCAUKjVauoI3IXCEwCB6gE5dQQ+CbN3oo5gfJ/WV1BHAOAHSzFeq8A0urDPbjqC3WrX11BPHQEAhKK+Hj9wzgkv5gAIHO5AZ3E9pLh6UEcwMrVGE+o2nzoFAICZKJdjHfE03CytqCMAAIBwofAEwDa5cjTOCweZ6cHfxo46gpH93obTnQEAjKZ7FCuepmEn1BVPAAAmJxKN/a9SqaQNwmX4JWTmOhTDw+iuPyV7qYWzhSWbd2wdGWbzdmbAzApPGob5sK7cwzGcOggADxS1n2IifKlTANd1KkYYxoY6Bac5sftSBwBAgJqb8dHyOaHwZJ7aR4Y/qqv4SdYQ7RlLnYXrjjZlpLh5/ic2lbU7tg4PsXYv8+BvY0sdwZiOdbai6gSgo1A7B+oIwAONQwOM1NwOPzUulj9jI7dkyZLDhw9TpwAAgD9hq515uuLE/nq1G6pOuljklySxDmLzjrIRFJ70UNCWZy+1oE5hTNtqy6kjAPDGbDtH6gjAA3WDA9QRuE5oK54WL15MHQEAhEIk+rOo0tKCNr7nhMKTGTrSIYvxiqNOwTN9ylHW7tWKwpM+zGyfXV5vl71dCHUKAN6YbWdPHQG4TsMw9YM4K3YqWbJsnA4JAGBqIyNoOHhO+CVkbp4ozvmqQ02dgn/YfM16qqeLtXuZgfmOLtQRjKZuUH5j9h/UKQD45Dx3b+oIwHXZ3R0LvHFkx1QCbQVXwF2yZAl1BAAQDBF1AD5A4cmslMl7d8saqFPwkiuLxwxjxZNezKktxaf1lWm+idQpAHjjWHOmlxU6RsM06rDcaTrultbUEdg2f/586ggAIBQiESpP00Phyay8XlGIt7WGcbVA4YmjHC3MpMFTl2JkdwvqwgB68LKyluDFHEynbggNnqbhaSW4wpOLi/kslwYAMAMoPJmPQx0yC5tg6hR8ZS2RsHMjuXI0zgs7AvRgNiuedjRWJ/nEU6cA4BMfa7M60RJMBCuepuUhvMKTGD2tAIA1IvzAmR7+G5mPNyuLqCPA9LoU6DmnH7M5iOfrxhrqCAA8I8D9QWAAFJ6m5YktqwAAQAqFJzPRrxz1d46kTgHTaxoepI7AM0Fm0RJVrdHM94ylTgHAM8E40g6mk9Hd4YfXP9Mxp2M6dISWKwDAGr/EhdQReACFJzOxraaMOgLoRK5UUkfgGfPYavd7WzN1BAD+MZsFj2A6hX3d1BF4QIBb7cZTq1TUEQAAhA6FJ3PQNDS4o7GaOgXopF85Sh2BZ1hrv2VS2+srqSMA8I+D1EzOFgDTQeFpWlmybDaP7uWI8T2eWnOzCJMAgNnzSUihjsADUuoAYARvVhYt9EmgTgE66VeOMgzeSulBwv92fZndHc4Oc6hTAPCPldgc6s5gUvm9XeHu/tQpOM3fxg67zgAA2LFx40aGYRISEhISEuzt7d3c3JydnalDcQIKT7yX39v1e1vTIj8/6iCgEzlWPOnjWHOmKOJy6hQz9Wl9JWMVQJ0CgH/MY8EjmE77yHC4ezR1Cq7zE+TpkON7PDXnZPgkoAMLAJiK77ifMP/5z38mvcbS0jI2Nnb9+vV33nknW7m4hfdLCQRub2vj+y3Di/ySqIOArmTDQ9QR+MSS/8chP1WSq0HVCcAg9hJ8PAZTQZ8BXSx09aCOwAaVSiU/E3UiABAKqfX0J4cqFIqMjIy77rpL9Jd33nlnYGCAhXgcwfs3dUKmUKvfqiymTgH6wYonvUh5fipN+8jwHlkDdQoAvtJQBwCOy+3ppI7AA/42dtQRjGznzp0rVqwICwsTjSOVSh3ORB0TAITCc36MAd91zz332Nvbi8Xiv/3tb0aPxEH4LJHH9rY2hrhFUacwBydbspiIy9i5V79y1ArHNOmM7w2edjRWo/8agME0KD3BlPJ7u1PMrahifIG29tQRZqqoqOiee+7Zv3+/Yd8uyz7JMHcZNxIAwKQGTn06fqtvXkntx98eOppdVtvUPjSsOPt6jUbz3XffjX3LoUOHlixZwl5WdqHwxGOZ3R2M2Js6hTlY4cVeh6wBlVJwR8vMgJjPK56GVKpvGmtivOKogwDwlUqDwhNMJcUXlf1pnGzJmhW+mjqFgV588cWXX365t7eXOggAgIFiI4Pe3nKj9mGffOhIZsmmpz/s6O4/++KlS5cyDLNu3bodO3awFZA9KDzx2Cov/7vzT2A9xQx19JW/EJfK2u3wPkovvN5qt7ulHlUngJlQ4wcmwMwE2tpL+Pab9MCBA8uXL1er1dNe6eHq4OHqFOTnnhgd6u3uFBsZpP1Sn3xoxc0vmDAlAID+HO1tLj1/waXnL2AYRq1WX3//v3/YnzXhmp07d+7cufPWW299//33RXz7AT4FFJ54LNXN8/e0FRUD/WMvzVUa9YBKOe13DSiVU9c+lBr1oEo17Txy5ejUbwlGNeohXeeZ6gKFWjWsnn6efuXotO9Q+s7sr+RpZb3Uw+fv4edJWdzPhbdRehnV4XUnZ33RWO3vHEmdAoDHdPklAgBTCLFzpI6gh1WrVu3du3eKCy5Iidqy8YqI2b7OjnrssWwtODXjaAAAOsktrl0wL1iXK8Vi8c4372YYprWz9/8efPePrNLxX922bdu2bduef/75xx9/3CRBWYfCE7+5WFolWWLnFp8oNTyupLCvj8+92FF1ApihdsUwdQTgrk/qKxnGljoF1y339KWOMD2FQpGUlHTq1OTloflhsz745+3zww0/H1alGDH4ewEA9NLTp/dBdV5uTr9+9BjDMM+9991L7/9v/DKFLVu2bNmyRSaTeXl5GTEkCX437gUA85bmm8jTRU+1gzjIGWCmBpTTL+MFwUrvbKWOwAOz7bh+uNuFF15oZWV1dtVp9izPgp9eHczffnLXP2dSdQIAYFN6brnB3/vEpisHTm3/8s27Jzzv7e19ww03zCwXPRSeAFiFHk/60mUDKQd93lBFHQGA9zqxTgHOYUClzOnppE7BA0EcPtLuhx9+EIlEZ59V98zdVw3mby/c81pIAO8/4QcAoZmwY84Aly1LGMzffuvVF4x/cvv27dbW1io+tyDAVjsAVqHspK+eUYWzhSV1Cv30K0d/ammI9/agDgLAbyg8wbnsb2vG4Sq64GxncVdX1+7u7glPHt35jI69UQAAuCmvpM4o87y95cZXHrred9HGoWHF2DMjIyNSqVTD20UMWPEEwCr+/rCg0jOqoI6gt2+b6+K9F1CnAOC9TvR4gnPYI2ukjgAGOnz4sEgkmlB12vnm3YP521F1AgC+6x8YMtZUVpYWnRkfvPf0LeOfFIlE/f39xroFm1B4AmCVEoUnPVUP8Oxn6/72lsxB9LsFMIL83m78xISzfVZfJbUJok4Bhli3bt3SpUvHP3P9ZYsG87dfvgzr1wAAJnHjlUs6Mj4Y/4yjI5+OK9VC4QkAOE02bLTPDdjxBbo7ARhJkk98xwgWPcFEe2QN1BH44XhzFnWEM0RGRn755Zfah1aWFt1ZH257/jbCSAAA3GdrbTmYv10iOV26EYlEar6dv4TCEwCrpFzttsBZLcOD1BH0UCHvs7GdTZ0CwHw0DOl9LDGYt9pBuZtjGHUKfgiz59Cn4uHh4aWlp3vurlgc0531oZWlBWEkAABjsff2MfUterM/Gl97cnJyMvUdjQuFJwBW2UjQ0V8//Co8fVZfSR0BwKyg8AQTYLmT7mKdXakj/GnNmjXl5aePGH/j0fXfv3s/YR4AAOOydnU39S3EYnF/7ifah3K5fO3ataa+qRGh8ATAKlsUnvTUxJ/CU5di5JfWJuoUAGaFd13ewKTUGg3aiusu1okThaevvvrqhx9+0D788s2771i3nDAPAIDRWTmytP5Ilv6+drxr1y6ZTMbOfWcOhScAVrlYWlJH4JnZrlGl/b3UKXRyS87RJJ946hQAZgXLW2C823LTg13nUafgh7KO/JVe/tQpGLlcfu2112ofvr3lhsvQRxwAzI6TfwA7N3K0t9n6zAbtQx8fk2/xMxYUngBYhRVPBuDLkgdf50jqCADmJtw9mjoCcEhmdzt1BN6Ic3ajjsAwDOPi4qId//3yxbdevYwwDACAiTjMYqnwxDDMDVecZ2N9einDrl27WLv1TKDwBMAqG4mEOgL/VA70UUcAAAB6i/ySqCPwBhf22T344INKpXJs7OZs/9/nbqXNAwBgIg4+fmzervnoVu14/KpSLkPhCYBVaC5ugBKebLUDAADT6VaMUEfgk4UuHtQRmNdee007rjv0b6oYvvGoVwKAadmzW3iysrRYGBM6NlapVJWVPDjdCIUnAFZhxZMBivq6qSNMb1Stpo4AAGDOvm6qpY7AG0Xtp0LsHWkzpKSkaMcfv7RRLGb1TYdarWHzdgAgcHaeXtpxXXMHC3c8+NmT2vGG/2fvzuOjqu/9j5+ZSTLZ9z0EAiGQsCQEkrAvCq5VW611uVrEpVap+1Zba3+21161WnfBWndr695aq1bcAFmzEPawJSEh+072bWZ+f4w9hJAESCbzOXPm9Xz08bjfc5jMeZdLA3nPd7nhhiFeqREUT4BTMeNpGKZHzijv0PrZdpWuc/oe4FqsNn6AhNJjtb5XXiydwmVkhYQbpDNs2bJFHV9+/twhXjkabHzfAOBEvhGR6vhIpTOKp77WrVvn5CcOA8UT4FThXmbpCC7pzVKtzyCtYw0IMDpe1/z//DHaeqzWi7Z8lcxO86fslsQpsgG+/vprdfzXJ25xfoC+hXX4VP7kABhdnj6+6ri6zkmbhFz9wwXOeZBDUDwBThVK8TQs2Zo/ySjQw1M6AqBPmxtqpCNA2HvlxRNCp0mncBmH6neN9fGTzXDZZZep40vOFthiqe+MJw9vH+cHAOC2nFY8zZo6wTkPcgiKJ8Cpwr28pSO4pKK2lgZtTykaI/2vfECvtjc1dFkt0ikgpsNiefnwAekUrmRBWNTJXzTKGhoaZANsyNuvjk2eXkO8EgAcq8oRxZPNZvNNXW7/z2Cv2ZTvSn85UjwBThVuZsbTcCyIy8ppdPZ66dPizbbxwOjIipm1pUHrcx4xet4+UjglIk06hStZFB4tHeGYqy6SWQmyIXefOo6aPkMkAwD3VFXXNPI3qag5drZSWNbAe4e///mWAe9rE8UT4FShnuaNFTnSKVzSxvpq6QgAZHxbWykdATJaenveYJOv07G1MjczJFw6xTFDLDl57aO1vqnLz7/h0dF47pv/XK+OjV7MeALgPCXlDvi0LCYiRB13dHb7pi5/9s3P+77grv97Ux3/5Cc/GfkTRxvFE+BURoNhkvQJxy6q3qihj3AH9GBCSGH9bukUgA7VGqK2NdVLp4CAZRv+kxrJdJXTcNfEab5aOj/3q027Bry/ZsOOXzz0qqIoa7P3Fh1x/AdLfScLRKWmO/z9AWAwpRUOWKVhNBqOrH+h7537n/i7b+rycYt/0dHVPXHZ7S++85X6S+++++7InzjaKJ4AZwtjmyedivb2eSNjYWtroXQQQIc+qy6TjgABGdGzpCO4mEXh8hs8KYoye/ZsdZy9s/+ctSvueOZHK/+kXpq9OJ0DgOszGOz/t8QRxZOiKGHBATVbXjL+923tahtbwjJv6NutP/fcc4bjX6NNFE+As4VzsJ1+RZl9Xpu14NwgS+XRfSd/NYBT9kV1ebfVKp0CTsWBhsOgkZMuPv/82JKQJVf/fu+h74vj8Wfe6pu6/F/f5Km/mp6SEBcV6tind3b1OPYNAeCkRqP98ff1bt3xxgM3XzzYC2699dZbbrnF4c8dDRRPgLOFm5nxNEx7mh2wV99oMxoMF8bEfzT7zDm+HT495fXNB3bX7thWtU06F+DaUiNnsNGbW+m2Wh/Zv1M6BYYpJCRk4cKF6mXGJb+2n83Ub8unxVkpG9/9vWMfbbPZJiy91bHvCQAn16d48k1d/rvnPnDUGz9w88XtO9987ZGbfL2P27Fu/fr1zz77rKOeMtoMNptNOgPgXt4+UripzUc6hUuaYGq4O2madAo4zJnf/SclIlU6BVyGuafsyelZ0ingJKuL9u3uZkvE0/ZCcqx0hGOG/vx/2z8fTZ7g4LSxC25qam7vd3NlQbljnwIAJ3rv4rPr9u3pd/Ofq+45e4Ej/63rm7rcPrj66qvfeustB77zaGPGE+BsUwKCpSO4qiJL6HdMedCL98qLaZ1wWro8x7xUvF86BZzhxvyNtE7DkOw56BFyImw229y5c0+8/5eHb2zf+aYDW6fbHn7dPqPqxNYJAJwjeMLEE2/+aOUT4bN/1muxOPxxy5cvd/h7jiqKJ8DZ4n01sf+Ci/qo/LB0BDhAaUfbkwf7fygEnNQHFYelI2DUfVZV5ukzXjqFS1oWGSMdob9NmzY99thj6mVL/uvtO9+86qIFjnr/H618wjd1+cvvfeOoNwSA4QlJTBrwfntHV2D6te99tnnkj3jzH+vV8ZQpU0b+hs5E8QQ4W7iXNzv+DNvauqrark7pFBiRXpv1/t25s6JnSgeB60kKmy4dAaOrsrPj//bvkE7hkkob96Zockr1/Pnz1bHJ5LAfPTZvP+ibunzNhv4bgXl7e3/88ceLFy921IMA4FTEZcxRxzab7Zprrun7qyvuXx2WeX1tQ/NIHvHw6n8ce1xc3EjeyvkongABTHoatnmxmf+oKJFOgRF5vrAgJGDgD4UAuLkH9+alRaVLp3BJF0THS0cYWN+P5R3ymb+iKKkX3Lt0+f/2u/nggw/abLaOjo6LLrpo5052pgfgVLFZx60sfv311y3Hr7Dr6OoZt+SWiNk/G977d/f0llXV28djx44d3psIongCBIz18ZeO4ML+VlbUZXX8Smk4x7am+tdLD0mngAvb1lQvHQGjyOw7QTqCS9pQnv2D6DHSKQYWEhKijv/Q5+P64fn4q1zf1OWHSo/b8PGVV16x2Wy///2xA/IaGxtH+CAAGCGj0Wiz2e65556+N9s6unxTly/6n4e6untO691SzrtbHX/55ZeOiehEnGoHCHi2cO/+Hi3Oh3cVZwf1/jDG9Zp+tPb2XLr128QwjibE8Bm7Sp9Lm3Py18EFbT/a8JdKFlMPR2tr4RsZC6VTDComJqaqqso+bt/55vCnKXGWAAAgAElEQVTepKu7JyTj+n43g4ODB+yY+h6ox6l2AJxjVcr3y99O7FgGO+Vz/5qn4qPDTvrOP771yc/XbVcvXbHDYcYTIGBBWJR0BNe25qjHuroq6RQ4bb88VEvrhBGymsfeumOLdAo43i9359I6Dc+Wytxn02ZLpxhK3zO/V9y/+nS/vK6xJX7RyhNbp23btjGzCYAGrVu3rt8dm822f/8AJ/NOPvtO39Tl86/47debdw/4Vk3NbYlLb+vbOpWVlTkwqtN4SAcA3FG8j5+idEmncG2ri/YtDo+WToHTUNXZIR0BOmE1j93d3DgtMOTkL4WL+KiipNUjVjqFqzojPCbI00s6xVCWLVumjt/7bPP/u+XH48dEnsoXllc3JJ11x4n3zzrrrDVr1pzKOwTGjzvFkADgKGvXrj3xiINJkybZbLby8vL4+Ph+U5by9x6+8Od/PJV3/t3vfudy24rbMeMJEBBu9s7jYLuRCQucJB0Bp8Fis/1yd650CujH84UF0hHgMPlN9ZxkNxI/jnOBbuXjjz9Wx1PPv+eld78e4sU1Dc0/ved539TlJ7ZOiYmJFovlFFsnRVF8wsJPNyoAjNCJM55UcXFxVqu1sLBw8uTJp/u2jz322G9/+9uRRRPDHk+AjCuy11KdjNDzybEDr5aG9jxfVFDQHSSdArpyZYSJZcs6UNHZflXOuikRadJBXFVRw+5P555lHGT3EE0ZP3784cOH+9658MxZbz3+C/vWJzab7TdPv/v8W18M9uUeHh7d3d2D7ZPSj/qy8Weec94Lrw4/NACcMnWPJ6PR2O9Iu8G8++67V1111UlfbDKZent7R5pPFDOeABnJAfwQPlJfVLNdqGvIbax7+fAB6RTQm8cP7u61WaVTYKRu27GF1mkkfhyb4BKtk6IoxcXF0dHHrZH/5Ju84FnXBc28NmjmtcGzrhusdZo8eXJ9fX1PT88ptk59sdQOgPOd+uSeyy+/vLe312az5efn33fffSkpKX1/NTw8/N57721paXH11klhxhMgJb+p/uUqtnkaqUzf9hVjJ0qnwKBsinL7ji0WM0cQYlTsrNn+3aLzpVNg+DjjdeReSHaxvbEuu+yy999//1ReaTQa77nnnscee2wYT1Erqnn3PTjj2puG8Q4AcLrUGU8Gg8Fq5bOx4zDjCZAxmRlPjvBS8f66bk5B0q6/lhbSOmH0pEbOkI6A4ft31ZFXmAvpft57772enp6VK1cO9oIxY8Y888wzPT09FotleK1TX/7RLlbMAYAuUTwBMnxNnCnpAOlR6X86uEc6BQb1dCH/38Ho2tJQKx0Bw7G5oeahgvwFcVnSQVxbaeNe6QjD4eHh8cILL9gGceTIkdtuu83DY/j/TOq7noPiCYDTBMTFS0fQLoonAK6t2RSzlZ88Nam+u2tOTIZ0Cujcw/t3dJ7a/p3QjpzGutt2bJ3N94cR+2l8onQELTp48KA6pngC4DSBY74vntjO6EQUTwBc3sP7d3RZ+clTW3pt1rt3ZUungP6NC5nCxDqXc9uOLVkxs6RTuLzt1fkXxrCWeQClpaXq2D+G4gmAkwTE8T15UBRPAFze2JAps9f+WzoFjvmk6sjt+6v8/PgoHs5wxBp+9sYvWnp7pIPg5IraWhZ/9/nM6JnSQVzexoqc92ef4WMySQfRokOHDklHAOCOaLqHQPEEiClu4FN6h5kfm9nBchttWFdX9f/25kungHtJCpv+UAF/6rSusrPj5u2bpkWkSQfRg7MjY2O9faVTaFRJSYl0BADuyD8qWjqCdlE8AWJmBodJR9CVRw/slI4ARVGU+3bnzI1l6xY4W6fnmL+XFUmnwKCK21pW5K2fGDZdOohOXDsuSTqCdhUXF0tHAOCOzIGcWj4oiidADMWTY9UZoj6pOiKdwt3tbz2aEc3WLZDxp4O7pSNgYHtbmlZs20Dr5CiWjsMpAcHSKbSrrKxMOgIAd+QTHqGOLSzFOB7FEyBmFsWToz28b3tRW4t0CvdV2t56U/4m6RRwX7NjMpp6uqVTYADX521ghZ0DMd1paMdOtTPwkw4A5wmIjlPHNOD98O0YEDPO17+gltVhjpQRPeue3Tltll7pIO6osrPjhvyNU/jZEqLu2pXda7NKp8BxvqqpYDdxB2psOTg7NOLkr3NjNTU19oHByE86AJwnIG6MOmazuX74dgxIuj6BDy0dLCYo+b6DNdIp3Et5R/t5m9Y8fLgxiXU0kObjO+H2/VV/PVIoHQSKoigvHz6Q9vU//9EgnUNf/pqxSDqCy6B4AiCF4qkfvh0DkmYFh0tH0KdP2ezJiZbnrZ8QOk06BXDM4wd2seObrG6r9aGC/PxO/wVxWdJZ9MZoMEhHcBkeZrN0BABuiuKpH4onQNIk/8Dt1RwB7ngP7s3f1MC8J2coamtJDk+VTgEcZ0Fc1kMF+Zv5JiDnum0bag1R0il0qOroPukIrmTckmXSEQC4qdraWukI2kLxBEgyGgwZIUx6cry5sRn37Mre13JUOojO7W1pWpH3nXQK11Z1dN/GihzpFDo0Jybj7l38xsrYcbQhyH+idAp9umVCinQEVxKXNVc6AgA31dzcLB1BWyieAGELw/hMeFSkR81cuX1zSXurdBDd2lBffV3ehumRM6SDuLbbEqdM9g+STqFP6VHpe5qbpFO4nX9XHblh20bpFPpU13xgSUSMdAqts9ls6nj80nMFkwBwZyy168fQ97szABE/2fptZNBk6RS6dbB+15r550in0JXVRft2dwdKp9CJF5JjcxvrXqvulg6iW7trd7w4Y25KQLB0EJ2r6eq8b3eOn1+idBDdam8rfG3WQukULsBqtZpMJvt4ZUG5bBgA7mZVSpx9MH78+KKiItkwmsKMJ0DewnAmPY2ipLDppcx7cpxuq5XWyVFaWwsVRZkZHLandod0Ft2aFpF2bd6GrQ1stTC6Lt36Da3T6NlQnn3HxKnSKVwDn6kD0ILycorv41A8AfJYbTfaVuRtONDKQmsHqO3q/BmLaBznlsQURVGMBsOS8GjpLHo2K3rmrTu3bKivlg6iT+2W3ocK8ll1O6qWRcamBYVKp3AN69atk44AAEp3N5PZj0PxBMhLCwrdVbNdOoWepUSkXpf33Y6jDdJBXFteU/0VOWv9/ZnU4BjdHcWZ/z1bYGlkrGwY3cuMnnXrji3SKXRod3Pj5dlrOcBuVG2uyL09cYp0CpdB8QQAGkTxBMgzGgzzwiKlU+hcWlT69ds2fFZVJh3EVX1Qfvhn2zYmh6dKB9GJDeXZdyQeWzgzOyQiv3qbYB53MC8287EDu6wsw3EQm6K8faTwmrzvxobQiYyun8QljPX1l07hMr788kvpCACA/thcHNCEoz3dvy6sk07hLp6cFGU2mqRTuIwDrc3PlLFJliNlV+Z9PHdprLdv35tfVJf/q9EgFcmtlDUVPDU9a4JfgHQQV2Wx2d4pK9rU5iMdxF28kMyMyNNgMBz7Rsrm4gCc7N0fLavfX2Af07T0xYwnQBOCPL2kI7iRn+auL+tok07hAqw226slB/8nZ610EL25Kn5Cv9ZJUZSF4VHZlXkiedzNmOCUq3JYjDNM+1qOXp27jtbJacqaCqQjAABOlXcQp+gOjOIJgNuJCJx8Zc46dhoeWkl76/K87/I6/GbHZEhn0ZvrEyadeNPX5MEBl04zM3rmEwd3d1ut0kFcSWtv7yP7d16RszY0YIA/wBgl9yVNk47gqoyentIRALid2Kx50hE0iuIJ0IrcKiY7OE9q5IxfbN/8+33bOy0W6Sxa9EH54cuyvw3ynygdRJ8CPAb+cejC6HgnJ3FnxZbQy7O/5bzLU3fJ1q/LbOHzYzOlg7gRU1fpfM69Ha7QiTSkAJwtLnOudASNongCtGJxeIx0BPeyIC6rWom8OpcVN/2VtLd+2+KVET1LOog+lTTuHeyXmPHkZLHBKVflrPt7WRE7jg+tvKP9th1bksKmSwdxL1src++ZxO/58IUlpUhHAAB8j+IJ0Irzo8dIR3BHUUHJLx8+0GtjxY2iKEqHxfJs4d5Ltn4jHUTPfjn4T5IeBv5SdrasmFkbWr1X5H0nHUSjmnt7nj6050dbvraYx0pncTsrxiWN9fGTTuHCQpKY8QTA2WKzmPE0ME61AzTkoYL8WgNTHmRsqsi5YsyElROSB1sGpW835m/09BkvnULnsivz/jlnaZxP/23F+7pk6zcxQclOi4S+Shv33jdp+kJWNimKoijr6qreq6ORF3NFhIk/isOjnmq37I/PTbrwEtkwANzQqpQ4+4CmpS8+XAU05LwoJj2JmRebWWoNO3/Tl+626Kays+P3+7bTOjnBdQlJQ7dOiqJcwDZPcsaGTHmn1nLHzq3lHe3SWSTlN9Vfnbue1kkWrdPwWPucGBAQx7dTANAKiidAQzJDwg/W75JO4dZSI2dckbN2U32NdBBnqO7qeHjfjgs2f1mtREpn0b/ihj3XjUs66csuiI7fVJHjhDwYTI9X/A+3fNXQ3SUdRMbtO7e+XNXFwQKytlfnS0dwVaWlperYPzpWMAkAoC+KJ0BDjAbDj2MTpFO4u4jAyW/X9q7I+y6/qV46yyh67MCuCzZ9ValEzInJkM7iFn45abrZaDrpyyLN3kvCo52QB0OYHZNx/qYvXygqaO3tkc7iPLmNdTflb+r1YpKIvNsnTpGO4KoKCgrUcUBsnGASAFi/fr10BA2heAK05ZLYcZsrcqVTQPHzS3y5quvn+Zukgzje/taj/68gv9QalhXDuXVOYuwqXXzKddKV8RNGNQxOxazomXu7g87a8MVjB3bVdnVKxxld+U31N2zb+Fp1t8knQToLlK72op/EsfZ5mPbs2SMdAQAwAA/pAACOE2H2XjVj7ls1bvQxu5Z5+CT8Yl+FoigH63ddGptwSdy4cC9v6VDD0dDd9WlV2ZZ2n++v2cPeuZ5Lm3PqL84KiShqK/qu1SX/pOnMzOiZpVbloeKGjRU5WSHhl8YlnBkRo4/DB0vbWz+qKPmwoiQ1coaiKGZfmg5NWOjfeUXyAukULqy4uFg6AgB8b926dYsWLZJOoRV6+McToDOzQyNKGvdKp8BxksKm7+gKOHvDmvV1VRbX2X28w2L5tOrIyu2bl274z7HWCc7V2lp4ul9yYczY/OptoxEGwzM/NtPTZ/zHDYZzNq5ZVbRPOs6I/Ke6/Of5my7c/NXB3hB76wSN6Ggvuoy5TiOzb59r/88TgJ60trZKR9AQA4f8ARr0Rumh7PaTnH4FKbtrd5wbGfeD6DGpQaHSWQbVY7Vubay9e1d2RjTr6SRtrcx9N+uMRL+A0/3CR/bvLLOFj0YkjJy1s+TcqLilETH+Hp7SWU6V1WbLa6r/pLK03sgmYlqUW5X3wewz4338pIO4tvHjxx8+fNg+XllQLpoFgJtalfL9BnPLli378ssvZcNoB8UToEVNPd0PFNZJp8BJBFsqF0dELwyL9jGdfNNo56jr7txcX7uurmpTQ016VLp0HCjTzM03j08exhcWt7X8aMvXC+KyHB4JjrK1MndBWNS5UWPOjdL0Hsa7mxu/qqn4rLosKWy6dBYMapF/1+VjmO40UgaD4fuB0XjzniOyYQC4J7V4io+P73vUppujeAI0yr61ELQvtypvZnD47JDw5WMnGv/7T14nO9rTvau5cWtDbZFFu5Ow3FBFU8F7WWd4Goe5qv0X2zcr3uMcGwmjwdxTtiAsan5YZJRZQwtau6yWrQ21a+uqqpVI6Sw4ueeTY2X+/tCXY8WTyePm3SWyYQC4J7V48vT07O7ulg2jHRRPgEbdtH2TyTtBOgWGr6u9KMEvINEvIN7HL8rsk+QfOMI3rO/uKmlvXV9XVdLeeri9tbSjbU5MhkOiYjRM82q+ecJw5jr1RQHtirZW5k4JCE4NCp0RFLosMtYJT+y0WPa3Hs1vqs9rqt/WVD+D2Y6u5ifhxiWnfPAlhqAWT0ZPz5t2HhbNAsBNqcWTh4dHTw8HRn2P4gnQqJzGuter6cj1Y2tlboTZO9LLJ8Lsbf+P2Wg0G03+Hp5mo9HH5GFVbK293//l1NzT02rpbejqbOzpLm5vbezuquvuZLcmF9LQcuCtjEUjP/6M4snVFdbvnhIYPN43IMk/IME3IDkgyFHvXNvVebCteX/L0X0tR7+oKZ8fm+mod4aTRSk1v01ml3fHUIunMXMXXvTqO7JhALgniqcBUTwB2rU8d32A/0TpFABO251j/CeOeI6boiiXZ68ND5w08veBRpQ07Bnj6xfh5R3j7RtuNqcGhgZ6evp7ePqaTIPVlO2W3qM9PUd7ug+3t1Z3dVR0tJd3tpd3tMUGpzg5PEZDaePe97LO0M5Gga5OLZ6ybrs34+Y7ZMMAcE9q8WQymXp7e2XDaIeHdAAAg1oxLunDeqphwPU4pHVSFOWGhEn/bHDIO0ETxoVOVRSlQVEauhWlW1nX0qb+0uaK3Eizt7pPXGtvj9Vm67Ba+qyoNSiKr6L4KmYl1uzs5BgN2ZV5b2UsonUaDbEZc6QjAHB3TPHpi+IJ0K4zImKeK/yaj7UB19LaVqgojtnZZ2lEzKqib/gm4A7mxrJlm9u5d9I0B66+RF+xmRRPAKAhI91+AsDoMSjKteOSpFMAOA3bq/Mfmeqw3biMBsN1CSy1A3TIt7f8srjx0ikAAA4WEDdGOoIWUTwBmnZRzNhF/l3SKQCckmilZuPiH8R6+zrwPS+Mjr8snL+sAV3ZWpn7+DT2g3ewsrIy6QgAgIHxb1lA634cN66kYY90CgAnUdFUcG/S9NF458Xh0a2thaPxzgBE3DdpVL5XuLkNGzZIRwAAJSAu3j6wWq2ySTSF4gnQOg+D8ZZEdngBNC27Mu+xaZneo7ZJ8B0Tp4zSOwNwsmBLJYvsRsPXX38tHQEAMDCKJ8AFnBPFUmFA0+6fNH2Sg06yG1B6cJixq3T03h+Ac9Q27/9tygzpFPr03XffSUcAAAyM4glwAQbpAACG9uO4hNF+xG2JTHoCXNvOmu1PTZ9tNo7W1Eg3t3//fukIAKAExsZLR9AiiifANdwa57exIkc6BYD+tlVtuzs+wAkPSvIPzK/e5oQHARgNGT5t3y06P87HkYcPAADgEiieANeQHBB0VmSsdAoAx9lQnv2/U2ZO8HNG8aQoys/HJzvnQQAc7tpxSdIRAACQQfEEuIxbE6dsrcyVTgHgmJ+PT17mxEb46vjEqqP7nPY4AI7S0npIOoIbCRrH3u0AxJiDg6UjaBHFE+Ayxvr4XTOWz0sBrbB0HL5p/GRnPtFkMNyXxCnsgIsprN/9VOps6RRuxD8mTjoCAPfl5ecvHUGLKJ4AV3Lj+EnFDXukUwBQShr3Pj4902hw9tb/s0MjzD1lTn4ogGHLq9r2TNrsMC+zdBA3EjhmrHQEAMBxKJ4AV2I2mh6YnCqdAoDy9PSsAA9PkUffmzQ9pypP5NEATsvGipxHps6a7B8kHcS9BI7hSCkA0BaKJ8DFzA+L+k1CiHQKwK1N9Gic6B8o9fQYb5/Niy+obz4gFQDAqUgw1W8/84dnRMRIB3E7AbFjpCMAAI5D8QS4nhhvH+kIgPvq6Si+PXGKbAaTwfD7KTNlMwAY2t0Tp0lHcFP+sezxBEBMQBzd9wAongCXVNZUIB0BcEdlTQVPTM9y/tZOJ5okN+UKwEk1thzUwjcK91FSUqKOA9hcHIAkvvkPgOIJcEkPTE7bUJ4tnQJwL3trd6xKmxsotLXTiSoooAFNKmncu2rGXOkU7uXw4cPqmKV2AKA1FE+AS8oKCb8yfoJ0CsCNZFfmPZ06O87HVzrIMf87ZebGihzpFACOs6d2xwtpc4I9vaSDuJe+M54AAFpD8QS4qvsnpf48xpsfOwHnyDnjwrSgUOkUx5kWGLJ1yQWVR/dJBwGgKIqSU5V3Q7R57cLzxvn6S2dxO1VVVdIRAACDongCXFhqUOh145KkUwD6F6nUSEcYmNloenxaZnZlnnQQAMoT0zLTg8OkU7ippqYm6QgAgEFRPAGubeWEZOkIgM7ZOkt+MzlNOsWgEv0C7kqaKp0CcHcbyrMXhUdLp3BfzHgCAC2jeAJcm4fByGQHYPRUHt33x2kZJm2fTnXFmAmmrlLpFID72lCe/avJqdIp3FpxcbF0BADAoCieAJf38/GTpSMA+rSvbueqtLn+mjnGbjAGRfn9lJnSKQD3dfvEqVeM4cQPSWwuDgBa5iEdAMBI3ZAwqaG76yfZ3yaH83Er4DA3RJvTk8+VTnGqgj29Jnk2HegJlg4CuJfJnk23JU6RTgGlpkbdiU/TE1QBwD0x4wnQg1Av82NTMzZxwh3gIFsqc11uk+BbJ6RYOg9LpwDcyFhjPa2TRrS1tX0/oncCAO2heAJ0IiMk/JYJKdIpAD3YXJH75PQs6RSnzWgwPDJl1qH6XdJBAHdx36Tp0hFwIponANAciidAP65LmOTZfUQ6BeDaNlbk/GHqzMWueTpViJf5mdQ5HDgAOEGsoZaGQ4O0fRQEALgpiidAP9hgGBihDeXZv5mcdl7UGOkgw5ccEPTblBnSKQCdS/RofGBymnQKAIDmtNVWS0fQIoonQFcCPTy3VuZKpwBc1Z1J0y6NS5BOMVIXRsdLRwD0LMmj8a6JU6VTYGCxmXOlIwBwa9bubukIWkTxBOhN7hkXjTXWS6cAXM9YY/2KsROlUzjG7yaEFtbvlk4B6NALybF30DppWNSMWdIRAAD9UTwBOnRv0jRDV6l0CsCVxBpq9bRPcLiX9wsz5m6vzpcOAujHhvLsuX4d0ilwEiYvL+kIAID+KJ4AHTIaDI9Ny6g5ul86COAaYg21v56cprMdaRP9Av40PWtzBWtvAQfYWJHzQHLa1fGJ0kFwEnEZc6QjAHBrlt5e6QhaRPEE6JOfyeOFGXP31+2UDgJoXZJH4wO6a53s5oRGPJjM/sfASG2pzH1sasZlceOlg+DkTGazdAQAbq29uko6ghZRPAG6FWn2fjaNz/2AoSR5NOp7u5aLY8dN9mySTgG4sLyqbc+lzTknKk46CE5JVBrH+wKA5lA8AXo2JSA43btVOgWgRRvKsxf4d+q7dbK7LXFKV3uxdArAJZU07t2y5IJ5oZHSQQAArsHKUruBUDwBOndDwqREj0bpFIC2bCjP/vXktCvHTJAO4iTPp81pbSuUTgG4mPrmA2/OWiidAgDgSlprKqUjaBHFE6B/d06cGqXUSKcAtGJjRc7/Tpl5+Rg32q7F22R6IW1ObTMHDgCnqqu9+OWZC0K92DAIAICRongC9M+gKL+ZnObXWyEdBJC3uSL38WmZF8WMlQ7ibP4enqtmzC1p3CsdBHABYdaq1TPm+nt4SAcBALiYlvIj9oHRSNlyDL8XgFswGgz/N3WmoatUOggg7Jm02WdFxkqnkBHu5f1y+vzC+t3SQQBNm+bV/PspMz35gcF1HDx4UDoCAGAo/J0KuAsPg/H5tDkNLQekgwAyKpoKfpMQsjAsSjqIpGhvn//MP3t37Q7pIIAWFdbvvn2M/80TkqWD4PRUVDCnG4BWtJSXSUfQIoonwL2snjGv8ug+6RSAs3V3FL+VsSjG20c6iCa8PnPBvrqd0ikAbTnaeuivmYsm+QdKBwEAQG8ongD3Euzp9fqshY0tTEqHGwm2Vq5Km+vv4SkdRCvG+wW8MnPBfron4L/8estfmTk/3MtbOgiGY926ddIRAKA/9njqi98LwO0Eeni+lD6vufWQdBDAGcYa6x+eMovtWvpJ8PV/deaCg/W7pIMA8tK9Wx+blmk2mqSDAACgT/xDHHBH/h6eL6XP7+4olg4CjK5NFTm/nDTdIB1Dm8b6+r8+a2Fxwx7pIICkXTXbb0iYxHcJAIBjGQz83XIMxRPgpnxMpudS50inAEZRXtW2Z9P4Qz6UWG/fV2YukE4BiKlrPvD3zCXSKTBSLLUDoEGLFy+WjqAhFE+A+/I2mZ6dHBNkqZQOAjhYW1vh/04I27LkAjc/w+5UxHj7PJ4U2dtxWDoI4DzZlXlLA3teSI59N2tJnI+vdBwAgA75+flJR9AQiifArZkMhoenzIywVUsHARxmrLH+lZkLQr3M0kFchq/J47m0OX695dJBACd5bdaCS2LHSacAAOjZrFmzpCNoCMUT4O6MBsNDKekzvFs2lGdLZwFGamtl7i8nTTexqP40eRmNj07NiDPUSQcBRp1H95FpgSHSKQAAOsdSu74ongAoiqL8LGHy49MzpVMAI3Kgbter7Fg0XEaD4deTU+f5dUgHAUZLdmXePL+Op1NnSwcBAOjfokWLpCNoCMUTgO+dHRm3q2a7dApgmLrai97JWpIaFCodxLVdFZ+4uSJXOgXgeDVH97+TteSq+ETmQ+oPm4sDgMYZbDabdAYAGlLb1Xnrji1hgZOkgwCn6ooIE5uIO1Z1V8ftO7byfQD6sKd2x9qF50mnwCjy8PCwWCz28coCtqsDIGlVSpx9QNPSFzOeABwnwuz96qwFxq5S6SDAKeloL6J1crgos89rsxaae8qkgwAjZek8/H7WGdIpAABuoamkSDqCRlE8AejP1+TxbNqcjRU50kGAoWysyJnm1fxy+nzpIPrkYzL9aXrWdHOzdBBgmPKqti3271o9Y16E2Vs6CwDALVTv2CYdQaMongAMwKAoz6bO3l6dLx0EGNiBul2vzFxw84RkIwfYjRqDotw0Pjm/mn9CwfW0tRW+l7XksjHj+QYBAHCa0u/WSkfQKIonAANbFB7914xF5U0F0kGAAXww+4xZwWHSKdzCG7MWFTXslk4BnIb86m2vzlww1tdfOggAwL0w42kwbC4O4CRsivJaycG8Dj/pIIDS0nroD1Nnxfvwp1HAB+WHHz2wc3ZMhnQQYGD51fl3TZz647gEZjm5GzYXB6AR6s7iCpuLH48ZTwBOwqAo141L2lmzXToI3Fp2ZS75iZ4AACAASURBVF6mb/vrsxbSOkm5NC7hzYxF0imAQX08Z+mltE4AAGgPxROAU/J+1hkd7RzTADHvZi1ZMXYiOzrJmhIQHGCpkE4B9Le/bue5QRY2EXdbs2bNko4AAMeJi4s7+YvcCcUTgFMS7e3zyswF8/w6tlTmSmeBe8muzJvl0zbBL0A6CBRFUR6dmnFukCWnKk86CKAoirK5Inessf7jucsujImXzgIx/v7s5wVAWyZNmiQdQVs8pAMAcBkGRbkqPjEtKPT+PXnjQqZIx4Fb6Ggv+mjOmSyv05QLY+KTA4Lu3Z0TF5winQVurbuj+MPZZ4ynlQYAaMz48eOlI2gLM54AnJ5pgSEfzj5DOgX0b3t1/jy/jpfT59M6aVCSf+C7WUs2VuRIB4H72le386X0+bROAAANYsZTP8x4AnDazEbTC8mx9d1dD+7dZvAeJx0HenO4Yc8DyWkvJP9AOgiGYjaatp/5wy6rZXXRvtdLD82PzZROBLfQ01F8b9L0JP9ARYmVzgIAwMAyMjgF+DjMeAIwTGFe5ufT5sz369xWtU06C3QitypvhnfLR3POnBcaKZ0Fp8RsNN0xceobsxaWNu6VzgL9uybK66X0+Un+gdJBoC2LFy+WjgAAStPhYnU8ceJEwSQaRPEEYPiMBsP/xE/419xl0kGgB8au0n/MWfqzhMlmo0k6C05PWlDoB7PPYOUdRs+Bul1nBHRnhYRLBwEAYGC1e7ar43HjWBRyHIonACMVYfa+LNy4v26ndBC4sNrm/c+lzYn19pUOgmEyG02vzlxQeXSfdBDoTX71tnTv1n/PW3ZpXIJ0FmiUp6endAQAUBqLi6QjaBfFEwAHWBwe/eHsM0OtVRvKs6WzwMXsq9u5NLDnncwl0kEwUjODw97POmO2bzvLb+EocYa6T+eedUPCJCZCYgjz5s2TjgAASlV+rnQE7TLYbDbpDAB0pctqmbP23/PYaRhD2lSR8+WCc8K9vKWDYLRcvOXr2OAU6RRwPRsrcpZFxN6WmDLW1186C1zDunXrlixZYh+vLCgXzQLAfb15RmZrVYWiKAaDwWq1SsfRFmY8AXAws9H04ewzbZ0l0kGgURsrcnx7yz+afSatk769P/uMeX4dzH7CafHpKf94ztInpmfSOuHUsbk4AC2wt04YEMUTAMeb4Bewasbcn0Z6VrHhC47X01H898zFj0/LHO8XIJ0Fo8vDYLwqPvEfc5aGWqvYdxwntbEiJ8hS+cT0zHFUTgAAV2YwGKQjaA5L7QCMIovN9kH54fWtZukg0ISfx3inBoVKp4CAQ63NT5W1SqeARm2tzP1BdPy145ISqJwwXOqPeSy1AyBlVUqcfXDrrbc+++yzsmG0hhlPAEaRyWC4fMz4JI/GrZVstufWWlsLr4nyonVyWxP9A2+M8W5rK5QOAs0Za6z/dN5Zv0tJp3UCAOjDihUrpCNoDjOeADhPflP9quJ9Xj7jpYPAGTZX5L6XtWSif6B0EGhLr836UXnJOiZCurGqo/tWjE06LzrOw8AnoHAMZjwBEKfOeKJjORF/3wNwnvTgsL+kzzd2lUoHwejaVrXNPouB1gkn8jAYLxszfnFAV1HDbukscLaNFTm2zpIPZp95YUw8rRNGQ0X2ZukIANxR4RefSkfQNGY8ARCQ11S/qqjA23eCdBA4XpZv+49jE/w9PKSDQOusNttXtRWrivbFBadIZ8Go216df1HM2KviJ4zx8ZPOAh1SZzxl3Xpvxso7ZMMAcEP/uu7yss0b7GM6lhNRPAEQk99U/3JVl3QKOEx984Gr4hMvjImXDgJXYrXZvquvfq/OKh0Eo+iMgO4LouO9TSbpINAttXiacPb55z7zF9kwANzQ6qnxNuv3/5ihYzkRk5wBiEkPDrsmyqurvVg6CEYktyovSqm5Y4z/O1lLaJ1wuowGw+Lw6MvCjc2th6SzwMGyK/PCbdW/iPO9NC6B1gnOUbdvr3QEAO5IbZ28vb1lk2gTSyEASMoKCc8KCd/fevTt0sLPqstmx2RIJ8LpqWgq+GrBuQEentJB4NoWh0cvDo/e3dz49yNFX9SU863A1TW0HLgoZuwjC88N5JsDnKuljH0kAUhaunSpdAQtYqkdAA3ptlo/ry57+0hhROBk6SwY2Iby7AeTZ5wXPcbPxEcXGC329XdvHyn05BBMF7G1MnduaOSFMfFnRsSwazicT11qpxiMK/ceEc0CwB2pR9o9+uijv/zlL2XDaBDFEwAtymmse/tIYY8X67Y0pKRhzw9i4i+Ijo9nb2A4S0FL0/XbNqZHpUsHwaA2lGenBYU+P2Muk5sgqE/xZFi5t0w0CwC303S46G/nLbSPc3JyMjKYuN0fxRMA7Xqj9NA/K0piOfFKWqyh9oLo+LSgUOkgcEddVsu6uqpPKo9sqK+eF5spHQfHVDQVnB0Zd0EMZTTkTZgwobj4+y0jVxaUy4YB4G4OfPLRV/fdah9TsAyI4gmA1hW2tXxSWfpRRcn0yBnSWdzLrprtC8Oizo6KWxweLZ0FUGq7OtfUlG9q85EOAqWiqeC5tDlj6JugGWedddZXX31lH1M8AXCyL+64sfCLT+1jCpYBUTwBcA1dVssdO7M3N9TMZ8rD6BtjqFsWGTsrOMyoLl4AtGH70YZ/VZZ+WVORShPtXBsrctKCQs+OjD0rMi7SzJE90JaVK1euXr36+zHFEwDn+nPaBEt3l31MwTIgtoYF4BrMRtPqGXPVy7ruzt/s2ZbdWDc3lkXUI5VfnX/nxKmLwqOizOpckljJQMDgZgSFzggK/W3y961TflP9urqqr2oqxoVOlQ2mP8UNe+ynDc4KDvM0GpXkH0onAgY1bdo06QgA3JfaOmEwFE8AXFK4l/eL6fNaens2N9Ssq636prZyZvRM6VCuZGNFTrJ/0JzQiDmhkU9POs/TyClUcEnpwWHpwWG3T5y6p7nxq5qKg70h0olcXl7VtpnBYQvDo15IPks6C3Cqpk49Vj3bbDYD03UBSLj22mulI2gUS+0A6EGnxfLEwd1bGmvHhUyRzqJpGytykvwCM0LCbxo/OcjTSzoO4GD13V15TXXraqvW11ezFu+0bKrImewfdMfEqTODw7xoouFqSkpKEhIS7OMrPvk2dOIk0TgA3MuqlDj7oKmpKSgoSDaMNlE8AdCVys6OrY21zx7amxKRKp1FQ7ZU5ib7B12fMGlWcBh9E9yB1Wbb13r06UN78prq58SwIHdQ9c0H7DMf04NDzUaTdBxg+NRZTsv++NykCy+RDQPAfZRv3fTxip/Yx7Qrg6F4AqBPh1qbtzbWbmmozWuqS49y01V45p6ytKDQ1MCQKYHB/EgJ99TS25PXVJ/fVL+9qcHfP1E6jibkV+enBoWkBYamBYXOC4uUjgM4hlo8Zd5yd+Yv7pINA8B9vLEko6260j6mXRkMxRMAN9Jtte5vPfpOWdGe5qbD7a06OCBvW9W2CX4BSf6BE/0DJ/oFzgmNkE4EuACbovyrsnRfy9F9LU37W4/qtZveUpk7ztf/nMi4aYHBqUGhAR6e0omAUaQWT+MWL/3Bi2/KhgHgPlZPjbdZrfYx7cpgKJ4AuKkOi+Vwe0txW+vXtRXF7a0l7a0usR7nUP2ucb7+Y339E3z9E3z954dFsYEqMBI2RSnraPtnRen+1qP7Wpomh7vwKt19dTvjffzmhUaO9wtI9AsY6+vnYWC3JrgLtXjyj45Z/m2ubBgA7kPd4GnOnDmbN2+WDaNZnGoHwE35mEwpAcEpAcHnR49RFMVqs5V1the3taytq6rp7Kjs6qjt6pTdnDi7Mi/K7J0WFBrl7RNt9ony9on19k1KPkcwEqA/BkWJ9/G7NTHFftnU013U1rK+rqqkvfVwe+uRjrbZmqykK5oKosw+4WbvGG+faYEhsd6+8T5+3snnSucC5LVWVUpHAOAu+s7jufzyywWTaBwzngBgUF1Wy46jjdVdHdWdHbVdnbXdnRUd7c29PS29PS29PSNfqbepIifY0yvI0yvexy/I0yvI0zPIwyvY02t6UEiU2SfUy+yQ/xYAhs1qs1V2dqyvrzrS3lbd1VHT1VnZ2e60WVG7araHeplDvczhXuYk/8Bos2+k2TvC7B3t7eNr4rND4DjqjCdFUVYWlAsmAeA+Sr/79t83Xm0fl5eXx8bGyubRLIonABim6q6Olp6elt6eTqulpbfHfrPLYu2yWuzj5t4ef5OH0WAwG00+JpO/h6eiKH4eHiaDIdjTK9DDy9+DHx0B11PT1VnR2V7z3x7qcFvr0d6epp7uoz3dw5gmmVOVF2X2CfMyTw0MjvDyDvUyh3iZI7y8J/oHsFAOOHV33333k08+aR9TPAFwjm8fvLfgg7/Zx1QrQ6B4AgAAcAyrzVba0WYvobqslqM9PS29Pd1WS6fF0m6xNHR3mQyGUC9zlNk73Ow9JSA40uxDAQ04xO7du6dPn24fUzwBcI4XU8dbe7rtY6qVIfBvHQAAAMcwGgwJvv7SKQB3NG3aNOkIANyO2jp58DHSkJjCDQAAAEA/9r7/N+kIANzL66+/Lh1B0yieAAAAAOhH3kvPSUcAoH9lmzeo4yuvvFIwifZRPAEAAADQj9YK9ngCMOrW3LNSHRuNVCtD4XcHAAAAgMsbP368fWD77/GyADB6upoa7QOTySSbRPsongAAAAC4vPnz50tHAOBGbFarfXDppZfKJtE+iicAAAAALu/ss89Wx+oPhAAwGur27VHHK1euHOKVUCieAAAAAOjAhRdeqI7LtmwY4pUAMEK73n5NHS9atEgwiUugeAIAAADg8oKDg9XxkY3rBJMA0L2CD/4uHcGVUDwBAAAA0JXD334pHQGAW4iIiJCO4AIongAAAADoSlNxoXQEALpltRw7OjM7O1swiaugeAIAAACgB1lZWdIRAOjfv669TB2PGzdOMImroHgCAAAAoAcffvihdAQA+le5LVcdGwwGwSSuguIJAAAAgB7ExcWp4+KvvxBMAkDHbJZe++Ciiy6STeIqKJ4AAAAA6EHfqQdr7r5ZMAkAvTqyab06/s1vfiOYxIVQPAEAAADQG0t3t3QEADqU9+Kz6jgzM1MwiQuheAIAAACgExdffPH3I5tNNAgAfarI2SwdwfVQPAEAAADQiZ/+9KfquL2uVjAJAH371a9+JR3BZRhsfBQAAAAAQC/UnZ7m3vOb9OvZ6QmAw6z//a93//0N+7i7u9vT01M2j6ugeAIAAACgH2rx5BsZtWLdNtkwAPTkxdQEa0+PfUyXcupYagcAAABAh9prqqUjANAVtXVaunSpbBLXQvEEAAAAQD9+97vfSUcAoEOHPv+XOn700UcFk7gcltoBAAAA0A+LxeLh4WEfn//C6wlnniWbB4A+vDp3emdTg31MkXJamPEEAAAAQD9MJpM6XnM3m4sDcAy1dcLpongCAAAAoCt+fn72QW9nh2wSAPrQVHpYHRcWFsoFcUkUTwAAAAB05bbbblPHlv9uBgwAw/b+Jeeo4wkTJggmcUUUTwAAAAB05YEHHlDHe9/9q2ASAPrQ09ZqH8TExMgmcUUUTwAAAAB0RV1qpyjK1mceE0wCQAeKv1mjjp988knBJC6KU+0AAAAA6I2Xl1fPfxfZrSwolw0DwKW9OndaZ1OjfUyFMgzMeAIAAACgN1u2bJGOAEAn1NYJw0PxBAAAAEBv0tPT1fFfz54nmASAS9vz3tvquKKiQjCJ62KpHQAAAAAdMhgM6pjVdgCG58XpCdbe79ft0p8MDzOeAAAAAOjQnXfeqY572toEkwBwUT3t7WrrtGzZMtkwrosZTwAAAAB0yGKxeHh42MfTrlqx6Dd/kM0DwOWs/X+/3PveX+3jpqamoKAg2TwuiuIJAAAAgD6x2g7ASKxKiVPHlCfDxlI7AAAAAPp0ySWXSEcA4KraaqrV8aOPPiqYxNUx4wkAAACAPnV3d5vNZvt4/JnnnPfCq7J5ALiQv2RMUreHs1gsRiMTd4aJ3zgAAAAA+uTl5aWOi79dI5gEgMtRW6eJEyfSOo0Ev3cAAAAAdOv666//fmSztdfXimYB4DK+/e296vizzz4TTKIDLLUDAAAAoFtWq9VkMtnH8fMXX/jy32TzAHAJbCvuQMx4AgAAAKBbfRfIHNm4TjAJAFdRsu4rdbx69WrBJPpA8QQAAABAzz788EN13Fh0UDAJAJfw2S+uV8c33XSTYBJ9oHgCAAAAoGcXX3yxOn7/x+cJJgGgfUdLi22WXvt42bJlsmH0geIJAAAAgJ4ZDIbU1FT7uLezQzYMAI17/5Jz1fEXX3whmEQ3KJ4AAAAA6Nwnn3yijr++/3bBJAA0rrut1T4wm819N4nDsHGqHQAAAAD9MxgM6nhlQblgEgCa9day2S3lZfZxfX19aGiobB59oL0DAAAAoH+vvfaaOi768jPBJAC0yWqxqK2Tl5cXrZOjMOMJAAAAgFtQJz0ZjMab9xyRDQNAa/5z+41Faz61j9evX79w4ULZPLrBjCcAAAAAbuHcc7/fM9hmtdbvL5ANA0Br1NZJURRaJweieAIAAADgFj7//HN1/O6POCUdwDH/XHGZOt6wYYNgEv2heAIAAADgLoKCgtRxb3eXYBIAmlKxdaM6nj9/vmAS/aF4AgAAAOAuysuPnWf3xqKZgkkAaMd/7rhRHf/lL38RTKJLbC4OAAAAwI1ERETU1dXZx9dt3u0dHCKbB4C4VSlx6piSxOGY8QQAAADAjezfv18dv30e+wcD7u6vZ89Tx+vXrxdMolcUTwAAAADcSGhoqDruamoUTAJAXHdrS/OREvvYw8ODw+xGA8UTAAAAAPeiLrVTFOXlrBTBJABkvb4wXR2vXbtWLoieUTwBAAAAcC9hYWERERH2cXdLc1NJsWweACJaKyt6OzvUSw6zGyVsLg4AAADA7XR0dPj6+qqXKwvKh3gxAF1aPTXeZrXax/X19X3X4cKBmPEEAAAAwO34+PgEBwerl0c2fycYBoDz7fzrq2rrNH36dFqn0cOMJwAAAADuqKury9vbW71k0hPgVlalxKljipFRxYwnAAAAAO7IbDZfdNFF6uV3f3hQMAwAZ3rzzEx1/PjjjwsmcQfMeAIAAADgvgwGgzq+eW9Z30sAulS7Z+f7l55nHxuNRovFIptH95jxBAAAAMB9vf/+++r4ldlTBJMAcA61dVIUpbiYQy1HHcUTAAAAAPd16aWXenp62sfdLc1lWzbI5gEwqt4+b6E6Tk5OHjt2rGAYN8FSOwAAAABurampKSQkRL1kl3FAr6p3bv/w8h+ol1arldW1TsCMJwAAAABuLTg4+Oyzz1Yv3zwjc4gXA3BdfVun/fv30zo5B8UTAAAAAHf3xRdfqOPWqorKbdmCYQCMhjeXZKjjuXPnTpo0STCMW6F4AgAAAADl4MGD6vgfV10smASAwx349z9bqyvtY6PRuGnTJtk8boXiCQAAAACUiRMnnnXWWerl6wvTBcMAcKDerq6v7v2FellSUiIYxg1RPAEAAACAoijKmjVrPDw87OP2upqCj96RzQNg5Gw2219mTlQvb7nlljFjxgjmcUOcagcAAAAA32toaAgLC1Mvb9xe6GH2FswDYITePmfB0dJi+zgsLKyurk42jxtixhMAAAAAfC80NPTBBx9UL1+akchH9YDr2vzEH9TWSVEUWicRzHgCAAAAgOPEx8eXlZXZx/4xscu/yZHNA2AYmkqK/3buAvXy0KFDiYmJgnncFjOeAAAAAOA4R44cUcetlRUb/u+3gmEADIOlu7tv63TnnXfSOklhxhMAAAAA9FdTUxMVFaVeXvrB55FTUwXzADgtL04fZ+3ttY8TExMPHTokm8edMeMJAAAAAPqLjIx89NFH1csPLj3P0t0lmAfAqXtpRqLaOpnNZlonWcx4AgAAAICBzZkzZ+vWrfaxwWi8ec+RoV8PQNx7F59dt2+Petnb22symQTzgBlPAAAAADCwLVu2BAUF2cc2q3VVSpxsHgBD++aBu/q2TvX19bRO4iieAAAAAGBQTU1NfS/fWDxLKgmAoWU/98S+j949dpmdHRoaKpgHdhRPAAAAADCUzs5OddxWU/Xh5RcIhgEwoENf/Dt31VPq5TPPPJOZmSmYByqKJwAAAAAYitlsLisrUy+rd+Z/tnKFXBwA/RWu+XTNHT9XL2+++ebbbrtNMA/6ongCAAAAgJOIi4vbvn27enn42y+zn31cMA8AVdnmDV/cfqN6ec4556xatUowD/qheAIAAACAk0tLS3v77bfVy9zVT6976H7BPAAURTm89qt/XXe5epmamvqf//xHMA9OZHrooYekMwAAAACAC5g+fXpUVNSnn35qv6zds9NqtY6ZPV82FeC2yjZ/9+8br1Yv4+PjDxw4IJgHA6J4AgAAAIBTlZmZ2dTUtHXrVvtlZe6W9rrahCXLZFMBbqjwi08/u/ka9TIuLu7IkSOCeTAYltoBAAAAwGl4+umn77jjDvVyz7tvfXnvLYJ5ADe075/vf3HHjX3vvPTSS1JhMDSDzWaTzgAAAAAALuaOO+545pln1MuIaak/ef9zwTyA+/jmgbv2ffTuifcTEhKKi4udnwdDo3gCAAAAgOF46qmn7rrrLvXSLzL6mnV5gnkAd/DhlRdVbz/2PzSDQenXajQ0NISEhDg7FgbHUjsAAAAAGI4777zzxRdfVC/baqpempkkmAfQvdcWpPVtnS47b07bjjdv+MkZfV8TGhr66quvOj0aBsWMJwAAAAAYvq+++uqss87qe+dn2w55+vhI5QF0yWqxvDhtbN87f7zvqluuPsc+LqmoSzn3rr6/eumll77//vvOy4fBUTwBAAAAwPBFRETU1dX1u7lifb5vRKRIHkB/uttaX86Y3PfOl68/MH/mcXesVmvM/Jtb2jrUO5GRkdXV1U6KiMGx1A4AAAAAhmPr1q0Gg+HE1klRlNcXpe959y3nRwL0p3DNp/1apwNrnurXOimKYjQaqzf/+bLz5qh3ampqDAaDMyJiSMx4AgAAAIDTNm/evM2bNw/9mtCkyVf86xvn5AF06b1Lzqkr2N33TmPuK2YvzyG+ZO3Wvef/7FH10mQydXd3G41MuxFD8QQAAAAAp6G6ujo6OrrfzcqNLwYF+CqKknbhfQdLqtT7Ht4+12cXmDyH+jkZwImslt5XslJ62tvVO9ERwUVfP3sqX1tZ05i47Pa+d1pbW/38/BwcEaeGzg8AAAAATtXtt9/er3WakTKubccb9tZJUZQdn/zx/p//UP3V3s6OP6cm1B/c59SUgItrKDzw4rRxfVunK34w7xRbJ0VRYiJDGnJe6XsnICCgsbHRkRFxypjxBAAAAAAn19PTExERcfTo0b43v33rt7PTJp744k35B5Zd83DfOyk/vvKMh58Y3YiALnx9/+37P/6g752PV99z1vzU030fi8UalnVDd0+veod5TyIongAAAADgJDZu3LhgwYK+d3y8vWq3vDTExjFd3T1hmTdY+/zAZTJ737jtoIG9ZoBB2CyWP6dPtPZ0q3cMBkPt1pd8vc3Dfk/f1OV93629vd3b23tEKXGa+JYHAAAAAEM5//zz+7VOv7vt0vrsl4fertjs5dm6442MaRPUO5auztVT4wvXfDpaQQFXVvDhO6unje3bOqVPSWjb8cZIWidFUdp3vqluRm6z2Xx8fHp7e4f+EjgWM54AAAAAYGBWq9XHx6e7u7vvzfrsl328vU79TdblFJx3/SN973gHh1y3efdgrwfc0MuZyd2tLX3vfP7yrxZnpTjq/fvOe/Lw8Ojp6XHUO+OkmPEEAAAAAAP49ttv7Qexq3eWzp3WvvPN02qdFEVZnJnSmPuKl6eHeqezqXFVSlx59maHZQVcVvHXX6xKievbOnl4mJq3vebA1klRlJb8102m7wuQ3t5eX19fB745hsaMJwAAAADob8WKFW+88UbfOzkf/d/UiWNG8p63P/z6X977pu8d75DQ6zbtGsl7Aq7LZrO9nDG5p72t781bf3ruY/f+z2g8zmKxBqSvUC/nzp27adOm0XgQ+qF4AgAAAIDjJCQklJSUqJfeZs+qTX/uO2Vp2CprmxKX3tbv5hl/+FPKJVeM/M0BF5L35+e2Pv1o3zsmk7Fm80unO6PwtNQ1toxd/Av1cvXq1TfddNPoPQ52FE8AAAAAcIynp2ffvYfTpyRsfOf3jn3Esmse3pR/oO8do6fXTTuLHfsUQJu6mo++OneazWrte/NHyzL/9uStTnh6/t7D86/4rXrZ3t7u4+PjhOe6M4onAAAAAFAURWlvb/fz8+t758lfLb/pymWj8awjVfUp595ltR7349j4peec9/yro/E4QCPe+eGyhgMFfe8YjYay9auCA/0G+xKHe+Cpd5967djhklar1WAwOO3pbojiCQAAAACUjo6OfvsNF33zbHR48Kg+9O5H3lr99y/73Tz3uZcnLDtvVJ8LON+Wpx7Z9tLz/W4+cs+Vty8X+NM+bskttQ3N9nFUVFRVVZXzM7gPiicAAAAA7q6oqCgxMbHvnfadbzrt6fGLVtY3tfa9YzCZLv/Hl6FJk52WARg9Rzat/+T6K/vdTIyP2vXp4yJ57HxTl6vjr7/++swzzxQMo28UTwAAAADcWr+5TkajoSX/dScvvSkoKp/1o1/1u2nyMt+4vZBFQHBpL04fZ+2zaZpdzeaX/P28RfKo9hdXpP/wfvvYYDBYj99zCg5klA4AAAAAAGL6tU4Bft6t299wfteTMiGufeebP/3hwr43Ld1dq6eMef/S85guAJfT3dry2oK0VSlx/VqnX/38h+073xRvnRRFmTw+dlFmin1ss9kWLlw49OsxbMx4AgAAAOC++nZMXp4ejbmvyM4wslisIZnX9/Za+t0PHp/4P5+tF4kEnK6Xs5K7W1oG/CVPT9PRvNecnGcIfRfcUY+MEmY8GuAIPgAAFVdJREFUAQAAAHBTfc+w8zF7NuW9Kr6uzWQyNm97rfib57zNnn3vNxUXrkqJ+9f1V0gFA06qu7Xl7xcsWZUSN1jrpChKT4/FN3X56r/131Nfyhev/lodx8fHCybRMWY8AQAAAHBHiYmJRUVF6mXbDoEVdkMrr25IOuuOE+/7x8Qt/ybb+XmAIayeNs5m6b+Xk6IoPT09RqNxwoQJJSUlfe+HhwSUrnvBWemGEjHnZ23tXfZxY2NjcPDonmXphiieAAAAALidTz/99IILLvj/7d15eJXVnQfwm4SwhCWyqwEVVJwEWUoFBAd8XJiKU2otrUuHgqBUpFOxLoh2RMosaEt1xE5YBEWtS1uXCljGVttqKYtoWWoZFivIviSyJgS4yZ0/4nO5JiEEck9Y8vn8dc55z3veHw+E58n3Oe95492a/Ibdsfr124u/ffeT5cfPaHf+N38xp27jJjVfEsRtXfrhG0NvKC4qKjNev379ZcuWdejQIT5SVFTUsmXLffsOf8AxNSVl11+erpOWVkO1HsGeffvP7H17aTszM3PXrl0ntp7Tj+AJAACodRI3N7334rhLLm5/AoupiqX/t673jWMruJCScuuiFfXET9S4j+fO+u3dd1R4qaCgIPHM/kR33nnnk09+IUg9GWJfJz0F5YwnAACgdknchdG7W4eTP3WKRCJds88rXP7cS4/fWfZCLDajR3ZudtZfXziJDmzmNFZSXPzOmFG52VnlU6fMzMyVK1fGYrEjpU6RSGTSpEnLli1LHMnoPDhv5xHPhDpuBw9FX5g1r6SkpCqT5/9ifLz93e9+N+nF1HJ2PAEAALVL4nank2G3xbHqMmD0mk+3VnipQfMWQ+ctq/ASVNOhgoKnul8UOUKGcKzZQpkj1ZL7kxiNFjfpNvSYVrbpKRw7ngAAgFrkoosuirffe3HciSvk2ESjxfc88nxG58EZnQcfKXWKRCL78/Nys7Mmdzzn47fm1GR5nN4WPv5IbnbWU5d0KJ86fe1rXzt06NBxJDVlbknuvqdVa7fE2w27DKnKvqere18cbxeVO7KK6rDjCQAAqC2i0Wh6enppO6NB3bxF0496SywW6zJg9ODr+95764DA1VVs3aYdOf3vOb57zziv/c1vvpuSasMBx6Noz+6ne+ZUeCklJSU3N3fEiBHVfERqampiKJHEj0sm7mCKVG3fU/yW3/zmN/37909KGUTseAIAAGqPu+66K95ePvsnVbkls9vQj9dvG/vEryY9NzdYXRV7cfa8jM6DK0mdrr766scee2zx4sWxWGzatGnlJ+xa98nkjm1zs7MWPj4hZKWcVgrz8968fXBudlaFqdNZZ5314YcflpSUVD91ikQiZfYiNep6S/XXLFUmaRo5bkbV773pppuSVQYRO54AAIDa41hPd1q9dkvX6+4vbV/V6+LZU0eHquyL1m7c3vHae8uPp6SkdOjQYeXKlUe6saSkpFWrVvn5+UeacN0zvzi752XJ2lTC6aQkGp1z+6CN8/9U4dWUlJTrrrvu9ddfD/HotLS0xAQqWec9FR041Kz7rfHuZx/MqF83vZL5jnkKxI4nAACg1rnj2/2qMi2eOkUikZpJnaLR4qw+d5RPnbp06bJmzZqSkpJKUqdIJJKampqXlxeLxSZPnlzhhDeG3jg5p83MPl3XvPlG0ormVBY9cOCP4+7Pzc6a0uncClOnDh06lG5xCpQ6RSKRAwcOJHaz/rHs9/KOT/166dP/8/Z4t22fkZXPv6Jnx6Q8lzIETwAAQK0wZ87h87ZHfvufjjp/7BO/jLe7Zp8bpKYv+tnP32rSbejO3QWJgz179ozFYkuXLr3ggguqvtSIESNisVgsFrvooovK728qzNvxu3tH5mZn5WZnbVw4L1a1T85zOokeKHrlxgG52VnTurZf8Yufl59Qp06dKVOmxGKxVatWdevWLWgxderUiUaj8e7OPQXXf++nSVn52wMO7+8r2H9g997CSiZ373x+Uh5KGYInAACgVvj1r38db59/TuvKJxcdODhxxuGg6r0XxgWqKq5t3++N/vELiSOlkdPChQurs+zKlStLSkqWLl3apUuXCifMGnrj5I5tp3Q698+Pjo9+ceMJp5/17/3+l9/4Sm521rSu529f/pcK59x9993RaPTQoUO33357hRNCSEtLW716dbz71p+W/fipWUlZ+ZN3JsXbFb7BSmh1TnQBAAAANWH58uVVn9ys+23x9ujhX6tTJy1ARZ9b8fHGS77xYOJIenp6UVFRavK+RtelS5elS5dGIpENGzbk5OTs27evzISSaHTZzKnLZk6NRCL1mzUf9Naf0xs2chTU6SFaVDT/x+M/eunZSuakpqZee+21s2fPrrGqyrvwwgvfe++9vn37lnbHPfnKFZd27N6puruQWrfIbNWsyfbP9kQikc9279uzb3+TRg0qnLny75uq+SwqZMcTAABQK2zbtq20kX60FOmnT89J7I77/jdD1RSJ/Ms9T5ZJncaPH3/w4MEkpk6J2rZtu3fv3lgs9vbbb7dv377COUWf5U/v/g+Tc9pM6XTuHx++f/9nRzyqnJNWSXF0yYzJP+/XKzc7a9qXzq8kdbrnnnsOHDhQXFx8YlOnUn369Lnvvvvi3cv/5UdFBw5Vf9mlsx6Nt68e8h9HmvbbPx9DNk3V+aodAABQK7Rp02bTpk2RSCQ9PW33h88cadqhaHFmt6Hx7rYFUxs3rHh/RPUlfkUrEomkpaUlnnRTMwoLC3NyctavX3/U3w173jWm86Bh6Q0b1kxhHKtoUdHad/73d/d+76gzMzIyJk6ceMcdyTnDO+natm27cePGeHfvkplpadXNYRN/1o701bz4nNTU1OLi4mo+kTg7ngAAgFrh7LPPLm0cOlTZr5Qtehx+yW74jVcFSp225+9p2OULqdPll19e86lTJBLJyMhYt25dSUnJnj17HnrooUpmLvrvR566pENudtbULu3eHjMqf/X/1ViRHMnOv695d9z9M3rmlO5sqjx16t+///z582OxWEFBwUmbOkUikQ0bNrRq1SrePeOSYdVf8+cT/zXefmHWvPITErdWPf3009V/InF2PAEAALXCkCFDnnvu850OR9ryMOm5uWMmvlTaTktL3btkZohK1m3ckXPtPYkj8+fP79WrV4hnHZ9Nmzb16tVr06ZNJVX74N01k55q07tv3YaNQhdWy8VisUMF+z599/fvjLmzpGoxZWZm5sSJE2+77bajTz3JJB4x1rBBvR2LnqrmgvENTY0y6m9fOK3M1XMu/17ezr2l7YMHD6anp1fzccQJngAAgFrhtddeGzhwYGl71VuPtz2reZkJxcUljb90S7y7df7UIx1CXB1jn/hl4vfyIpHItm3bEvd3nGxeeumlcePGJX5xrHKtu3653RX9/uH6GzNanrx/qFPIzo9Xr3jlxfXz3t3596r+FTRp0uThhx8ePHhwixYtgtYW1MGDB+vVqxfv9up64TvPVbYj76i6DBi95tOtpe3896c3qF83funTzTuyr/k8C27VqlX8PDiSQvAEAADUFvE9FPfe+tXxo24oc/XSG/5t+cr1pe3BX+8zZfzwpBdw8T/f+8mG7fFuRkZGQUFB0p8Szty5c4cOHZqXl3dMJ+C0u+orl40ZV/+Mpr6UV7nigwcP7tv78dxZCx+fcOhY/mGkpKS0aNFi/PjxI0aMCFdezdu8eXNWVla8e+WlHedMu/+4VysoLGp56XdL2/cO++r4uw7/D5B4AlR+fn6zZs2O+ymUJ3gCAABqi8TUo/zbdlU5frg6zrviX7fn74l3e/TosWjRoqQ/pca8//77zz77bG5u7rHeWKdBRquOnc/ufum5fa9q3bVbiNpOCfmrV65/752tSz7YtnxJYd6OY709LS1t+PDhgwcPPqle0ky6hQsXJv4BRw3pP+Gem497tQp/xtv0GfnZ7n2l7bPPPrv0EwQkkeAJAACoLQYOHPjaa6+Vtnd+MKNe3cPHuFx209glK9aVtv/w/NieXS5I4nMPHoyWOSB59OjRjz766JHmn4qWLFly2223rVq1qjp7uNr27ps98KYzv9Q9vWGj9AYNUk/xc3aiBw5E9xceKizYtvQvH7383ObFC6qz2hlnnNG1a9dnn332nHPOSVaFp4QJEyY8+OCD8e6Im/s99sB3jm+phyf96ifTZ5e2S9+3bdb91vix4ikpKVU81IxjIngCAABqi8RTYxIPGC4piTXqOqS0Xb9e+meLZyTxoVt27Dz/qlGJI/PmzbvsssuS+IiT0KJFi958883p06dv2bKl+qvVb9qsYaszM5q3yGjZqnmH7Mxz251xXvum519Y/ZWro2D71n1bNu/e8OnOj1ft/OTvBTu27d20oXDH9qPfWTXdu3cfPnz4pZde2qlTp2SteYp64IEHHnnkkXj3uPc9HToUzfzy5xFwVuum2/L3RKOHXxrdtGlT/NuXJJHgCQAAqEWysrI2b95c2l786n91vLBNJBJZsGT1VUP+o3Rw9tTRV/W6OFmPe/WtRd+5738SR/bv31+/fv1krX8KWb9+/UMPPfT222/v2rWrsLCw5gto3flLlV6PbVu+tIZKKad58+bNmjX74Q9/OGTIkBNVw0luwIABc+YcPpW/X+9Ob0y57zjWaX/l97fm7S4/vmrVqg4dOhx/fRyZ4AkAAKhF8vLyWrZsGe+WnvMS6HSn60b85Hfz/xrv1qlTZ//+/XXq1EnW+qe6rVu3rlixYvHixa+++urixYtPdDk1JCcnZ+DAgZdffnn79u3btWt3oss5ldx8880vv/xyvHvBuWcun/3jY13ks9372vQZWWZwzZo1F1yQzLdrSSR4AgAAapemTZvu2rUr3v3gtQmXfOOBzy9lNtz0p8nVf0RJSUmjrrckjvhG+7F6+eWX586du2DBgp07dxYWFp6QTVLHKi0trXHjxo0bN27YsGGPHj0GDRrUr1+/E13UaWXEiBFTp05NHNmx6KmGDepV8faDB6PNetxaUnI4BsnIyNi7d29qamoyq+SLBE8AAEDtUlJSkpaWVuGlqeOHf+frfaq5/oYt+Rd95QeJI7fccsszzzxTzWWJi8Vi27Zty8/Pz8vL2759++rVq/fv37969eoVK1ZEIpG//e1vyX1cdnZ2ampqTk5Oy5YtW7VqlZOT06JFi0aNGmVmZjZv3rx58+bJfRyVe+aZZ4YN+8JR/bfdcOWkf7vlqDf+98zfPPjYy4kjEyZMGDNmTHLLozzBEwAAUBulpKSUH5w15b6re1frIOc7/33m9F/9PnHk3Xff7du3b3XWBBJt3rw5KyurzOALP/3+16++pMKf62UrP+11w0NlBjdu3Fh+EUIQPAEAALVRLBbr3LnzRx99VGa8Omc8te51+96C/YkjO3bsaNGixXEvCFQoGo02b958z549ZcbPbJF5de9O//SPnSORyOK/fvLbectWrS37XcV69ert2bOnbt26NVRrrSd4AgAAarsrr7zyD3/4Q2m7w3lnLZ316LGu8Oi0N370s1cTR9q1a/fJJ58kpz6gIk888cRdd911TLcMGzZsxowZgeqhQoInAACgtovFYomnC//nD278wdB/ruK9a9Zt+fL1D0SLSxIHn3/++UGDBiWzROAIhg4dOnPmzKNO6969+4IFC450vhvhCJ4AAAAiS5Ys6datW7w77JtX/Gzs0Mpv2b2v8IKrRhXsP5A42Lhx4/Kv/wChvf/++zfddNPatWvLjLdu3Xrs2LEjR448IVURETwBAACUGj9+/MMPPxzvtmzW+NM//k+FM1et3dL/1glb83aVGZ8xY0aZ720B1HKCJwAAgM9961vfeuWVV8oM3vzV3tf369GkUYNZ73yQ++LvKryxY8eO5c8pB0DwBAAAcNikSZNGjRpV9fn16tXbsGFDy5Ytw5UEcOoSPAEAAHxBUVFRmzZt8vPzK5/Wpk2b5cuXN23atGaqAjgVpR59CgAAQG1Sv379vLy8zZs3X3PNNeWvNmjQ4PXXXy8uLt6wYYPUCaBydjwBAAAAEIQdTwAAAAAEIXgCAAAAIAjBEwAAAABBCJ4AAAAACELwBAAAAEAQgicAAAAAghA8AQAAABCE4AkAAACAIARPAAAAAAQheAIAAAAgCMETAAAAAEEIngAAAAAIQvAEAAAAQBCCJwAAAACCEDwBAAAAEITgCQAAAIAgBE8AAAAABCF4AgAAACAIwRMAAAAAQQieAAAAAAhC8AQAAABAEIInAAAAAIIQPAEAAAAQhOAJAAAAgCAETwAAAAAEIXgCAAAAIAjBEwAAAABBCJ4AAAAACELwBAAAAEAQgicAAAAAghA8AQAAABCE4AkAAACAIARPAAAAAAQheAIAAAAgCMETAAAAAEEIngAAAAAIQvAEAAAAQBCCJwAAAACCEDwBAAAAEITgCQAAAIAgBE8AAAAABCF4AgAAACAIwRMAAAAAQQieAAAAAAhC8AQAAABAEIInAAAAAIIQPAEAAAAQhOAJAAAAgCAETwAAAAAEIXgCAAAAIAjBEwAAAABBCJ4AAAAACELwBAAAAEAQgicAAAAAghA8AQAAABCE4AkAAACAIARPAAAAAAQheAIAAAAgCMETAAAAAEEIngAAAAAIQvAEAAAAQBCCJwAAAACCEDwBAAAAEITgCQAAAIAgBE8AAAAABCF4AgAAACAIwRMAAAAAQQieAAAAAAhC8AQAAABAEIInAAAAAIIQPAEAAAAQhOAJAAAAgCAETwAAAAAEIXgCAAAAIAjBEwAAAABBCJ4AAAAACELwBAAAAEAQgicAAAAAghA8AQAAABCE4AkAAACAIARPAAAAAAQheAIAAAAgCMETAAAAAEEIngAAAAAIQvAEAAAAQBCCJwAAAACCEDwBAAAAEITgCQAAAIAgBE8AAAAABCF4AgAAACAIwRMAAAAAQQieAAAAAAhC8AQAAABAEIInAAAAAIIQPAEAAAAQhOAJAAAAgCAETwAAAAAEIXgCAAAAIAjBEwAAAABBCJ4AAAAACELwBAAAAEAQgicAAAAAghA8AQAAABCE4AkAAACAIARPAAAAAAQheAIAAAAgCMETAAAAAEEIngAAAAAIQvAEAAAAQBCCJwAAAACCEDwBAAAAEITgCQAAAIAgBE8AAAAABCF4AgAAACAIwRMAAAAAQQieAAAAAAhC8AQAAABAEIInAAAAAIIQPAEAAAAQhOAJAAAAgCAETwAAAAAEIXgCAAAAIAjBEwAAAABBCJ4AAAAACELwBAAAAEAQgicAAAAAghA8AQAAABDE/wMgPc+SvZpIkwAAAABJRU5ErkJggg==;" parent="1" vertex="1">
          <mxGeometry x="6" y="4.5" width="139.89" height="79" as="geometry" />
        </mxCell>
        <mxCell id="sv7X3Cb8aacC4gwvDDDy-118" value="GO VERTICAL SLICE ARCHITECTURE" style="text;html=1;align=center;verticalAlign=middle;whiteSpace=wrap;rounded=0;fontSize=23;labelBackgroundColor=#FFFFFF;fontStyle=1;fontColor=#3399FF;" parent="1" vertex="1">
          <mxGeometry x="157" y="29" width="429.22" height="30" as="geometry" />
        </mxCell>
        <mxCell id="sv7X3Cb8aacC4gwvDDDy-119" value="&lt;b&gt;&lt;font color=&quot;#808080&quot; style=&quot;font-size: 13px;&quot;&gt;Developed by - SebastiÃ¡n Ituarte &amp;amp; Luis Fernando Miranda&lt;/font&gt;&lt;/b&gt;" style="text;html=1;strokeColor=none;fillColor=none;align=center;verticalAlign=top;whiteSpace=wrap;rounded=0;fontColor=#3399FF;labelBackgroundColor=#FFFFFF;" parent="1" vertex="1">
          <mxGeometry x="425" y="59" width="381.17" height="30" as="geometry" />
        </mxCell>
        <mxCell id="b1qVXEJiYFjsM_bKws-P-4" style="edgeStyle=orthogonalEdgeStyle;rounded=0;orthogonalLoop=1;jettySize=auto;html=1;fillColor=#1ba1e2;strokeColor=#006EAF;" parent="1" source="b1qVXEJiYFjsM_bKws-P-1" target="b1qVXEJiYFjsM_bKws-P-2" edge="1">
          <mxGeometry relative="1" as="geometry" />
        </mxCell>
        <mxCell id="b1qVXEJiYFjsM_bKws-P-1" value="&lt;font color=&quot;#3399ff&quot;&gt;middleware&lt;/font&gt;" style="sketch=0;aspect=fixed;pointerEvents=1;shadow=0;dashed=0;html=1;strokeColor=#6c8ebf;labelPosition=center;verticalLabelPosition=bottom;verticalAlign=top;align=center;fillColor=#dae8fc;shape=mxgraph.mscae.enterprise.folder;gradientColor=#7ea6e0;" parent="1" vertex="1">
          <mxGeometry x="446.83000000000004" y="1280" width="50" height="43" as="geometry" />
        </mxCell>
        <mxCell id="b1qVXEJiYFjsM_bKws-P-2" value="&lt;font&gt;&lt;span style=&quot;&quot;&gt;errorHandler.go&lt;/span&gt;&lt;/font&gt;" style="image;aspect=fixed;html=1;points=[];align=center;fontSize=12;image=img/lib/azure2/general/File.svg;fontColor=#3399FF;labelBorderColor=none;labelBackgroundColor=none;" parent="1" vertex="1">
          <mxGeometry x="540.78" y="1283.5" width="29.22" height="36" as="geometry" />
        </mxCell>
        <mxCell id="b1qVXEJiYFjsM_bKws-P-13" value="&lt;font style=&quot;&quot;&gt;createUser.go&lt;/font&gt;" style="image;aspect=fixed;html=1;points=[];align=center;fontSize=12;image=img/lib/azure2/general/File.svg;fontColor=#3399FF;labelBackgroundColor=none;" parent="1" vertex="1">
          <mxGeometry x="664.7799999999999" y="209.5" width="29.22" height="36" as="geometry" />
        </mxCell>
        <mxCell id="b1qVXEJiYFjsM_bKws-P-14" style="edgeStyle=orthogonalEdgeStyle;rounded=0;orthogonalLoop=1;jettySize=auto;html=1;entryX=0.063;entryY=0.514;entryDx=0;entryDy=0;entryPerimeter=0;fillColor=#1ba1e2;strokeColor=#006EAF;" parent="1" source="sv7X3Cb8aacC4gwvDDDy-66" target="b1qVXEJiYFjsM_bKws-P-13" edge="1">
          <mxGeometry relative="1" as="geometry" />
        </mxCell>
        <mxCell id="1cLh0LhQ3bKAF6CjPqOm-1" value="&lt;font style=&quot;&quot;&gt;injection.go&lt;/font&gt;" style="image;aspect=fixed;html=1;points=[];align=center;fontSize=12;image=img/lib/azure2/general/File.svg;fontColor=#3399FF;labelBorderColor=none;labelBackgroundColor=none;" parent="1" vertex="1">
          <mxGeometry x="540.78" y="1193.5" width="29.22" height="36" as="geometry" />
        </mxCell>
        <mxCell id="q_JF1KUuVdif3fgiq083-32" style="edgeStyle=orthogonalEdgeStyle;rounded=0;orthogonalLoop=1;jettySize=auto;html=1;fillColor=#1ba1e2;strokeColor=#006EAF;" edge="1" parent="1" source="1cLh0LhQ3bKAF6CjPqOm-2" target="1cLh0LhQ3bKAF6CjPqOm-1">
          <mxGeometry relative="1" as="geometry" />
        </mxCell>
        <mxCell id="1cLh0LhQ3bKAF6CjPqOm-2" value="&lt;font color=&quot;#3399ff&quot;&gt;injection&lt;/font&gt;" style="sketch=0;aspect=fixed;pointerEvents=1;shadow=0;dashed=0;html=1;strokeColor=#6c8ebf;labelPosition=center;verticalLabelPosition=bottom;verticalAlign=top;align=center;fillColor=#dae8fc;shape=mxgraph.mscae.enterprise.folder;gradientColor=#7ea6e0;" parent="1" vertex="1">
          <mxGeometry x="446.8300000000001" y="1190" width="50" height="43" as="geometry" />
        </mxCell>
        <mxCell id="1cLh0LhQ3bKAF6CjPqOm-3" style="edgeStyle=orthogonalEdgeStyle;rounded=0;orthogonalLoop=1;jettySize=auto;html=1;entryX=0;entryY=0.5;entryDx=0;entryDy=0;entryPerimeter=0;fillColor=#1ba1e2;strokeColor=#006EAF;" parent="1" source="sv7X3Cb8aacC4gwvDDDy-52" target="1cLh0LhQ3bKAF6CjPqOm-2" edge="1">
          <mxGeometry relative="1" as="geometry" />
        </mxCell>
        <mxCell id="q_JF1KUuVdif3fgiq083-7" style="edgeStyle=orthogonalEdgeStyle;rounded=0;orthogonalLoop=1;jettySize=auto;html=1;entryX=0;entryY=0.5;entryDx=0;entryDy=0;entryPerimeter=0;fillColor=#1ba1e2;strokeColor=#006EAF;" edge="1" parent="1" source="sv7X3Cb8aacC4gwvDDDy-54" target="sv7X3Cb8aacC4gwvDDDy-78">
          <mxGeometry relative="1" as="geometry" />
        </mxCell>
        <mxCell id="q_JF1KUuVdif3fgiq083-10" style="edgeStyle=orthogonalEdgeStyle;rounded=0;orthogonalLoop=1;jettySize=auto;html=1;entryX=0;entryY=0.5;entryDx=0;entryDy=0;entryPerimeter=0;fillColor=#1ba1e2;strokeColor=#006EAF;" edge="1" parent="1" source="sv7X3Cb8aacC4gwvDDDy-44" target="sv7X3Cb8aacC4gwvDDDy-54">
          <mxGeometry relative="1" as="geometry" />
        </mxCell>
        <mxCell id="q_JF1KUuVdif3fgiq083-12" style="edgeStyle=orthogonalEdgeStyle;rounded=0;orthogonalLoop=1;jettySize=auto;html=1;entryX=-0.027;entryY=0.694;entryDx=0;entryDy=0;entryPerimeter=0;fillColor=#1ba1e2;strokeColor=#006EAF;" edge="1" parent="1" source="sv7X3Cb8aacC4gwvDDDy-66" target="sv7X3Cb8aacC4gwvDDDy-113">
          <mxGeometry relative="1" as="geometry" />
        </mxCell>
        <mxCell id="q_JF1KUuVdif3fgiq083-13" style="edgeStyle=orthogonalEdgeStyle;rounded=0;orthogonalLoop=1;jettySize=auto;html=1;entryX=0;entryY=0.5;entryDx=0;entryDy=0;entryPerimeter=0;fillColor=#1ba1e2;strokeColor=#006EAF;" edge="1" parent="1" source="sv7X3Cb8aacC4gwvDDDy-78" target="sv7X3Cb8aacC4gwvDDDy-66">
          <mxGeometry relative="1" as="geometry" />
        </mxCell>
        <mxCell id="q_JF1KUuVdif3fgiq083-14" value="&lt;font color=&quot;#3399ff&quot;&gt;mock&lt;/font&gt;" style="sketch=0;aspect=fixed;pointerEvents=1;shadow=0;dashed=0;html=1;strokeColor=#6c8ebf;labelPosition=center;verticalLabelPosition=bottom;verticalAlign=top;align=center;fillColor=#dae8fc;shape=mxgraph.mscae.enterprise.folder;gradientColor=#7ea6e0;" vertex="1" parent="1">
          <mxGeometry x="550" y="494.7199999999999" width="48" height="41.28" as="geometry" />
        </mxCell>
        <mxCell id="q_JF1KUuVdif3fgiq083-15" value="&lt;font style=&quot;&quot;&gt;mockUserRepository.go&lt;/font&gt;" style="image;aspect=fixed;html=1;points=[];align=center;fontSize=12;image=img/lib/azure2/general/File.svg;labelBackgroundColor=none;fontColor=#3399FF;" vertex="1" parent="1">
          <mxGeometry x="664" y="497.35999999999973" width="29.22" height="36" as="geometry" />
        </mxCell>
        <mxCell id="q_JF1KUuVdif3fgiq083-16" style="edgeStyle=orthogonalEdgeStyle;rounded=0;orthogonalLoop=1;jettySize=auto;html=1;entryX=0.076;entryY=0.518;entryDx=0;entryDy=0;entryPerimeter=0;fillColor=#1ba1e2;strokeColor=#006EAF;" edge="1" parent="1" source="q_JF1KUuVdif3fgiq083-14" target="q_JF1KUuVdif3fgiq083-15">
          <mxGeometry relative="1" as="geometry" />
        </mxCell>
        <mxCell id="q_JF1KUuVdif3fgiq083-18" value="&lt;font color=&quot;#3399ff&quot;&gt;service&lt;/font&gt;" style="sketch=0;aspect=fixed;pointerEvents=1;shadow=0;dashed=0;html=1;strokeColor=#6c8ebf;labelPosition=center;verticalLabelPosition=bottom;verticalAlign=top;align=center;fillColor=#dae8fc;shape=mxgraph.mscae.enterprise.folder;gradientColor=#7ea6e0;" vertex="1" parent="1">
          <mxGeometry x="550" y="589.9999999999999" width="48" height="41.28" as="geometry" />
        </mxCell>
        <mxCell id="q_JF1KUuVdif3fgiq083-19" value="&lt;font style=&quot;&quot;&gt;createUser.go&lt;/font&gt;" style="image;aspect=fixed;html=1;points=[];align=center;fontSize=12;image=img/lib/azure2/general/File.svg;labelBackgroundColor=none;fontColor=#3399FF;" vertex="1" parent="1">
          <mxGeometry x="664" y="592.6399999999998" width="29.22" height="36" as="geometry" />
        </mxCell>
        <mxCell id="q_JF1KUuVdif3fgiq083-20" style="edgeStyle=orthogonalEdgeStyle;rounded=0;orthogonalLoop=1;jettySize=auto;html=1;entryX=0.076;entryY=0.518;entryDx=0;entryDy=0;entryPerimeter=0;fillColor=#1ba1e2;strokeColor=#006EAF;" edge="1" parent="1" source="q_JF1KUuVdif3fgiq083-18" target="q_JF1KUuVdif3fgiq083-19">
          <mxGeometry relative="1" as="geometry" />
        </mxCell>
        <mxCell id="q_JF1KUuVdif3fgiq083-21" value="&lt;font style=&quot;&quot;&gt;service.go&lt;/font&gt;" style="image;aspect=fixed;html=1;points=[];align=center;fontSize=12;image=img/lib/azure2/general/File.svg;labelBackgroundColor=none;fontColor=#3399FF;" vertex="1" parent="1">
          <mxGeometry x="664" y="689.9999999999998" width="29.22" height="36" as="geometry" />
        </mxCell>
        <mxCell id="q_JF1KUuVdif3fgiq083-22" style="edgeStyle=orthogonalEdgeStyle;rounded=0;orthogonalLoop=1;jettySize=auto;html=1;entryX=0.034;entryY=0.611;entryDx=0;entryDy=0;entryPerimeter=0;fillColor=#1ba1e2;strokeColor=#006EAF;" edge="1" parent="1" source="q_JF1KUuVdif3fgiq083-18" target="q_JF1KUuVdif3fgiq083-21">
          <mxGeometry relative="1" as="geometry" />
        </mxCell>
        <mxCell id="q_JF1KUuVdif3fgiq083-23" style="edgeStyle=orthogonalEdgeStyle;rounded=0;orthogonalLoop=1;jettySize=auto;html=1;entryX=0;entryY=0.5;entryDx=0;entryDy=0;entryPerimeter=0;fillColor=#1ba1e2;strokeColor=#006EAF;" edge="1" parent="1" source="sv7X3Cb8aacC4gwvDDDy-78" target="sv7X3Cb8aacC4gwvDDDy-84">
          <mxGeometry relative="1" as="geometry" />
        </mxCell>
        <mxCell id="q_JF1KUuVdif3fgiq083-24" style="edgeStyle=orthogonalEdgeStyle;rounded=0;orthogonalLoop=1;jettySize=auto;html=1;entryX=0;entryY=0.5;entryDx=0;entryDy=0;entryPerimeter=0;fillColor=#1ba1e2;strokeColor=#006EAF;" edge="1" parent="1" source="sv7X3Cb8aacC4gwvDDDy-78" target="q_JF1KUuVdif3fgiq083-14">
          <mxGeometry relative="1" as="geometry" />
        </mxCell>
        <mxCell id="q_JF1KUuVdif3fgiq083-25" style="edgeStyle=orthogonalEdgeStyle;rounded=0;orthogonalLoop=1;jettySize=auto;html=1;entryX=0;entryY=0.5;entryDx=0;entryDy=0;entryPerimeter=0;fillColor=#1ba1e2;strokeColor=#006EAF;" edge="1" parent="1" source="sv7X3Cb8aacC4gwvDDDy-78" target="q_JF1KUuVdif3fgiq083-18">
          <mxGeometry relative="1" as="geometry" />
        </mxCell>
        <mxCell id="q_JF1KUuVdif3fgiq083-28" style="edgeStyle=orthogonalEdgeStyle;rounded=0;orthogonalLoop=1;jettySize=auto;html=1;entryX=0;entryY=0.472;entryDx=0;entryDy=0;entryPerimeter=0;fillColor=#1ba1e2;strokeColor=#006EAF;" edge="1" parent="1" source="sv7X3Cb8aacC4gwvDDDy-78" target="sv7X3Cb8aacC4gwvDDDy-89">
          <mxGeometry relative="1" as="geometry" />
        </mxCell>
        <mxCell id="q_JF1KUuVdif3fgiq083-29" style="edgeStyle=orthogonalEdgeStyle;rounded=0;orthogonalLoop=1;jettySize=auto;html=1;entryX=-0.034;entryY=0.482;entryDx=0;entryDy=0;entryPerimeter=0;fillColor=#1ba1e2;strokeColor=#006EAF;" edge="1" parent="1" source="sv7X3Cb8aacC4gwvDDDy-78" target="sv7X3Cb8aacC4gwvDDDy-94">
          <mxGeometry relative="1" as="geometry" />
        </mxCell>
        <mxCell id="q_JF1KUuVdif3fgiq083-30" style="edgeStyle=orthogonalEdgeStyle;rounded=0;orthogonalLoop=1;jettySize=auto;html=1;entryX=0;entryY=0.5;entryDx=0;entryDy=0;entryPerimeter=0;fillColor=#1ba1e2;strokeColor=#006EAF;" edge="1" parent="1" source="sv7X3Cb8aacC4gwvDDDy-44" target="sv7X3Cb8aacC4gwvDDDy-52">
          <mxGeometry relative="1" as="geometry" />
        </mxCell>
        <mxCell id="q_JF1KUuVdif3fgiq083-34" style="edgeStyle=orthogonalEdgeStyle;rounded=0;orthogonalLoop=1;jettySize=auto;html=1;entryX=0.008;entryY=0.667;entryDx=0;entryDy=0;entryPerimeter=0;fillColor=#1ba1e2;strokeColor=#006EAF;" edge="1" parent="1" source="sv7X3Cb8aacC4gwvDDDy-71" target="sv7X3Cb8aacC4gwvDDDy-110">
          <mxGeometry relative="1" as="geometry" />
        </mxCell>
        <mxCell id="q_JF1KUuVdif3fgiq083-35" style="edgeStyle=orthogonalEdgeStyle;rounded=0;orthogonalLoop=1;jettySize=auto;html=1;entryX=0;entryY=0.5;entryDx=0;entryDy=0;entryPerimeter=0;fillColor=#1ba1e2;strokeColor=#006EAF;" edge="1" parent="1" source="sv7X3Cb8aacC4gwvDDDy-52" target="b1qVXEJiYFjsM_bKws-P-1">
          <mxGeometry relative="1" as="geometry" />
        </mxCell>
        <mxCell id="q_JF1KUuVdif3fgiq083-40" style="edgeStyle=orthogonalEdgeStyle;rounded=0;orthogonalLoop=1;jettySize=auto;html=1;fillColor=#1ba1e2;strokeColor=#006EAF;" edge="1" parent="1" source="q_JF1KUuVdif3fgiq083-41" target="q_JF1KUuVdif3fgiq083-42">
          <mxGeometry relative="1" as="geometry" />
        </mxCell>
        <mxCell id="q_JF1KUuVdif3fgiq083-41" value="&lt;font color=&quot;#3399ff&quot;&gt;validate&lt;/font&gt;" style="sketch=0;aspect=fixed;pointerEvents=1;shadow=0;dashed=0;html=1;strokeColor=#6c8ebf;labelPosition=center;verticalLabelPosition=bottom;verticalAlign=top;align=center;fillColor=#dae8fc;shape=mxgraph.mscae.enterprise.folder;gradientColor=#7ea6e0;" vertex="1" parent="1">
          <mxGeometry x="446.83000000000004" y="1370" width="50" height="43" as="geometry" />
        </mxCell>
        <mxCell id="q_JF1KUuVdif3fgiq083-42" value="&lt;font&gt;&lt;span style=&quot;&quot;&gt;validate.go&lt;/span&gt;&lt;/font&gt;" style="image;aspect=fixed;html=1;points=[];align=center;fontSize=12;image=img/lib/azure2/general/File.svg;fontColor=#3399FF;labelBorderColor=none;labelBackgroundColor=none;" vertex="1" parent="1">
          <mxGeometry x="540.78" y="1373.5" width="29.22" height="36" as="geometry" />
        </mxCell>
        <mxCell id="q_JF1KUuVdif3fgiq083-43" style="edgeStyle=orthogonalEdgeStyle;rounded=0;orthogonalLoop=1;jettySize=auto;html=1;entryX=0;entryY=0.5;entryDx=0;entryDy=0;entryPerimeter=0;fillColor=#1ba1e2;strokeColor=#006EAF;" edge="1" parent="1" source="sv7X3Cb8aacC4gwvDDDy-52" target="q_JF1KUuVdif3fgiq083-41">
          <mxGeometry relative="1" as="geometry" />
        </mxCell>
        <mxCell id="q_JF1KUuVdif3fgiq083-44" value="&lt;font style=&quot;&quot;&gt;...all handlers&lt;/font&gt;" style="image;aspect=fixed;html=1;points=[];align=center;fontSize=12;image=img/lib/azure2/general/File.svg;fontColor=#3399FF;labelBackgroundColor=none;" vertex="1" parent="1">
          <mxGeometry x="749.9999999999999" y="209.5" width="29.22" height="36" as="geometry" />
        </mxCell>
        <mxCell id="q_JF1KUuVdif3fgiq083-45" value="&lt;font style=&quot;&quot;&gt;...all use cases&lt;/font&gt;" style="image;aspect=fixed;html=1;points=[];align=center;fontSize=12;image=img/lib/azure2/general/File.svg;fontColor=#3399FF;labelBackgroundColor=none;" vertex="1" parent="1">
          <mxGeometry x="759.9999999999999" y="592.64" width="29.22" height="36" as="geometry" />
        </mxCell>
        <mxCell id="q_JF1KUuVdif3fgiq083-46" style="edgeStyle=orthogonalEdgeStyle;rounded=0;orthogonalLoop=1;jettySize=auto;html=1;fillColor=#1ba1e2;strokeColor=#006EAF;" edge="1" parent="1" source="q_JF1KUuVdif3fgiq083-47" target="q_JF1KUuVdif3fgiq083-48">
          <mxGeometry relative="1" as="geometry" />
        </mxCell>
        <mxCell id="q_JF1KUuVdif3fgiq083-47" value="&lt;font color=&quot;#3399ff&quot;&gt;message&lt;/font&gt;" style="sketch=0;aspect=fixed;pointerEvents=1;shadow=0;dashed=0;html=1;strokeColor=#6c8ebf;labelPosition=center;verticalLabelPosition=bottom;verticalAlign=top;align=center;fillColor=#dae8fc;shape=mxgraph.mscae.enterprise.folder;gradientColor=#7ea6e0;" vertex="1" parent="1">
          <mxGeometry x="446.83000000000004" y="1460" width="50" height="43" as="geometry" />
        </mxCell>
        <mxCell id="q_JF1KUuVdif3fgiq083-48" value="&lt;font&gt;&lt;span style=&quot;&quot;&gt;response.go&lt;br&gt;&lt;/span&gt;&lt;/font&gt;" style="image;aspect=fixed;html=1;points=[];align=center;fontSize=12;image=img/lib/azure2/general/File.svg;fontColor=#3399FF;labelBorderColor=none;labelBackgroundColor=none;" vertex="1" parent="1">
          <mxGeometry x="540.78" y="1463.5" width="29.22" height="36" as="geometry" />
        </mxCell>
        <mxCell id="q_JF1KUuVdif3fgiq083-49" style="edgeStyle=orthogonalEdgeStyle;rounded=0;orthogonalLoop=1;jettySize=auto;html=1;entryX=0;entryY=0.5;entryDx=0;entryDy=0;entryPerimeter=0;fillColor=#1ba1e2;strokeColor=#006EAF;" edge="1" parent="1" source="sv7X3Cb8aacC4gwvDDDy-52" target="q_JF1KUuVdif3fgiq083-47">
          <mxGeometry relative="1" as="geometry" />
        </mxCell>
      </root>
    </mxGraphModel>
  </diagram>
</mxfile>
